<?xml version="1.0" standalone="no"?>
<!DOCTYPE svg PUBLIC "-//W3C//DTD SVG 1.1//EN" "http://www.w3.org/Graphics/SVG/1.1/DTD/svg11.dtd" >
<svg xmlns="http://www.w3.org/2000/svg" xmlns:xlink="http://www.w3.org/1999/xlink" version="1.1">
<metadata>
Created by FontForge 20170731 at Wed Nov  1 06:45:14 2023
 By Aleksey,,,
(c)Storytype Studio 2021. All Rights Reserved
</metadata>
<defs>
<font id="LostEmerald" horiz-adv-x="1169" >
  <font-face 
    font-family="Lost Emerald"
    font-weight="400"
    font-stretch="normal"
    units-per-em="2048"
    panose-1="0 0 0 0 0 0 0 0 0 0"
    ascent="1638"
    descent="-410"
    x-height="1055"
    cap-height="1475"
    bbox="-1073 -549 2777 1927"
    underline-thickness="102"
    underline-position="-358"
    unicode-range="U+000A-FB02"
  />
<missing-glyph horiz-adv-x="1079" 
d="M205 1434h874v-1434h-874v1434zM262 1393l379 -633l381 633h-760zM616 717l-368 614v-1231zM643 674l-379 -631h758zM668 717l370 -621v1239z" />
    <glyph glyph-name="fi.liga" unicode="fi" horiz-adv-x="1001" 
d="M53 1012v43h88q38 442 391 442q106 0 202 -38t167 -107l-172 -172q-26 126 -77.5 200t-108.5 74q-65 0 -87 -96.5t-24 -302.5h490v-938q0 -34 19.5 -54t53.5 -20h11v-43h-463v43h10q34 0 54 20t20 54v821q0 34 -20 54t-54 20h-121v-895q0 -33 20.5 -53.5t53.5 -20.5h10
v-43h-463v43h10q34 0 54 20t20 54v831q0 10 1 32t1 32h-86z" />
    <glyph glyph-name="fl.liga" unicode="fl" horiz-adv-x="995" 
d="M53 1012v43h88q38 442 391 442q119 0 222 -47l118 25h43v-1358q0 -34 20 -54t54 -20h10v-43h-462v43h10q33 0 53.5 20.5t20.5 53.5v1300q-37 37 -78 37q-65 0 -87 -96.5t-24 -302.5h117v-43h-117v-895q0 -33 20.5 -53.5t53.5 -20.5h10v-43h-463v43h10q34 0 54 20t20 54
v831v17l2 32v15h-86z" />
    <glyph glyph-name=".notdef" horiz-adv-x="1079" 
d="M205 1434h874v-1434h-874v1434zM262 1393l379 -633l381 633h-760zM616 717l-368 614v-1231zM643 674l-379 -631h758zM668 717l370 -621v1239z" />
    <glyph glyph-name=".null" horiz-adv-x="0" 
 />
    <glyph glyph-name=".null" horiz-adv-x="0" 
 />
    <glyph glyph-name="nonmarkingreturn" horiz-adv-x="0" 
 />
    <glyph glyph-name="nonmarkingreturn.1" unicode="&#xa;" horiz-adv-x="0" 
 />
    <glyph glyph-name="space" unicode=" " horiz-adv-x="686" 
 />
    <glyph glyph-name="exclam" unicode="!" horiz-adv-x="448" 
d="M297 -20q-65 0 -105 39t-40 104q0 64 40 103.5t105 39.5q63 0 102 -39.5t39 -103.5q0 -65 -39 -104t-102 -39zM446 1475v-31q0 -323 -57 -629l-70 -393h-40l-70 393q-57 306 -57 629v31h294z" />
    <glyph glyph-name="quotedbl" unicode="&#x22;" horiz-adv-x="415" 
d="M377 1028l-17 -82h-20l-14 82q-39 209 -39 410v35h127v-35q0 -182 -37 -410zM207 1028l-14 -82h-21l-14 82q-39 192 -39 410v35h127v-35q0 -201 -39 -410z" />
    <glyph glyph-name="numbersign" unicode="#" horiz-adv-x="1583" 
d="M473 440h590l125 590h-590zM348 53l74 346h-348l8 41h348l127 590h-348l8 43h348l74 348h41l-74 -348h592l74 348h41l-74 -348h346l-8 -43h-346l-127 -590h346l-8 -41h-346l-74 -346h-41l74 346h-592l-74 -346h-41z" />
    <glyph glyph-name="dollar" unicode="$" horiz-adv-x="1191" 
d="M682 582v-570q110 5 176 72.5t66 177.5q0 107 -63 180.5t-179 139.5zM639 954v492q-99 0 -159 -52t-60 -149q0 -91 56.5 -159t162.5 -132zM682 -160h-43v131q-155 3 -288.5 57t-219.5 154l156 178q39 -152 132 -245.5t220 -102.5v592q-29 15 -83 42.5t-86.5 44.5
t-80 45.5t-77 51.5t-63.5 57.5t-52.5 69t-31.5 80t-13 95.5q0 175 132 287t349 112h6v131h43v-133q135 -10 251 -65t195 -144l-155 -180q-82 315 -291 344v-512q28 -16 75.5 -42t79.5 -44t76 -44.5t74 -49.5t65 -53.5t58 -62t43 -69t29.5 -81t9.5 -91.5q0 -185 -140 -300.5
t-370 -121.5v-131z" />
    <glyph glyph-name="percent" unicode="%" horiz-adv-x="1339" 
d="M911 387q0 -171 38.5 -279t99.5 -108t98 106.5t37 274.5q0 169 -38 275t-99 106t-98.5 -104t-37.5 -271zM754 385q0 181 79.5 290t210.5 109t213 -111.5t82 -293.5q0 -178 -80.5 -288.5t-211.5 -110.5q-132 0 -212.5 111.5t-80.5 293.5zM281 1100q0 -171 38 -279t99 -108
t98 106.5t37 274.5q0 169 -38 274t-99 105t-98 -103t-37 -270zM256 0l844 1475h104l-844 -1475h-104zM123 1098q0 180 80.5 289.5t210.5 109.5q131 0 213 -111.5t82 -293.5q0 -178 -81 -289t-212 -111t-212 112.5t-81 293.5z" />
    <glyph glyph-name="ampersand" unicode="&#x26;" horiz-adv-x="1347" 
d="M954 172q-3 4 -47 58t-54 66.5t-50.5 63t-56 71t-51 66t-56 74t-49 68.5t-51.5 75t-45 70q-33 -71 -47.5 -173.5t-14.5 -174.5q0 -179 82.5 -285t196.5 -106q61 0 125 32.5t118 94.5zM700 979q45 68 70 156.5t25 158.5t-26.5 115t-72.5 45t-73 -46t-27 -114
q0 -134 104 -315zM1092 0q-55 72 -113 141l-2 2q-140 -166 -389 -166q-207 0 -340 106.5t-133 276.5q0 127 83.5 243.5t266.5 232.5q-141 240 -141 383q0 125 95 201.5t238 76.5q127 0 201 -62t74 -159q0 -95 -66.5 -183.5t-152.5 -138.5q118 -200 395 -524q72 202 61 442
l177 -65q-18 -108 -78.5 -223t-126.5 -197q181 -207 205 -237z" />
    <glyph glyph-name="quotesingle" unicode="'" horiz-adv-x="245" 
d="M207 1028l-14 -82h-21l-14 82q-39 192 -39 410v35h127v-35q0 -201 -39 -410z" />
    <glyph glyph-name="parenleft" unicode="(" horiz-adv-x="583" 
d="M782 -219q-186 54 -331 203t-224.5 363t-79.5 456q0 234 73 432.5t218 341t344 197.5v-43q-152 -44 -246 -311.5t-94 -643.5q0 -189 26 -357.5t71 -292t108 -203t135 -99.5v-43z" />
    <glyph glyph-name="parenright" unicode=")" horiz-adv-x="583" 
d="M385 803q0 -242 -79.5 -456t-224.5 -363t-331 -203v43q72 20 135 99.5t108 203t71 292t26 357.5q0 376 -94 643.5t-246 311.5v43q199 -55 344 -197.5t218 -341t73 -432.5z" />
    <glyph glyph-name="asterisk" unicode="*" horiz-adv-x="620" 
d="M307 930l39 241l-176 -170l-64 91l232 112l-227 117l65 92l170 -176l-39 238h111l-39 -240l176 170l66 -90l-234 -111l229 -119l-67 -88l-170 174l39 -241h-111z" />
    <glyph glyph-name="plus" unicode="+" horiz-adv-x="1218" 
d="M592 133v584h-584v43h584v583h43v-583h584v-43h-584v-584h-43z" />
    <glyph glyph-name="comma" unicode="," horiz-adv-x="380" 
d="M94 123q0 64 40.5 103.5t105.5 39.5q64 0 102.5 -40.5t38.5 -108.5q0 -45 -16.5 -89.5t-48 -86t-60 -72t-70.5 -68.5l-32 35q61 72 98 144h-12q-65 0 -105.5 39t-40.5 104z" />
    <glyph glyph-name="hyphenminus" unicode="-" horiz-adv-x="1146" 
d="M1145 717h-1104v43h1104v-43z" />
    <glyph glyph-name="period" unicode="." horiz-adv-x="380" 
d="M240 -20q-65 0 -105.5 39t-40.5 104q0 64 40.5 103.5t105.5 39.5q63 0 102 -39.5t39 -103.5q0 -65 -38.5 -104t-102.5 -39z" />
    <glyph glyph-name="slash" unicode="/" horiz-adv-x="532" 
d="M94 0l418 1554h41l-414 -1554h-45z" />
    <glyph glyph-name="zero" unicode="0" horiz-adv-x="1247" 
d="M438 750q0 -212 32.5 -378t92 -259t135.5 -93t133.5 92t88 254.5t30.5 370.5q0 320 -70.5 518.5t-185.5 198.5q-116 0 -186 -194.5t-70 -509.5zM143 743q0 341 150.5 547.5t396.5 206.5q247 0 401 -209.5t154 -552.5q0 -337 -152 -546t-399 -209q-248 0 -399.5 210.5
t-151.5 552.5z" />
    <glyph glyph-name="one" unicode="1" horiz-adv-x="606" 
d="M596 43h10v-43h-463v43h11q34 0 53.5 20t19.5 54v1159q0 33 -20 53.5t-53 20.5h-11v41q72 0 103.5 1t82 8.5t85.5 25.5t67 49h41v-1358q0 -33 20.5 -53.5t53.5 -20.5z" />
    <glyph glyph-name="two" unicode="2" horiz-adv-x="1161" 
d="M379 295h559q73 0 119 59l18 25h43l-63 -379h-998q96 96 196 211.5t201 253.5t179.5 269t128 262.5t49.5 230.5q0 111 -56.5 169t-150.5 58q-119 0 -202.5 -91t-125.5 -257l-155 180q85 99 215.5 155t286.5 56q214 0 343.5 -103t129.5 -280q0 -91 -39 -178.5t-98 -155
t-141 -138t-156 -123t-155 -115t-128 -109.5z" />
    <glyph glyph-name="three" unicode="3" horiz-adv-x="1212" 
d="M631 -18q-335 -3 -520 208l155 179q88 -349 336 -349q140 0 220.5 102t80.5 269q0 191 -100 300.5t-264 109.5v43q121 0 200.5 93.5t79.5 236.5q0 127 -62 203.5t-173 76.5q-230 0 -318 -348l-155 180q179 211 503 211q134 0 245 -35t183 -111t72 -182
q0 -115 -79.5 -208.5t-194.5 -135.5q74 -19 135 -50t113 -78t81 -116t29 -153q0 -200 -155.5 -321.5t-411.5 -124.5z" />
    <glyph glyph-name="four" unicode="4" horiz-adv-x="1150" 
d="M8 422v41l936 1012h55v-1012h84v-41h-84v-305q0 -34 20 -54t54 -20h10v-43h-465v43h13q33 0 53.5 20.5t20.5 53.5v305h-697zM63 463h642v694z" />
    <glyph glyph-name="five" unicode="5" horiz-adv-x="1114" 
d="M852 1475q32 0 64.5 16.5t54.5 42.5l18 27h41l-63 -381h-723v-463q11 7 51 32.5t64.5 40t70.5 37.5t84 35.5t89.5 22.5t101.5 10q100 0 180 -36.5t129.5 -99.5t75.5 -142t26 -168q0 -211 -133.5 -340t-355.5 -129q-146 0 -274 56t-214 154l156 179q41 -163 120.5 -256
t178.5 -93q107 0 172 104t65 282q0 109 -25 193t-84.5 138t-146.5 54q-78 0 -167 -38t-205 -106v828h649z" />
    <glyph glyph-name="six" unicode="6" horiz-adv-x="1181" 
d="M709 844q-99 0 -170.5 -127.5t-71.5 -310.5q0 -167 61 -276.5t156 -109.5q97 0 152 114.5t55 311.5q0 183 -47.5 290.5t-134.5 107.5zM1186 455q0 -212 -135 -343.5t-353 -131.5q-116 0 -210 41.5t-156.5 112t-105 169t-61 208t-18.5 232.5q0 343 139.5 548.5
t381.5 205.5q124 0 240 -55t202 -156l-156 -180q-41 161 -117 254.5t-163 93.5q-51 0 -90.5 -36t-64.5 -92.5t-42 -135t-24.5 -154.5t-10 -160.5t-2 -142t3.5 -110.5q52 136 131.5 204t206.5 68q177 0 290.5 -123t113.5 -317z" />
    <glyph glyph-name="seven" unicode="7" horiz-adv-x="1187" 
d="M926 1180h-650q-32 0 -64 -16t-52 -42l-19 -26h-43l64 379h997q-102 -136 -206 -317t-195.5 -381.5t-149 -408t-57.5 -368.5h-295q0 101 26.5 208t67.5 200t102.5 193t117.5 176t129 160t120.5 134t106.5 109z" />
    <glyph glyph-name="eight" unicode="8" horiz-adv-x="1243" 
d="M438 393q0 -165 71.5 -269t182.5 -104q112 0 183 107.5t71 271.5q0 159 -69.5 260t-182.5 101t-184.5 -101t-71.5 -266zM481 1133q0 -143 58 -237.5t151 -94.5q92 0 153.5 96.5t61.5 239.5q0 140 -60.5 228.5t-152.5 88.5q-93 0 -152 -88.5t-59 -232.5zM143 391
q0 145 97.5 247.5t265.5 141.5q-149 36 -234.5 126t-85.5 216q0 162 140.5 268.5t365.5 106.5q223 0 365.5 -106.5t142.5 -270.5q0 -125 -84.5 -214.5t-232.5 -125.5q166 -39 262 -140.5t96 -246.5q0 -184 -151 -298.5t-396 -114.5q-246 0 -398.5 115t-152.5 296z" />
    <glyph glyph-name="nine" unicode="9" horiz-adv-x="1181" 
d="M614 633q98 0 169 127t71 311q0 167 -60.5 275t-156.5 108q-98 0 -152.5 -114t-54.5 -312q0 -183 47.5 -289t136.5 -106zM135 1020q0 213 137.5 345t362.5 132q113 0 204 -37.5t153 -102.5t103.5 -157.5t60 -198.5t18.5 -229q0 -228 -61 -406t-182 -282t-284 -104
q-119 0 -234 55t-202 155l156 179q41 -161 117.5 -255t162.5 -94q51 0 91 36t65 92.5t42 136t24 154.5t10 160.5t2 143t-4 111.5q-52 -138 -131 -206t-205 -68q-179 0 -292.5 123.5t-113.5 316.5z" />
    <glyph glyph-name="colon" unicode=":" horiz-adv-x="405" 
d="M264 -20q-65 0 -105 39t-40 104q0 64 40 103.5t105 39.5q63 0 102.5 -39.5t39.5 -103.5q0 -65 -39 -104t-103 -39zM264 788q-65 0 -105 40t-40 104t40 103.5t105 39.5q63 0 102.5 -39.5t39.5 -103.5t-39.5 -104t-102.5 -40z" />
    <glyph glyph-name="semicolon" unicode=";" horiz-adv-x="407" 
d="M264 -20q-65 0 -105 39t-40 104q0 64 40 103.5t105 39.5q64 0 103 -40.5t39 -108.5q0 -45 -16.5 -89.5t-48 -86t-60 -72t-70.5 -68.5l-33 35q61 72 98 144h-12zM264 788q-65 0 -105 40t-40 104t40 103.5t105 39.5q63 0 102.5 -39.5t39.5 -103.5t-39.5 -104t-102.5 -40z
" />
    <glyph glyph-name="less" unicode="&#x3c;" horiz-adv-x="1165" 
d="M70 791l1085 413v-45l-1008 -383l1008 -383v-45l-1085 416v27z" />
    <glyph glyph-name="equal" unicode="=" horiz-adv-x="1267" 
d="M57 549h1211v-43h-1211v43zM57 969h1211v-41h-1211v41z" />
    <glyph glyph-name="greater" unicode="&#x3e;" horiz-adv-x="1165" 
d="M86 1204l1085 -413v-27l-1085 -416v45l1008 383l-1008 383v45z" />
    <glyph glyph-name="question" unicode="?" horiz-adv-x="1040" 
d="M473 -20q-65 0 -105 39t-40 104q0 64 40 103.5t105 39.5q63 0 102 -39.5t39 -103.5q0 -65 -39 -104t-102 -39zM492 422h-43q0 92 27 177t66 151.5t78 132.5t66 147t27 168q0 129 -56.5 192.5t-152.5 63.5q-119 0 -202.5 -91t-125.5 -257l-156 180q87 99 217 155t285 56
q214 0 344.5 -103t130.5 -280q0 -77 -28 -139t-72.5 -104t-98.5 -78.5t-107.5 -72t-98 -74.5t-72.5 -96t-28 -128z" />
    <glyph glyph-name="at" unicode="@" horiz-adv-x="1748" 
d="M1085 477v39q0 70 -2 105q-174 -5 -273 -88.5t-99 -239.5q0 -102 40.5 -163.5t102.5 -61.5q61 0 115 59.5t85 154t31 195.5zM1446 43h10q69 0 126 63t89.5 169.5t32.5 232.5q0 161 -56.5 299t-156 234.5t-241 151t-306.5 54.5q-224 0 -398.5 -95.5t-270 -263.5
t-95.5 -378q0 -164 60 -310t162 -249.5t241.5 -164t294.5 -60.5v-43q-163 0 -311.5 64t-256.5 173.5t-171.5 264t-63.5 327.5q0 226 104.5 404.5t290 277t418.5 98.5q176 0 325.5 -58.5t253.5 -161.5t162 -249.5t58 -318.5q0 -216 -83 -360t-208 -144h-371v254
q-48 -125 -142 -199.5t-222 -74.5q-132 0 -215.5 77t-83.5 197q0 119 87 212t236 143t336 53q-11 171 -59 261.5t-145 90.5q-85 0 -143 -70.5t-85 -200.5l-168 170q142 142 393 142q256 0 378 -142.5t122 -396.5v-401q0 -33 20.5 -52.5t51.5 -19.5z" />
    <glyph glyph-name="A" unicode="A" horiz-adv-x="1310" 
d="M221 440h527l-259 645zM881 111l-115 288h-561l-121 -288q-12 -31 0.5 -49.5t46.5 -18.5h31v-43h-232v43h11q33 0 60.5 18.5t41.5 49.5l565 1364h43l547 -1364q12 -31 39 -49.5t61 -18.5h11v-43h-506v43h33q32 0 44.5 18.5t0.5 49.5z" />
    <glyph glyph-name="B" unicode="B" horiz-adv-x="1224" 
d="M518 43h90q166 0 244 100.5t78 278.5t-78 278.5t-244 100.5h-164v-684q0 -33 20.5 -53.5t53.5 -20.5zM444 844h121q281 0 281 295t-281 295h-47q-32 0 -53 -21t-21 -53v-516zM797 0h-731v43h10q34 0 54 20t20 54v1243q0 33 -20.5 53.5t-53.5 20.5h-10v41h710
q92 0 164.5 -29t115 -77.5t64 -107t21.5 -122.5q0 -103 -53.5 -189.5t-157.5 -124.5q136 -36 215.5 -143t79.5 -260q0 -189 -117.5 -305.5t-310.5 -116.5z" />
    <glyph glyph-name="C" unicode="C" 
d="M1042 367l158 -183q-176 -204 -475 -204t-479 208t-180 551t178.5 550.5t474.5 207.5t479 -211l-156 -180q-42 165 -124 256.5t-195 91.5q-167 0 -265 -196t-98 -521t98 -521t265 -196q112 0 194.5 91.5t124.5 255.5z" />
    <glyph glyph-name="D" unicode="D" horiz-adv-x="1236" 
d="M518 43h90q90 0 148.5 32t98.5 112t57.5 213t17.5 337q0 271 -33.5 423t-101.5 213t-187 61h-90q-32 0 -53 -21t-21 -53v-1243q0 -33 20.5 -53.5t53.5 -20.5zM733 0h-667v43h10q34 0 54 20t20 54v1243q0 33 -20.5 53.5t-53.5 20.5h-10v41h667q81 0 150.5 -22t133.5 -75
t109.5 -135.5t72 -211.5t26.5 -294t-27 -294t-72 -211t-109 -135.5t-133.5 -75t-150.5 -21.5z" />
    <glyph glyph-name="E" unicode="E" horiz-adv-x="1138" 
d="M518 43h369l211 315h43v-358h-1075v43h10q34 0 54 20t20 54v1243q0 33 -20.5 53.5t-53.5 20.5h-10v41h1054v-359h-43l-211 318h-348q-32 0 -53 -21t-21 -53v-600h211l107 104h41v-254h-41l-107 107h-211v-600q0 -33 20.5 -53.5t53.5 -20.5z" />
    <glyph glyph-name="F" unicode="F" horiz-adv-x="1077" 
d="M518 43h10v-43h-462v43h10q34 0 54 20t20 54v1243q0 33 -20.5 53.5t-53.5 20.5h-10v41h1054v-359h-43l-211 318h-348q-32 0 -53 -21t-21 -53v-643h211l107 104h41v-252h-41l-107 105h-211v-557q0 -33 20.5 -53.5t53.5 -20.5z" />
    <glyph glyph-name="G" unicode="G" horiz-adv-x="1265" 
d="M1200 625v-441q-176 -204 -475 -204t-479 208t-180 551t178.5 550.5t474.5 207.5t479 -211l-156 -180q-42 165 -124 256.5t-195 91.5q-167 0 -265 -196t-98 -521t98 -521t265 -196q101 0 182 78v527q0 32 -21 52.5t-53 20.5h-12v41h465v-41h-10q-34 0 -54 -20t-20 -53z
" />
    <glyph glyph-name="H" unicode="H" horiz-adv-x="1310" 
d="M518 43h10v-43h-462v43h10q34 0 54 20t20 54v1243q0 33 -20.5 53.5t-53.5 20.5h-10v41h462v-41h-10q-32 0 -53 -21t-21 -53v-600h486v600q0 33 -20.5 53.5t-53.5 20.5h-10v41h463v-41h-11q-33 0 -53 -20.5t-20 -53.5v-1243q0 -34 19.5 -54t53.5 -20h11v-43h-463v43h10
q34 0 54 20t20 54v600h-486v-600q0 -33 20.5 -53.5t53.5 -20.5z" />
    <glyph glyph-name="I" unicode="I" horiz-adv-x="530" 
d="M518 43h10v-43h-462v43h10q34 0 54 20t20 54v1243q0 33 -20.5 53.5t-53.5 20.5h-10v41h462v-41h-10q-32 0 -53 -21t-21 -53v-1243q0 -33 20.5 -53.5t53.5 -20.5z" />
    <glyph glyph-name="J" unicode="J" horiz-adv-x="1079" 
d="M950 1360v-621q0 -178 -27.5 -312.5t-88.5 -237t-165.5 -156t-250.5 -53.5q-299 0 -475 204l157 183q42 -164 125 -255.5t195 -91.5q37 0 67.5 11t53 29t40.5 51t30 65.5t20 85t13 97.5t7.5 114.5t3 125t0.5 138.5v623q0 32 -20.5 53t-52.5 21h-11v41h463v-41h-10
q-33 0 -53.5 -20.5t-20.5 -53.5z" />
    <glyph glyph-name="K" unicode="K" horiz-adv-x="1267" 
d="M518 43h10v-43h-462v43h10q34 0 54 20t20 54v1243q0 33 -20.5 53.5t-53.5 20.5h-10v41h462v-41h-10q-32 0 -53 -21t-21 -53v-586l564 600q24 26 14 43t-43 17h-33v41h246v-41h-12q-64 0 -117 -60l-367 -391l510 -877q15 -28 46 -45.5t63 -17.5h16v-43h-401l-445 756
l-41 -39v-600q0 -33 20.5 -53.5t53.5 -20.5z" />
    <glyph glyph-name="L" unicode="L" horiz-adv-x="1097" 
d="M518 43h369l211 315h43v-358h-1075v43h10q34 0 54 20t20 54v1243q0 33 -20.5 53.5t-53.5 20.5h-10v41h462v-41h-10q-32 0 -53 -21t-21 -53v-1243q0 -33 20.5 -53.5t53.5 -20.5z" />
    <glyph glyph-name="M" unicode="M" horiz-adv-x="1691" 
d="M266 43h10v-43h-210v43h10q34 0 54 20t20 54v1243q0 33 -20.5 53.5t-53.5 20.5h-10v41h401l414 -1074l428 1074h383v-41h-13q-32 0 -52.5 -21t-20.5 -53v-1243q0 -33 20 -53.5t53 -20.5h13v-43h-465v43h10q34 0 54 20t20 54v1253l-545 -1370h-47l-526 1366v-1249
q0 -34 19.5 -54t53.5 -20z" />
    <glyph glyph-name="N" unicode="N" horiz-adv-x="1222" 
d="M266 43h10v-43h-210v43h10q34 0 54 20t20 54v1243q0 33 -20.5 53.5t-53.5 20.5h-10v41h434l598 -943v828q0 33 -20.5 53.5t-53.5 20.5h-10v41h211v-41h-11q-33 0 -53 -20.5t-20 -53.5v-1360h-54l-894 1411v-1294q0 -34 19.5 -54t53.5 -20z" />
    <glyph glyph-name="O" unicode="O" horiz-adv-x="1380" 
d="M360 737q0 -325 98 -521t265 -196t263.5 195.5t96.5 521.5t-96.5 521.5t-263.5 195.5t-265 -196t-98 -521zM66 739q0 343 178.5 550.5t474.5 207.5q198 0 348 -96.5t230.5 -270t80.5 -399.5q0 -341 -177.5 -546t-475.5 -205q-299 0 -479 208t-180 551z" />
    <glyph glyph-name="P" unicode="P" horiz-adv-x="1200" 
d="M444 653h101q174 0 279.5 107.5t105.5 288.5q0 173 -106 279t-279 106h-27q-32 0 -53 -21t-21 -53v-707zM797 610h-353v-493q0 -33 20.5 -53.5t53.5 -20.5h10v-43h-462v43h10q34 0 54 20t20 54v1243q0 33 -20.5 53.5t-53.5 20.5h-10v41h731q194 0 311 -119t117 -318
q0 -192 -117.5 -310t-310.5 -118z" />
    <glyph glyph-name="Q" unicode="Q" horiz-adv-x="1380" 
d="M360 737q0 -325 98 -521t265 -196t263.5 195.5t96.5 521.5t-96.5 521.5t-263.5 195.5t-265 -196t-98 -521zM66 739q0 343 178.5 550.5t474.5 207.5q198 0 348 -96.5t230.5 -270t80.5 -399.5q0 -223 -78.5 -392t-224.5 -262.5t-340 -96.5q13 -90 88.5 -143.5t177.5 -53.5
q21 0 39.5 2t36.5 8t29 9.5t28.5 14.5t23.5 15t25 18t23 17l129 -143q-26 -54 -100 -93t-170 -39q-108 0 -192 53.5t-129.5 140.5t-51.5 194q-287 12 -456.5 218.5t-169.5 540.5z" />
    <glyph glyph-name="R" unicode="R" horiz-adv-x="1306" 
d="M444 653h101q174 0 279.5 107.5t105.5 288.5q0 173 -106 279t-279 106h-27q-32 0 -53 -21t-21 -53v-707zM518 43h10v-43h-462v43h10q34 0 54 20t20 54v1243q0 33 -20.5 53.5t-53.5 20.5h-10v41h731q194 0 311 -119t117 -318q0 -166 -89.5 -277.5t-242.5 -139.5l315 -517
q17 -28 48 -44.5t63 -16.5h37v-43h-424l-373 610h-115v-493q0 -33 20.5 -53.5t53.5 -20.5z" />
    <glyph glyph-name="S" unicode="S" horiz-adv-x="1103" 
d="M883 1106q-42 167 -127.5 257.5t-210.5 90.5q-98 0 -156.5 -54t-58.5 -147q0 -75 42.5 -138t110.5 -109.5t150.5 -91t165 -93.5t150.5 -104.5t110.5 -136t42.5 -177.5q0 -192 -147.5 -307.5t-389.5 -115.5q-160 0 -297.5 54t-226.5 156l156 179q40 -159 141 -254t237 -95
q118 0 188.5 68t70.5 182q0 67 -26.5 123t-71 96.5t-102.5 76.5t-122 67.5t-128.5 63.5t-122.5 71t-102.5 84t-71 108t-26.5 138q0 175 132.5 287t349.5 112q151 0 280 -56t215 -155z" />
    <glyph glyph-name="T" unicode="T" horiz-adv-x="1161" 
d="M23 1116h-43v359h1179v-359h-41l-211 318h-116q-32 0 -53 -21t-21 -53v-1243q0 -33 20.5 -53.5t53.5 -20.5h10v-43h-463v43h10q34 0 54 20t20 54v1243q0 33 -20.5 53.5t-53.5 20.5h-115z" />
    <glyph glyph-name="U" unicode="U" horiz-adv-x="1222" 
d="M125 481v879q0 33 -20.5 53.5t-53.5 20.5h-10v41h463v-41h-10q-32 0 -53 -21t-21 -53v-901q0 -185 87 -290.5t234 -105.5q155 0 255 113t100 283v901q0 32 -21 53t-53 21h-12v41h211v-41h-11q-32 0 -52.5 -21t-20.5 -53v-879q0 -227 -138.5 -364t-367.5 -137t-367.5 137
t-138.5 364z" />
    <glyph glyph-name="V" unicode="V" horiz-adv-x="1306" 
d="M354 1366l391 -977l406 977q12 30 -1 49t-46 19h-31v41h232v-41h-11q-33 0 -60.5 -19t-39.5 -49l-567 -1366h-43l-545 1366q-14 30 -41.5 49t-60.5 19h-11v41h506v-41h-31q-33 0 -46 -19t-1 -49z" />
    <glyph glyph-name="W" unicode="W" horiz-adv-x="1900" 
d="M350 1364l309 -909l234 688l-76 221q-9 31 -35.5 50.5t-60.5 19.5h-10v41h501v-41h-32q-32 0 -46 -19.5t-4 -50.5l310 -909l309 909q9 31 -4 50.5t-45 19.5h-33v41h231v-41h-10q-32 0 -59.5 -19.5t-36.5 -50.5l-467 -1364h-41l-369 1079l-368 -1079h-43l-467 1364
q-9 31 -35.5 50.5t-60.5 19.5h-11v41h502v-41h-31q-33 0 -46.5 -19.5t-4.5 -50.5z" />
    <glyph glyph-name="X" unicode="X" horiz-adv-x="1241" 
d="M170 43h31v-43h-240v43h10q72 0 119 57l397 531l-411 737q-17 31 -47 48.5t-64 17.5h-10v41h526v-41h-30q-34 0 -44 -17.5t5 -48.5l270 -481l367 487q21 28 12.5 44t-41.5 16h-33v41h242v-41h-10q-34 0 -66.5 -16t-52.5 -44l-398 -526l414 -742q15 -29 46 -46t65 -17h14
v-43h-526v43h26q34 0 44 17t-7 46l-268 484l-369 -490q-21 -26 -13 -41.5t42 -15.5z" />
    <glyph glyph-name="Y" unicode="Y" horiz-adv-x="1196" 
d="M379 1368l326 -580l321 580q17 28 6 47t-43 19h-33v41h240v-41h-10q-33 0 -64.5 -19t-46.5 -47l-348 -625l-2 -4v-622q0 -33 20.5 -53.5t53.5 -20.5h10v-43h-463v43h10q34 0 54 20t20 54v557l-387 694q-18 29 -48 47.5t-63 18.5h-10v41h527v-41h-31q-33 0 -44 -19t5 -47z
" />
    <glyph glyph-name="Z" unicode="Z" horiz-adv-x="1171" 
d="M1122 0h-1134l815 1434h-477l-211 -318h-43v359h1091l-815 -1432h520l211 315h43v-358z" />
    <glyph glyph-name="bracketleft" unicode="[" horiz-adv-x="471" 
d="M176 -219v1993h410v-43h-115v-1907h115v-43h-410z" />
    <glyph glyph-name="backslash" unicode="\" horiz-adv-x="532" 
d="M94 1554l414 -1554h-41l-418 1554h45z" />
    <glyph glyph-name="bracketright" unicode="]" horiz-adv-x="471" 
d="M356 1774v-1993h-409v43h114v1907h-114v43h409z" />
    <glyph glyph-name="asciicircum" unicode="^" horiz-adv-x="499" 
d="M78 1133l201 383h20l201 -383h-88l-123 233l-123 -233h-88z" />
    <glyph glyph-name="underscore" unicode="_" horiz-adv-x="1208" 
d="M1206 -76h-1030v43h1030v-43z" />
    <glyph glyph-name="grave" unicode="`" horiz-adv-x="325" 
d="M295 1204l-221 228l133 88l110 -316h-22z" />
    <glyph glyph-name="a" unicode="a" horiz-adv-x="1091" 
d="M725 485v41q0 72 -2 107q-179 -5 -279 -89.5t-100 -244.5q0 -105 41 -167t104 -62q62 0 117 61t87 156.5t32 197.5zM1094 43h12v-43h-381v256q-47 -126 -144.5 -201t-228.5 -75q-133 0 -218 78.5t-85 201.5q0 120 89 214t241.5 145.5t341.5 54.5q-23 358 -209 358
q-86 0 -144.5 -71t-86.5 -201l-170 170q145 145 403 145q132 0 230 -39t158 -112t89 -172.5t29 -225.5v-409q0 -33 20.5 -53.5t53.5 -20.5z" />
    <glyph glyph-name="b" unicode="b" horiz-adv-x="1181" 
d="M659 63q97 0 151 120t54 339q0 222 -56 334.5t-157 112.5q-96 0 -163.5 -98t-67.5 -281v-127q0 -172 69 -286t170 -114zM420 1475v-644q46 115 135.5 179.5t206.5 64.5q182 0 290.5 -151t108.5 -402q0 -248 -108.5 -395t-296.5 -147q-120 0 -206.5 61.5t-129.5 173.5
v-215h-379v43h10q34 0 54 20t20 54v1159q0 33 -20.5 53.5t-53.5 20.5h-10v41l338 84h41z" />
    <glyph glyph-name="c" unicode="c" horiz-adv-x="997" 
d="M852 295l170 -170q-142 -145 -404 -145q-263 0 -405.5 147.5t-142.5 398.5q0 253 142.5 401t405.5 148q259 0 404 -145l-170 -170q-28 130 -86.5 201t-144.5 71q-124 0 -190 -136t-66 -370q0 -233 66.5 -369.5t189.5 -136.5q86 0 144.5 72t86.5 203z" />
    <glyph glyph-name="d" unicode="d" horiz-adv-x="1181" 
d="M821 463v127q0 183 -66.5 281t-164.5 98q-101 0 -157 -112.5t-56 -334.5q0 -219 54.5 -339t152.5 -120q100 0 168.5 114t68.5 286zM1190 43h12v-43h-381v215q-43 -112 -128.5 -173.5t-205.5 -61.5q-189 0 -297 147t-108 395q0 252 107.5 402.5t291.5 150.5
q117 0 205.5 -64.5t134.5 -179.5v445q0 33 -20 53.5t-53 20.5h-11v41l338 84h41v-1358q0 -33 20.5 -53.5t53.5 -20.5z" />
    <glyph glyph-name="e" unicode="e" horiz-adv-x="1054" 
d="M365 526h399q0 235 -48 370.5t-138 135.5q-94 0 -153.5 -140.5t-59.5 -365.5zM578 1075q228 0 354.5 -144t126.5 -405v-41h-694q6 -215 72 -340t184 -125q86 0 144.5 72t86.5 203l170 -170q-142 -145 -404 -145q-263 0 -405.5 147.5t-142.5 398.5q0 250 136 399.5
t372 149.5z" />
    <glyph glyph-name="f" unicode="f" horiz-adv-x="608" 
d="M53 1012v43h88q38 442 391 442q106 0 202 -38t167 -107l-172 -172q-26 126 -77.5 200t-108.5 74q-65 0 -87 -96.5t-24 -302.5h221v-43h-221v-895q0 -33 20.5 -53.5t53.5 -20.5h10v-43h-463v43h10q34 0 54 20t20 54v831q0 10 1 32t1 32h-86z" />
    <glyph glyph-name="g" unicode="g" horiz-adv-x="1105" 
d="M281 -172q54 -107 145 -168t211 -61q95 0 155 36.5t60 98.5q0 48 -38 71.5t-99 25.5t-137.5 -0.5t-152.5 -7.5t-144 5zM369 643q0 -178 62.5 -295t160.5 -117t159.5 115.5t61.5 294.5q0 177 -60.5 284t-160.5 107q-101 0 -162 -108t-61 -281zM74 633q0 196 142.5 319
t371.5 123q63 0 126.5 26.5t118.5 86t72 139.5l170 -170q-80 -80 -287 -108q149 -45 234.5 -154t85.5 -260q0 -195 -139 -317.5t-365 -127.5q-235 0 -235 -53q0 -19 41.5 -24.5t107.5 -4t145.5 4t159.5 -6t146 -29.5t107.5 -71t41.5 -125q0 -142 -137.5 -232.5t-362.5 -90.5
q-169 0 -308.5 54t-229.5 157l82 94q-62 42 -62 127q0 183 289 227q-147 46 -231 155.5t-84 260.5z" />
    <glyph glyph-name="h" unicode="h" horiz-adv-x="1189" 
d="M1110 748v-631q0 -34 20 -54t54 -20h10v-43h-463v43h10q33 0 53.5 20.5t20.5 53.5v585q0 120 -42.5 191.5t-125.5 71.5q-103 0 -165 -106.5t-62 -270.5v-471q0 -33 20.5 -53.5t53.5 -20.5h10v-43h-463v43h10q34 0 54 20t20 54v1159q0 33 -20.5 53.5t-53.5 20.5h-10v41
l338 84h41v-639q45 115 135.5 177t218.5 62q155 0 245.5 -88t90.5 -239z" />
    <glyph glyph-name="i" unicode="i" horiz-adv-x="514" 
d="M510 43h10v-43h-463v43h11q34 0 53.5 20t19.5 54v737q0 33 -20 53.5t-53 20.5h-11v41l338 86h41v-938q0 -33 20.5 -53.5t53.5 -20.5zM104 1313q0 83 50.5 133.5t132.5 50.5q83 0 132.5 -50.5t49.5 -133.5q0 -82 -49.5 -131t-132.5 -49q-82 0 -132.5 49.5t-50.5 130.5z
" />
    <glyph glyph-name="j" unicode="j" horiz-adv-x="481" 
d="M-721 -297l170 170q27 -125 79.5 -199.5t109.5 -74.5q19 0 34.5 8.5t26.5 28.5t19 42t13 60.5t8 72t4.5 87.5t2 96.5t0.5 109.5v750q0 33 -20.5 53.5t-53.5 20.5h-10v41l338 86h43v-951q0 -546 -395 -546q-106 0 -203 38t-166 107zM-106 1133q-83 0 -134 49t-51 131
q0 83 51 133.5t134 50.5q82 0 131 -50.5t49 -133.5q0 -82 -49 -131t-131 -49z" />
    <glyph glyph-name="k" unicode="k" horiz-adv-x="1148" 
d="M494 43h10v-43h-463v43h10q34 0 54 20t20 54v1159q0 33 -20.5 53.5t-53.5 20.5h-10v41l338 84h41v-848l416 340q25 22 20 34.5t-37 12.5h-33v41h258v-41h-10q-34 0 -70.5 -13t-60.5 -34l-231 -189l387 -674q15 -28 45.5 -44.5t64.5 -16.5h19v-43h-414l-338 586l-16 -15
v-454q0 -33 20.5 -53.5t53.5 -20.5z" />
    <glyph glyph-name="l" unicode="l" horiz-adv-x="505" 
d="M494 43h10v-43h-463v43h10q34 0 54 20t20 54v1159q0 33 -20.5 53.5t-53.5 20.5h-10v41l338 84h41v-1358q0 -33 20.5 -53.5t53.5 -20.5z" />
    <glyph glyph-name="m" unicode="m" horiz-adv-x="1679" 
d="M1331 1075q128 0 200.5 -89.5t72.5 -237.5v-631q0 -33 20 -53.5t53 -20.5h13v-43h-465v43h10q34 0 54 20t20 54v585q0 120 -29 191.5t-82 71.5q-68 0 -123 -110.5t-55 -266.5v-471q0 -33 20.5 -53.5t53.5 -20.5h12v-43h-465v43h10q34 0 54 20t20 54v585q0 120 -29 191.5
t-82 71.5q-70 0 -124 -110t-54 -267v-471q0 -33 20.5 -53.5t53.5 -20.5h10v-43h-463v43h11q34 0 53.5 20t19.5 54v737q0 33 -20 53.5t-53 20.5h-11v41l338 86h41v-215q43 111 125 173t187 62q111 0 179.5 -67.5t86.5 -184.5q41 120 124.5 186t192.5 66z" />
    <glyph glyph-name="n" unicode="n" horiz-adv-x="1198" 
d="M510 43h10v-43h-463v43h11q34 0 53.5 20t19.5 54v737q0 33 -20 53.5t-53 20.5h-11v41l338 86h41v-219q45 115 136 177t219 62q155 0 245 -88t90 -239v-631q0 -34 20 -54t54 -20h10v-43h-462v43h10q32 0 52.5 20.5t20.5 53.5v585q0 121 -42 192t-125 71
q-103 0 -165.5 -106.5t-62.5 -270.5v-471q0 -33 20.5 -53.5t53.5 -20.5z" />
    <glyph glyph-name="o" unicode="o" 
d="M365 526q0 -233 66.5 -369.5t189.5 -136.5q121 0 186 137t65 369q0 234 -65 370t-186 136q-124 0 -190 -136t-66 -370zM70 526q0 253 143 401t408 148q263 0 404.5 -148t141.5 -401q0 -252 -141.5 -399t-404.5 -147q-265 0 -408 147.5t-143 398.5z" />
    <glyph glyph-name="p" unicode="p" horiz-adv-x="1183" 
d="M664 63q97 0 150.5 120t53.5 339q0 222 -56 334.5t-157 112.5q-96 0 -163.5 -98t-67.5 -281v-127q0 -172 69.5 -286t170.5 -114zM498 -379h10v-43h-463v43h10q34 0 54 20t20 54v1159q0 33 -20.5 53.5t-53.5 20.5h-10v41l338 86h41v-224q46 115 135.5 179.5t206.5 64.5
q182 0 290.5 -151t108.5 -402q0 -248 -108.5 -395t-296.5 -147q-120 0 -206.5 61.5t-129.5 173.5v-520q0 -33 20.5 -53.5t53.5 -20.5z" />
    <glyph glyph-name="q" unicode="q" horiz-adv-x="1183" 
d="M377 522q0 -219 54.5 -339t152.5 -120q100 0 168.5 114t68.5 286v127q0 183 -66.5 281t-164.5 98q-101 0 -157 -112.5t-56 -334.5zM737 -379h11q34 0 53.5 20t19.5 54v520q-43 -112 -128.5 -173.5t-205.5 -61.5q-189 0 -297 147t-108 395q0 252 107.5 402.5t291.5 150.5
q117 0 205.5 -64.5t134.5 -179.5v224h43l338 -86v-41h-12q-32 0 -53 -21t-21 -53v-1159q0 -33 20.5 -53.5t53.5 -20.5h12v-43h-465v43z" />
    <glyph glyph-name="r" unicode="r" horiz-adv-x="964" 
d="M510 43h10v-43h-463v43h11q34 0 53.5 20t19.5 54v737q0 33 -20 53.5t-53 20.5h-11v41l338 86h41v-215q43 111 122.5 173t180.5 62q85 0 157 -43t110 -119l-209 -182q-14 121 -62 177.5t-104 56.5q-80 0 -137.5 -108.5t-57.5 -268.5v-471q0 -33 20.5 -53.5t53.5 -20.5z
" />
    <glyph glyph-name="s" unicode="s" horiz-adv-x="937" 
d="M735 760q-28 130 -86 201t-141 71q-73 0 -114.5 -49t-41.5 -106q0 -45 31.5 -85t82 -71.5t111.5 -63t122 -67.5t111.5 -76t82 -97t31.5 -124q0 -144 -131 -228.5t-347 -84.5q-271 0 -413 145l170 170q60 -275 250 -275q84 0 139 47.5t55 118.5q0 50 -31.5 92t-82 72.5
t-111 60.5t-121.5 63.5t-111.5 72.5t-82 96t-31.5 127q0 142 118.5 223.5t311.5 81.5q254 0 399 -145z" />
    <glyph glyph-name="t" unicode="t" horiz-adv-x="782" 
d="M109 1253l294 107v-305h222v-43h-222v-486q0 -52 0.5 -88t1 -80.5t2.5 -74.5t4.5 -65.5t7 -58.5t10.5 -47.5t14 -39.5t18.5 -28t23.5 -18.5t29 -5.5q48 0 75 69q13 36 48 195q1 5 2 11l170 -170q-76 -78 -142.5 -111.5t-174.5 -33.5q-202 0 -292.5 125.5t-90.5 379.5v527
h-84v43h84v198z" />
    <glyph glyph-name="u" unicode="u" horiz-adv-x="1191" 
d="M737 928h-10v41l336 86h43v-938q0 -34 20 -54t54 -20h10v-43h-379v219q-45 -115 -135.5 -177t-218.5 -62q-155 0 -245.5 87t-90.5 238v549q0 33 -20.5 53.5t-53.5 20.5h-10v41l328 86h51v-703q0 -121 42.5 -192.5t125.5 -71.5q101 0 164 107t63 270v389q0 32 -21 53
t-53 21z" />
    <glyph glyph-name="v" unicode="v" horiz-adv-x="1114" 
d="M995 944l-450 -944h-45l-430 944q-13 31 -42 49.5t-63 18.5h-10v43h516v-43h-35q-33 0 -45 -18.5t0 -49.5l275 -598l284 598q14 31 2.5 49.5t-45.5 18.5h-30v43h235v-43h-10q-34 0 -63 -18.5t-44 -49.5z" />
    <glyph glyph-name="w" unicode="w" horiz-adv-x="1644" 
d="M387 942l215 -551l174 418l-51 133q-14 32 -41 51t-61 19h-11v43h510v-43h-35q-34 0 -46.5 -19t-0.5 -51l215 -551l230 553q12 31 -0.5 49.5t-44.5 18.5h-33v43h235v-43h-10q-32 0 -60 -18.5t-40 -49.5l-393 -944h-45l-295 752l-314 -752h-45l-368 942q-13 32 -41 51
t-62 19h-10v43h510v-43h-35q-34 0 -46.5 -19t-0.5 -51z" />
    <glyph glyph-name="x" unicode="x" horiz-adv-x="1130" 
d="M209 43l31 -2v-41h-248v41h10q75 0 125 53l311 340l-336 518q-19 28 -50 45t-64 17h-8v41h534v-41h-33q-34 0 -43 -17t8 -45l195 -299l281 305q24 26 17 41t-40 15h-33v41h248v-41h-10q-75 0 -125 -56l-315 -340l333 -516q17 -26 49 -42.5t66 -16.5h18v-43h-534v43h25
q32 0 41.5 16.5t-9.5 42.5l-190 297l-277 -301q-24 -25 -17 -40t40 -15z" />
    <glyph glyph-name="y" unicode="y" horiz-adv-x="1114" 
d="M825 944l-450 -944q-41 -85 -70 -140.5t-63 -110t-64 -86.5t-67 -58t-78.5 -36.5t-91.5 -10.5q-185 0 -330 145l170 170q27 -125 82.5 -188.5t130.5 -63.5q88 0 164.5 88t173.5 291h-4l-430 944q-13 31 -42 49.5t-61 18.5h-12v43h518v-43h-37q-34 0 -46 -18.5t1 -49.5
l275 -598l284 598q14 31 2.5 49.5t-43.5 18.5h-32v43h235v-43h-10q-33 0 -62.5 -19t-42.5 -49z" />
    <glyph glyph-name="z" unicode="z" horiz-adv-x="1046" 
d="M977 0h-977l666 1012h-314l-211 -316h-43v359h940l-667 -1012h352l211 315h43v-358z" />
    <glyph glyph-name="braceleft" unicode="{" horiz-adv-x="512" 
d="M502 418q0 -67 -6 -143t-12 -128.5t-10.5 -107t-0.5 -89.5t18 -64t44.5 -42.5t78.5 -13.5v-43q-75 0 -136.5 14t-104.5 38t-75.5 58.5t-52 71t-31.5 81t-16.5 84t-4.5 83.5q0 63 9.5 131.5t22 119t24 100.5t14.5 84t-5 61t-35 40t-76 13v22q62 0 88.5 31t22.5 91
t-18 124.5t-30.5 155t-16.5 158.5q0 56 9.5 107.5t38 108.5t73 98t121.5 68t177 27v-41q-48 0 -79 -14.5t-44.5 -44.5t-17.5 -66t0.5 -89.5t10.5 -104t12 -121t6 -129.5q0 -317 -185 -367q49 -8 84.5 -36t55 -64t30.5 -86t14 -89t3 -87z" />
    <glyph glyph-name="bar" unicode="|" horiz-adv-x="219" 
d="M219 -266h-43v1782h43v-1782z" />
    <glyph glyph-name="braceright" unicode="}" horiz-adv-x="512" 
d="M-61 -170q48 0 79 13.5t45 42.5t18 64t0 89.5t-10 107t-12 128.5t-6 143q0 332 185 362q-183 50 -183 367q0 59 6 129.5t12 121t10 104t0 89.5t-18 66t-45 44.5t-79 14.5v41q100 0 177.5 -27t122.5 -68t73.5 -98t38 -108.5t9.5 -107.5q0 -52 -9 -114.5t-20.5 -113.5
t-22.5 -103.5t-13.5 -92t5 -71.5t33.5 -48.5t71 -16.5v-22q-49 0 -76 -13t-34.5 -40t-4.5 -61t15 -84t24 -100.5t22 -119t10 -131.5t-9 -117.5t-36.5 -114.5t-72.5 -101.5t-123 -69t-182 -27.5v43z" />
    <glyph glyph-name="asciitilde" unicode="~" horiz-adv-x="1015" 
d="M113 688h-23q10 61 35 111.5t74 86.5t114 36q56 0 133.5 -28.5t142.5 -62t142.5 -62t132.5 -28.5q116 0 129 115h23q-15 -110 -72.5 -166.5t-142.5 -56.5q-60 0 -143 28t-150.5 61t-143 61t-122.5 28q-60 0 -93 -37t-36 -86z" />
    <glyph glyph-name="nbspace" unicode="&#xa0;" horiz-adv-x="686" 
 />
    <glyph glyph-name="exclamdown" unicode="&#xa1;" horiz-adv-x="419" 
d="M426 -389v-33h-295v33q0 143 15.5 316t41.5 311l70 395h41l70 -395q26 -138 41.5 -311t15.5 -316zM131 932q0 64 40 103.5t105 39.5q63 0 102.5 -39.5t39.5 -103.5t-39.5 -104t-102.5 -40q-65 0 -105 40t-40 104z" />
    <glyph glyph-name="cent" unicode="&#xa2;" horiz-adv-x="1075" 
d="M616 33v987q-92 -33 -141 -163.5t-49 -330.5q0 -198 49 -328t141 -165zM657 -244h-41v226q-235 18 -360 163t-125 381q0 238 125 383.5t360 163.5v211h41v-209q281 0 426 -145l-170 -170q-28 130 -86.5 201t-144.5 71q-4 0 -12.5 -1t-12.5 -1v-1007q4 0 12.5 -1.5
t12.5 -1.5q86 0 144.5 72t86.5 203l170 -170q-80 -81 -186.5 -113t-239.5 -32v-224z" />
    <glyph glyph-name="sterling" unicode="&#xa3;" horiz-adv-x="1193" 
d="M588 43h368l211 315h43v-358h-1075v43h10q34 0 54 20t20 54v561h-84v43h84v227q0 266 118 407.5t345 141.5q240 0 385 -145l-170 -172q-28 129 -83 201.5t-124 72.5q-176 0 -176 -506v-227h385v-43h-385v-561q0 -33 20.5 -53.5t53.5 -20.5z" />
    <glyph glyph-name="currency" unicode="&#xa4;" horiz-adv-x="886" 
d="M172 778q0 -152 94.5 -247t245.5 -95q153 0 247.5 94.5t94.5 247.5q0 155 -94 248.5t-248 93.5q-152 0 -246 -94t-94 -248zM147 780q0 151 86 246l-114 115l14 14l115 -113q108 103 264 103q150 0 252 -86l98 96l17 -14l-99 -99q101 -98 101 -262q0 -160 -103 -268
l101 -98l-17 -19l-100 103q-94 -82 -250 -82q-158 0 -262 96l-117 -117l-14 19l117 112q-89 103 -89 254z" />
    <glyph glyph-name="yen" unicode="&#xa5;" horiz-adv-x="1384" 
d="M164 485h434v189l-387 694q-18 29 -48 47.5t-63 18.5h-10v41h526v-41h-30q-33 0 -44 -19t5 -47l325 -580l322 580q17 28 6 47t-43 19h-33v41h240v-41h-10q-33 0 -64.5 -19t-46.5 -47l-348 -625l-2 -4v-254h481v-43h-481v-168h481v-43h-481v-114q0 -33 20.5 -53.5
t53.5 -20.5h10v-43h-463v43h10q34 0 54 20t20 54v114h-434v43h434v168h-434v43z" />
    <glyph glyph-name="brokenbar" unicode="&#xa6;" horiz-adv-x="206" 
d="M207 -266h-43v727h43v-727zM207 788h-43v728h43v-728z" />
    <glyph glyph-name="section" unicode="&#xa7;" horiz-adv-x="1036" 
d="M455 866q2 -22 10.5 -42t29 -40.5t35 -34t50 -34.5t51 -30t61 -33t58.5 -31q-2 24 -11.5 46t-29 42t-36 34.5t-49 33.5t-51 29t-60 30.5t-58.5 29.5zM838 1180q-28 131 -86.5 202.5t-141.5 71.5q-73 0 -114 -49.5t-41 -106.5q0 -45 31.5 -85.5t82 -72t111 -63t121.5 -67
t111.5 -75.5t82 -96.5t31.5 -123.5q0 -128 -104 -209q104 -94 104 -213q0 -144 -131 -228.5t-346 -84.5q-272 0 -414 145l170 170q60 -275 250 -275q84 0 139.5 47.5t55.5 118.5q0 50 -31.5 92t-82 72.5t-111.5 60.5t-122 63.5t-111.5 72.5t-82 96t-31.5 127q0 129 101 211
q-101 87 -101 211q0 142 118.5 223.5t311.5 81.5q255 0 400 -145z" />
    <glyph glyph-name="dieresis" unicode="&#xa8;" horiz-adv-x="421" 
d="M78 1239q0 35 23 58.5t57 23.5q35 0 58.5 -23.5t23.5 -58.5q0 -33 -23.5 -56.5t-58.5 -23.5q-33 0 -56.5 23.5t-23.5 56.5zM260 1239q0 35 23 58.5t57 23.5t58 -23.5t24 -58.5q0 -32 -24 -56t-58 -24q-33 0 -56.5 23.5t-23.5 56.5z" />
    <glyph glyph-name="copyright" unicode="&#xa9;" horiz-adv-x="1691" 
d="M1176 506l172 -170q-143 -146 -406 -146t-405 147.5t-142 399.5q0 253 142 401t405 148q261 0 406 -145l-172 -172q-27 131 -85.5 202.5t-146.5 71.5q-122 0 -188 -137t-66 -369t66 -369t188 -137q87 0 146 72t86 203zM911 1470q-198 0 -367 -98.5t-267.5 -267.5
t-98.5 -369q0 -199 98.5 -368t267.5 -267t367 -98q150 0 286.5 58t235.5 156t157.5 234t58.5 285q0 120 -37.5 232t-106 202.5t-159 158.5t-203 105t-232.5 37zM911 -41q-158 0 -301.5 61.5t-247.5 165t-165.5 247.5t-61.5 302t61.5 302t165.5 248t247.5 166t301.5 62
q159 0 304 -62t249 -166t166 -248t62 -302t-61.5 -302t-166.5 -247.5t-249.5 -165t-303.5 -61.5z" />
    <glyph glyph-name="ordfeminine" unicode="&#xaa;" horiz-adv-x="802" 
d="M559 1112v29q0 11 -1 34t-1 35q-116 -3 -181 -58t-65 -159q0 -69 27 -109t68 -40q60 0 106.5 84t46.5 184zM797 825h10v-26h-248v166q-30 -80 -94.5 -129.5t-147.5 -49.5q-87 0 -142.5 51t-55.5 130t59 140.5t158 94.5t221 35q-16 231 -135 231q-57 0 -95.5 -46
t-56.5 -130l-110 109q93 96 260 96q169 0 250.5 -94t81.5 -262v-267q0 -22 12.5 -35.5t32.5 -13.5z" />
    <glyph glyph-name="guillemotleft" unicode="&#xab;" horiz-adv-x="944" 
d="M502 356l-420 420l420 420l90 -158l-262 -262l262 -262zM834 356l-418 420l418 420l92 -158l-262 -262l262 -262z" />
    <glyph glyph-name="logicalnot" unicode="&#xac;" horiz-adv-x="1187" 
d="M37 760h1104v-574h-41v531h-1063v43z" />
    <glyph glyph-name="softhyphen" unicode="&#xad;" horiz-adv-x="0" 
 />
    <glyph glyph-name="registered" unicode="&#xae;" horiz-adv-x="1691" 
d="M713 678h69q122 0 196.5 75.5t74.5 200.5q0 124 -74.5 198.5t-196.5 74.5h-18q-24 0 -37.5 -13.5t-13.5 -37.5v-498zM764 248h8v-29h-328v29h9q23 0 37 15t14 38v875q0 23 -14 37t-37 14h-9v28h514q137 0 220.5 -83t83.5 -222q0 -117 -64 -196t-172 -99l221 -362
q32 -45 80 -45h25v-29h-297l-264 430h-78v-348q0 -24 13.5 -38.5t37.5 -14.5zM178 735q0 -199 98.5 -368t267.5 -267t367 -98q150 0 286.5 58t235.5 156t157.5 234t58.5 285q0 120 -37.5 232t-106 202.5t-159 158.5t-203 105t-232.5 37q-198 0 -367 -98.5t-267.5 -267.5
t-98.5 -369zM135 735q0 158 61.5 302t165.5 248t247.5 166t301.5 62q159 0 304 -62t249 -166t166 -248t62 -302t-61.5 -302t-166.5 -247.5t-249.5 -165t-303.5 -61.5q-158 0 -301.5 61.5t-247.5 165t-165.5 247.5t-61.5 302z" />
    <glyph glyph-name="macron" unicode="&#xaf;" horiz-adv-x="538" 
d="M539 1204h-473v99h473v-99z" />
    <glyph glyph-name="degree" unicode="&#xb0;" horiz-adv-x="550" 
d="M231 1251q0 -39 28.5 -67.5t68.5 -28.5q41 0 69.5 28.5t28.5 67.5q0 42 -28.5 71.5t-69.5 29.5q-40 0 -68.5 -30t-28.5 -71zM106 1251q0 92 65 158t157 66t156.5 -65.5t64.5 -158.5q0 -90 -64.5 -155.5t-156.5 -65.5t-157 65.5t-65 155.5z" />
    <glyph glyph-name="plusminus" unicode="&#xb1;" horiz-adv-x="1288" 
d="M78 96h1210v-41h-1210v41zM662 133v584h-584v43h584v583h43v-583h583v-43h-583v-584h-43z" />
    <glyph glyph-name="twosuperior" unicode="&#xb2;" horiz-adv-x="677" 
d="M256 850h303q40 0 62 31l12 12h22l-37 -203h-536q91 90 180 202.5t158 242.5t69 217q0 60 -30.5 90.5t-81.5 30.5q-126 0 -176 -187l-84 96q45 53 116 84t154 31q115 0 185.5 -55.5t70.5 -149.5q0 -59 -28 -113.5t-75.5 -99.5t-95.5 -82t-104 -78t-84 -69z" />
    <glyph glyph-name="threesuperior" unicode="&#xb3;" horiz-adv-x="700" 
d="M389 688q-179 0 -278 111l84 94q24 -90 67.5 -137t112.5 -47q74 0 117 54.5t43 143.5q0 100 -54 159.5t-141 59.5v21q64 0 106.5 50.5t42.5 125.5q0 69 -32.5 109.5t-91.5 40.5q-120 0 -170 -185l-84 94q100 115 270 115q71 0 129.5 -18.5t96.5 -59.5t38 -98
q0 -62 -41.5 -111.5t-103.5 -70.5q192 -52 192 -213q0 -105 -84 -170.5t-219 -67.5z" />
    <glyph glyph-name="acute" unicode="&#xb4;" horiz-adv-x="327" 
d="M330 1386l-221 -227h-23l113 316z" />
    <glyph glyph-name="paragraph" unicode="&#xb6;" horiz-adv-x="909" 
d="M866 1466v-1466h-43v1530h-22v-1530h-254v844q-204 0 -330.5 98.5t-126.5 255.5t129 256.5t338 99.5h377v-24h-2q-29 0 -47.5 -17.5t-18.5 -46.5z" />
    <glyph glyph-name="periodcentered" unicode="&#xb7;" horiz-adv-x="479" 
d="M295 602q-77 -6 -136 45t-65 129q-5 77 46.5 136t127.5 63q78 6 136.5 -44.5t64.5 -127.5q6 -78 -45 -137.5t-129 -63.5z" />
    <glyph glyph-name="cedilla" unicode="&#xb8;" horiz-adv-x="557" 
d="M555 -260q0 -61 -34 -102.5t-84 -54.5t-103.5 -8t-97.5 35.5t-60 76.5q49 -43 113 -53.5t112 21.5t48 101q0 109 -97 121l43 123h68l-37 -102q129 -38 129 -158z" />
    <glyph glyph-name="onesuperior" unicode="&#xb9;" horiz-adv-x="374" 
d="M369 715h4v-23h-246v23h6q18 0 29.5 10t11.5 27v618q0 17 -12 28t-29 11h-6v23q52 0 73.5 1t53 11t51.5 31h25v-723q0 -37 39 -37z" />
    <glyph glyph-name="ordmasculine" unicode="&#xba;" horiz-adv-x="837" 
d="M315 1143q0 -153 43 -242.5t123 -89.5q78 0 121 90t43 242q0 150 -43 237.5t-121 87.5q-80 0 -123 -87t-43 -238zM123 1143q0 163 93 258.5t265 95.5q170 0 263.5 -95.5t93.5 -258.5q0 -164 -93.5 -260.5t-263.5 -96.5q-172 0 -265 96.5t-93 260.5z" />
    <glyph glyph-name="guillemotright" unicode="&#xbb;" horiz-adv-x="944" 
d="M963 776l-420 -420l-90 158l260 262l-260 262l90 158zM629 776l-420 -420l-90 158l262 262l-262 262l90 158z" />
    <glyph glyph-name="onequarter" unicode="&#xbc;" horiz-adv-x="1075" 
d="M508 246h342v370zM481 223v23l496 538h29v-538h45v-23h-45v-162q0 -17 11 -27.5t30 -10.5h4v-23h-246v23h6q17 0 28 10.5t11 27.5v162h-369zM123 0l844 1475h104l-844 -1475h-104zM430 715h4v-23h-246v23h7q18 0 29.5 10t11.5 27v618q0 17 -12 28t-29 11h-7v23
q52 0 73.5 1t53.5 11t52 31h24v-723q0 -37 39 -37z" />
    <glyph glyph-name="onehalf" unicode="&#xbd;" horiz-adv-x="1263" 
d="M866 160h301q44 0 64 33l12 12h23l-37 -205h-537q91 90 180 203t158.5 243t69.5 216q0 60 -31 91t-82 31q-127 0 -176 -188l-84 98q45 53 115.5 83t154.5 30q115 0 185.5 -55.5t70.5 -149.5q0 -58 -28 -113t-75.5 -100t-95.5 -81.5t-103.5 -77.5t-84.5 -70zM123 0
l844 1475h104l-844 -1475h-104zM430 715h4v-23h-246v23h7q18 0 29.5 10t11.5 27v618q0 17 -12 28t-29 11h-7v23q52 0 73.5 1t53.5 11t52 31h24v-723q0 -37 39 -37z" />
    <glyph glyph-name="threequarters" unicode="&#xbe;" horiz-adv-x="1261" 
d="M686 246h342v370zM659 223v23l496 538h29v-538h45v-23h-45v-162q0 -17 11 -27.5t30 -10.5h4v-23h-246v23h4q19 0 30 10.5t11 27.5v162h-369zM301 0l842 1475h106l-843 -1475h-105zM381 688q-180 0 -279 111l84 94q24 -90 68 -137t113 -47q74 0 116.5 54.5t42.5 143.5
q0 100 -53.5 159.5t-140.5 59.5v21q64 0 106.5 50.5t42.5 125.5q0 69 -33 109.5t-92 40.5q-120 0 -170 -185l-84 94q100 115 271 115q71 0 129.5 -18.5t96.5 -59.5t38 -98q0 -62 -41.5 -111.5t-103.5 -70.5q192 -52 192 -213q0 -105 -84 -170.5t-219 -67.5z" />
    <glyph glyph-name="questiondown" unicode="&#xbf;" horiz-adv-x="735" 
d="M543 633h43q0 -93 -27 -178t-66 -152t-78 -132.5t-66 -146.5t-27 -167q0 -131 55.5 -194.5t152.5 -63.5q118 0 202 91.5t124 256.5l158 -178q-86 -99 -217 -155t-285 -56q-214 0 -344.5 103t-130.5 278q0 77 28 139.5t72.5 104.5t98.5 78.5t108 72t98.5 75t72.5 96.5
t28 128zM559 1075q65 0 105.5 -39.5t40.5 -103.5t-40.5 -104t-105.5 -40q-63 0 -102 40t-39 104t39 103.5t102 39.5z" />
    <glyph glyph-name="Agrave" unicode="&#xc0;" horiz-adv-x="1310" 
d="M221 440h527l-259 645zM881 111l-115 288h-561l-121 -288q-12 -31 0.5 -49.5t46.5 -18.5h31v-43h-232v43h11q33 0 60.5 18.5t41.5 49.5l565 1364h43l547 -1364q12 -31 39 -49.5t61 -18.5h11v-43h-506v43h33q32 0 44.5 18.5t0.5 49.5zM721 1612l-221 227l133 88l110 -315
h-22z" />
    <glyph glyph-name="Aacute" unicode="&#xc1;" horiz-adv-x="1310" 
d="M221 440h527l-259 645zM881 111l-115 288h-561l-121 -288q-12 -31 0.5 -49.5t46.5 -18.5h31v-43h-232v43h11q33 0 60.5 18.5t41.5 49.5l565 1364h43l547 -1364q12 -31 39 -49.5t61 -18.5h11v-43h-506v43h33q32 0 44.5 18.5t0.5 49.5zM743 1794l-221 -227h-22l112 315z
" />
    <glyph glyph-name="Acircumflex" unicode="&#xc2;" horiz-adv-x="1310" 
d="M221 440h527l-259 645zM881 111l-115 288h-561l-121 -288q-12 -31 0.5 -49.5t46.5 -18.5h31v-43h-232v43h11q33 0 60.5 18.5t41.5 49.5l565 1364h43l547 -1364q12 -31 39 -49.5t61 -18.5h11v-43h-506v43h33q32 0 44.5 18.5t0.5 49.5zM633 1882l221 -227l-131 -88
l-100 288l-103 -288l-133 88l221 227h25z" />
    <glyph glyph-name="Atilde" unicode="&#xc3;" horiz-adv-x="1310" 
d="M221 440h527l-259 645zM881 111l-115 288h-561l-121 -288q-12 -31 0.5 -49.5t46.5 -18.5h31v-43h-232v43h11q33 0 60.5 18.5t41.5 49.5l565 1364h43l547 -1364q12 -31 39 -49.5t61 -18.5h11v-43h-506v43h33q32 0 44.5 18.5t0.5 49.5zM449 1714q-37 0 -69.5 -31t-41.5 -63
q12 90 50.5 149.5t105.5 59.5q37 0 80.5 -21t77.5 -45.5t78 -45.5t81 -21q59 0 92 67q-26 -182 -147 -182q-50 0 -109 33.5t-111.5 66.5t-86.5 33z" />
    <glyph glyph-name="Adieresis" unicode="&#xc4;" horiz-adv-x="1310" 
d="M221 440h527l-259 645zM881 111l-115 288h-561l-121 -288q-12 -31 0.5 -49.5t46.5 -18.5h31v-43h-232v43h11q33 0 60.5 18.5t41.5 49.5l565 1364h43l547 -1364q12 -31 39 -49.5t61 -18.5h11v-43h-506v43h33q32 0 44.5 18.5t0.5 49.5zM449 1647q0 35 22.5 58.5t56.5 23.5
q35 0 58.5 -23.5t23.5 -58.5q0 -33 -23.5 -56.5t-58.5 -23.5q-33 0 -56 23.5t-23 56.5zM631 1647q0 35 23 58.5t57 23.5t58 -23.5t24 -58.5q0 -32 -24 -56t-58 -24q-33 0 -56.5 23.5t-23.5 56.5z" />
    <glyph glyph-name="Aring" unicode="&#xc5;" horiz-adv-x="1310" 
d="M221 440h527l-259 645zM881 111l-115 288h-561l-121 -288q-12 -31 0.5 -49.5t46.5 -18.5h31v-43h-232v43h11q33 0 60.5 18.5t41.5 49.5l565 1364h43l547 -1364q12 -31 39 -49.5t61 -18.5h11v-43h-506v43h33q32 0 44.5 18.5t0.5 49.5zM535 1755q0 -37 24.5 -62.5
t61.5 -25.5t61.5 25.5t24.5 62.5q0 36 -25 61t-61 25t-61 -25t-25 -61zM477 1755q0 60 42.5 103t101.5 43q60 0 102.5 -43t42.5 -103t-42.5 -101.5t-102.5 -41.5q-59 0 -101.5 41.5t-42.5 101.5z" />
    <glyph glyph-name="AE" unicode="&#xc6;" horiz-adv-x="1880" 
d="M268 440h551v920q0 15 -8 35zM1190 43h369l210 315h41v-358h-1075v43h10q34 0 54 20t20 54v282h-575l-164 -288q-15 -29 -1 -48.5t48 -19.5h31v-43h-232v43h11q62 0 102 68l747 1312q-18 11 -41 11h-10v41h1055v-359h-43l-211 318h-346q-34 0 -55 -21t-21 -53v-600h211
l107 104h41v-254h-41l-107 107h-211v-600q0 -34 21 -54t55 -20z" />
    <glyph glyph-name="Ccedilla" unicode="&#xc7;" 
d="M1042 367l158 -183q-176 -204 -475 -204t-479 208t-180 551t178.5 550.5t474.5 207.5t479 -211l-156 -180q-42 165 -124 256.5t-195 91.5q-167 0 -265 -196t-98 -521t98 -521t265 -196q112 0 194.5 91.5t124.5 255.5zM807 -260q0 -61 -34 -102.5t-84 -54.5t-103.5 -8
t-97.5 35.5t-60 76.5q49 -43 113 -53.5t111.5 21.5t47.5 101q0 110 -96 121l43 123h68l-37 -102q129 -38 129 -158z" />
    <glyph glyph-name="Egrave" unicode="&#xc8;" horiz-adv-x="1138" 
d="M518 43h369l211 315h43v-358h-1075v43h10q34 0 54 20t20 54v1243q0 33 -20.5 53.5t-53.5 20.5h-10v41h1054v-359h-43l-211 318h-348q-32 0 -53 -21t-21 -53v-600h211l107 104h41v-254h-41l-107 107h-211v-600q0 -33 20.5 -53.5t53.5 -20.5zM702 1612l-221 227l133 88
l111 -315h-23z" />
    <glyph glyph-name="Eacute" unicode="&#xc9;" horiz-adv-x="1138" 
d="M518 43h369l211 315h43v-358h-1075v43h10q34 0 54 20t20 54v1243q0 33 -20.5 53.5t-53.5 20.5h-10v41h1054v-359h-43l-211 318h-348q-32 0 -53 -21t-21 -53v-600h211l107 104h41v-254h-41l-107 107h-211v-600q0 -33 20.5 -53.5t53.5 -20.5zM725 1794l-221 -227h-23
l113 315z" />
    <glyph glyph-name="Ecircumflex" unicode="&#xca;" horiz-adv-x="1138" 
d="M518 43h369l211 315h43v-358h-1075v43h10q34 0 54 20t20 54v1243q0 33 -20.5 53.5t-53.5 20.5h-10v41h1054v-359h-43l-211 318h-348q-32 0 -53 -21t-21 -53v-600h211l107 104h41v-254h-41l-107 107h-211v-600q0 -33 20.5 -53.5t53.5 -20.5zM614 1882l222 -227l-131 -88
l-101 288l-102 -288l-133 88l221 227h24z" />
    <glyph glyph-name="Edieresis" unicode="&#xcb;" horiz-adv-x="1138" 
d="M518 43h369l211 315h43v-358h-1075v43h10q34 0 54 20t20 54v1243q0 33 -20.5 53.5t-53.5 20.5h-10v41h1054v-359h-43l-211 318h-348q-32 0 -53 -21t-21 -53v-600h211l107 104h41v-254h-41l-107 107h-211v-600q0 -33 20.5 -53.5t53.5 -20.5zM430 1647q0 35 23 58.5
t57 23.5q35 0 58.5 -23.5t23.5 -58.5q0 -33 -23.5 -56.5t-58.5 -23.5q-33 0 -56.5 23.5t-23.5 56.5zM612 1647q0 35 23 58.5t57 23.5t58 -23.5t24 -58.5q0 -32 -24 -56t-58 -24q-33 0 -56.5 23.5t-23.5 56.5z" />
    <glyph glyph-name="Igrave" unicode="&#xcc;" horiz-adv-x="530" 
d="M518 43h10v-43h-462v43h10q34 0 54 20t20 54v1243q0 33 -20.5 53.5t-53.5 20.5h-10v41h462v-41h-10q-32 0 -53 -21t-21 -53v-1243q0 -33 20.5 -53.5t53.5 -20.5zM397 1612l-221 227l133 88l111 -315h-23z" />
    <glyph glyph-name="Iacute" unicode="&#xcd;" horiz-adv-x="530" 
d="M518 43h10v-43h-462v43h10q34 0 54 20t20 54v1243q0 33 -20.5 53.5t-53.5 20.5h-10v41h462v-41h-10q-32 0 -53 -21t-21 -53v-1243q0 -33 20.5 -53.5t53.5 -20.5zM420 1794l-221 -227h-23l113 315z" />
    <glyph glyph-name="Icircumflex" unicode="&#xce;" horiz-adv-x="530" 
d="M516 43h10v-43h-463v43h11q34 0 53.5 20t19.5 54v1243q0 33 -20 53.5t-53 20.5h-11v41h463v-41h-10q-32 0 -53 -21t-21 -53v-1243q0 -33 20.5 -53.5t53.5 -20.5zM307 1882l221 -227l-131 -88l-100 288l-102 -288l-134 88l222 227h24z" />
    <glyph glyph-name="Idieresis" unicode="&#xcf;" horiz-adv-x="530" 
d="M518 43h10v-43h-462v43h10q34 0 54 20t20 54v1243q0 33 -20.5 53.5t-53.5 20.5h-10v41h462v-41h-10q-32 0 -53 -21t-21 -53v-1243q0 -33 20.5 -53.5t53.5 -20.5zM127 1647q0 35 23 58.5t57 23.5q35 0 58.5 -23.5t23.5 -58.5q0 -33 -23.5 -56.5t-58.5 -23.5
q-33 0 -56.5 23.5t-23.5 56.5zM309 1647q0 35 23 58.5t57 23.5t58 -23.5t24 -58.5q0 -32 -24 -56t-58 -24q-33 0 -56.5 23.5t-23.5 56.5z" />
    <glyph glyph-name="Eth" unicode="&#xd0;" horiz-adv-x="1241" 
d="M526 43h90q90 0 148.5 32t98.5 112t57.5 213t17.5 337q0 271 -33.5 423t-101.5 213t-187 61h-90q-32 0 -52.5 -21t-20.5 -53v-600h198v-43h-198v-600q0 -33 20.5 -53.5t52.5 -20.5zM741 0h-667v43h10q34 0 54 20t20 54v600h-84v43h84v600q0 33 -20.5 53.5t-53.5 20.5h-10
v41h667q81 0 150.5 -22t133.5 -75t109.5 -135.5t72 -211.5t26.5 -294t-27 -294t-72 -211t-109 -135.5t-133.5 -75t-150.5 -21.5z" />
    <glyph glyph-name="Ntilde" unicode="&#xd1;" horiz-adv-x="1222" 
d="M266 43h10v-43h-210v43h10q34 0 54 20t20 54v1243q0 33 -20.5 53.5t-53.5 20.5h-10v41h434l598 -943v828q0 33 -20.5 53.5t-53.5 20.5h-10v41h211v-41h-11q-33 0 -53 -20.5t-20 -53.5v-1360h-54l-894 1411v-1294q0 -34 19.5 -54t53.5 -20zM473 1714q-37 0 -69.5 -31
t-41.5 -63q12 90 50.5 149.5t105.5 59.5q37 0 81 -21t78 -45.5t78 -45.5t81 -21q59 0 92 67q-26 -182 -148 -182q-50 0 -109 33.5t-111.5 66.5t-86.5 33z" />
    <glyph glyph-name="Ograve" unicode="&#xd2;" horiz-adv-x="1380" 
d="M360 737q0 -325 98 -521t265 -196t263.5 195.5t96.5 521.5t-96.5 521.5t-263.5 195.5t-265 -196t-98 -521zM66 739q0 343 178.5 550.5t474.5 207.5q198 0 348 -96.5t230.5 -270t80.5 -399.5q0 -341 -177.5 -546t-475.5 -205q-299 0 -479 208t-180 551zM823 1612l-221 227
l133 88l111 -315h-23z" />
    <glyph glyph-name="Oacute" unicode="&#xd3;" horiz-adv-x="1380" 
d="M360 737q0 -325 98 -521t265 -196t263.5 195.5t96.5 521.5t-96.5 521.5t-263.5 195.5t-265 -196t-98 -521zM66 739q0 343 178.5 550.5t474.5 207.5q198 0 348 -96.5t230.5 -270t80.5 -399.5q0 -341 -177.5 -546t-475.5 -205q-299 0 -479 208t-180 551zM846 1794
l-221 -227h-23l113 315z" />
    <glyph glyph-name="Ocircumflex" unicode="&#xd4;" horiz-adv-x="1380" 
d="M360 737q0 -325 98 -521t265 -196t263.5 195.5t96.5 521.5t-96.5 521.5t-263.5 195.5t-265 -196t-98 -521zM66 739q0 343 178.5 550.5t474.5 207.5q198 0 348 -96.5t230.5 -270t80.5 -399.5q0 -341 -177.5 -546t-475.5 -205q-299 0 -479 208t-180 551zM735 1882l221 -227
l-131 -88l-100 288l-102 -288l-134 88l222 227h24z" />
    <glyph glyph-name="Otilde" unicode="&#xd5;" horiz-adv-x="1380" 
d="M360 737q0 -325 98 -521t265 -196t263.5 195.5t96.5 521.5t-96.5 521.5t-263.5 195.5t-265 -196t-98 -521zM66 739q0 343 178.5 550.5t474.5 207.5q198 0 348 -96.5t230.5 -270t80.5 -399.5q0 -341 -177.5 -546t-475.5 -205q-299 0 -479 208t-180 551zM551 1714
q-37 0 -69.5 -31t-41.5 -63q12 90 50.5 149.5t105.5 59.5q37 0 80.5 -21t77.5 -45.5t78 -45.5t81 -21q60 0 93 67q-26 -182 -148 -182q-50 0 -109 33.5t-111.5 66.5t-86.5 33z" />
    <glyph glyph-name="Odieresis" unicode="&#xd6;" horiz-adv-x="1380" 
d="M360 737q0 -325 98 -521t265 -196t263.5 195.5t96.5 521.5t-96.5 521.5t-263.5 195.5t-265 -196t-98 -521zM66 739q0 343 178.5 550.5t474.5 207.5q198 0 348 -96.5t230.5 -270t80.5 -399.5q0 -341 -177.5 -546t-475.5 -205q-299 0 -479 208t-180 551zM551 1647
q0 35 23 58.5t57 23.5q35 0 58.5 -23.5t23.5 -58.5q0 -33 -23.5 -56.5t-58.5 -23.5q-33 0 -56.5 23.5t-23.5 56.5zM733 1647q0 35 23 58.5t57 23.5t58 -23.5t24 -58.5q0 -32 -24 -56t-58 -24q-33 0 -56.5 23.5t-23.5 56.5z" />
    <glyph glyph-name="multiply" unicode="&#xd7;" horiz-adv-x="976" 
d="M90 326l414 411l-414 414l29 29l413 -412l414 412l29 -29l-412 -414l412 -411l-29 -31l-414 414l-413 -414z" />
    <glyph glyph-name="Oslash" unicode="&#xd8;" horiz-adv-x="1392" 
d="M1057 1104l-631 -774q45 -147 124 -228.5t185 -81.5q167 0 264 195.5t97 521.5q0 220 -39 367zM373 737q0 -213 43 -370l628 776q-43 149 -123 230t-186 81q-167 0 -264.5 -196t-97.5 -521zM78 739q0 343 178.5 550.5t474.5 207.5q277 0 453 -182l162 198h40l-180 -223
q185 -213 185 -559q0 -341 -178 -546t-476 -205q-274 0 -450 176l-158 -197h-45l180 223q-90 99 -138 242t-48 315z" />
    <glyph glyph-name="Ugrave" unicode="&#xd9;" horiz-adv-x="1222" 
d="M125 481v879q0 33 -20.5 53.5t-53.5 20.5h-10v41h463v-41h-10q-32 0 -53 -21t-21 -53v-901q0 -185 87 -290.5t234 -105.5q155 0 255 113t100 283v901q0 32 -21 53t-53 21h-12v41h211v-41h-11q-32 0 -52.5 -21t-20.5 -53v-879q0 -227 -138.5 -364t-367.5 -137t-367.5 137
t-138.5 364zM731 1612l-221 227l133 88l111 -315h-23z" />
    <glyph glyph-name="Uacute" unicode="&#xda;" horiz-adv-x="1222" 
d="M125 481v879q0 33 -20.5 53.5t-53.5 20.5h-10v41h463v-41h-10q-32 0 -53 -21t-21 -53v-901q0 -185 87 -290.5t234 -105.5q155 0 255 113t100 283v901q0 32 -21 53t-53 21h-12v41h211v-41h-11q-32 0 -52.5 -21t-20.5 -53v-879q0 -227 -138.5 -364t-367.5 -137t-367.5 137
t-138.5 364zM754 1794l-222 -227h-22l113 315z" />
    <glyph glyph-name="Ucircumflex" unicode="&#xdb;" horiz-adv-x="1222" 
d="M125 481v879q0 33 -20.5 53.5t-53.5 20.5h-10v41h463v-41h-10q-32 0 -53 -21t-21 -53v-901q0 -185 87 -290.5t234 -105.5q155 0 255 113t100 283v901q0 32 -21 53t-53 21h-12v41h211v-41h-11q-32 0 -52.5 -21t-20.5 -53v-879q0 -227 -138.5 -364t-367.5 -137t-367.5 137
t-138.5 364zM645 1882l221 -227l-131 -88l-100 288l-103 -288l-133 88l222 227h24z" />
    <glyph glyph-name="Udieresis" unicode="&#xdc;" horiz-adv-x="1222" 
d="M125 481v879q0 33 -20.5 53.5t-53.5 20.5h-10v41h463v-41h-10q-32 0 -53 -21t-21 -53v-901q0 -185 87 -290.5t234 -105.5q155 0 255 113t100 283v901q0 32 -21 53t-53 21h-12v41h211v-41h-11q-32 0 -52.5 -21t-20.5 -53v-879q0 -227 -138.5 -364t-367.5 -137t-367.5 137
t-138.5 364zM461 1647q0 35 23 58.5t57 23.5q35 0 58.5 -23.5t23.5 -58.5q0 -33 -23.5 -56.5t-58.5 -23.5q-33 0 -56.5 23.5t-23.5 56.5zM643 1647q0 35 23 58.5t57 23.5t58 -23.5t24 -58.5q0 -32 -24 -56t-58 -24q-33 0 -56.5 23.5t-23.5 56.5z" />
    <glyph glyph-name="Yacute" unicode="&#xdd;" horiz-adv-x="1196" 
d="M379 1368l326 -580l321 580q17 28 6 47t-43 19h-33v41h240v-41h-10q-33 0 -64.5 -19t-46.5 -47l-348 -625l-2 -4v-622q0 -33 20.5 -53.5t53.5 -20.5h10v-43h-463v43h10q34 0 54 20t20 54v557l-387 694q-18 29 -48 47.5t-63 18.5h-10v41h527v-41h-31q-33 0 -44 -19t5 -47z
M682 1794l-221 -227h-23l113 315z" />
    <glyph glyph-name="Thorn" unicode="&#xde;" horiz-adv-x="1202" 
d="M444 348h101q174 0 279.5 107t105.5 286q0 175 -106 281t-279 106h-101v-780zM797 305h-353v-188q0 -33 20.5 -53.5t53.5 -20.5h10v-43h-462v43h10q34 0 54 20t20 54v1243q0 33 -20.5 53.5t-53.5 20.5h-10v41h462v-41h-10q-32 0 -53 -21t-21 -53v-191h353
q194 0 311 -118.5t117 -317.5q0 -192 -117.5 -310t-310.5 -118z" />
    <glyph glyph-name="germandbls" unicode="&#xdf;" horiz-adv-x="1212" 
d="M637 1497q225 0 352 -102.5t127 -261.5q0 -104 -56 -188t-155 -120q140 -36 217.5 -145.5t77.5 -259.5q0 -190 -118.5 -305t-309.5 -115h-289v43h101q169 0 245 102t76 277t-76 277t-245 102h-101v43q174 0 256 59t82 211q0 56 -11 111t-34 104.5t-64.5 80t-95.5 30.5
q-90 0 -143 -78.5t-53 -216.5v-1145h-379v43q84 0 84 74v891q0 231 133.5 360t378.5 129z" />
    <glyph glyph-name="agrave" unicode="&#xe0;" horiz-adv-x="1091" 
d="M725 485v41q0 72 -2 107q-179 -5 -279 -89.5t-100 -244.5q0 -105 41 -167t104 -62q62 0 117 61t87 156.5t32 197.5zM1094 43h12v-43h-381v256q-47 -126 -144.5 -201t-228.5 -75q-133 0 -218 78.5t-85 201.5q0 120 89 214t241.5 145.5t341.5 54.5q-23 358 -209 358
q-86 0 -144.5 -71t-86.5 -201l-170 170q145 145 403 145q132 0 230 -39t158 -112t89 -172.5t29 -225.5v-409q0 -33 20.5 -53.5t53.5 -20.5zM670 1204l-221 228l133 88l110 -316h-22z" />
    <glyph glyph-name="aacute" unicode="&#xe1;" horiz-adv-x="1091" 
d="M725 485v41q0 72 -2 107q-179 -5 -279 -89.5t-100 -244.5q0 -105 41 -167t104 -62q62 0 117 61t87 156.5t32 197.5zM1094 43h12v-43h-381v256q-47 -126 -144.5 -201t-228.5 -75q-133 0 -218 78.5t-85 201.5q0 120 89 214t241.5 145.5t341.5 54.5q-23 358 -209 358
q-86 0 -144.5 -71t-86.5 -201l-170 170q145 145 403 145q132 0 230 -39t158 -112t89 -172.5t29 -225.5v-409q0 -33 20.5 -53.5t53.5 -20.5zM692 1386l-221 -227h-22l112 316z" />
    <glyph glyph-name="acircumflex" unicode="&#xe2;" horiz-adv-x="1091" 
d="M725 485v41q0 72 -2 107q-179 -5 -279 -89.5t-100 -244.5q0 -105 41 -167t104 -62q62 0 117 61t87 156.5t32 197.5zM1094 43h12v-43h-381v256q-47 -126 -144.5 -201t-228.5 -75q-133 0 -218 78.5t-85 201.5q0 120 89 214t241.5 145.5t341.5 54.5q-23 358 -209 358
q-86 0 -144.5 -71t-86.5 -201l-170 170q145 145 403 145q132 0 230 -39t158 -112t89 -172.5t29 -225.5v-409q0 -33 20.5 -53.5t53.5 -20.5zM584 1475l221 -228l-131 -88l-101 289l-102 -289l-133 88l221 228h25z" />
    <glyph glyph-name="atilde" unicode="&#xe3;" horiz-adv-x="1091" 
d="M725 485v41q0 72 -2 107q-179 -5 -279 -89.5t-100 -244.5q0 -105 41 -167t104 -62q62 0 117 61t87 156.5t32 197.5zM1094 43h12v-43h-381v256q-47 -126 -144.5 -201t-228.5 -75q-133 0 -218 78.5t-85 201.5q0 120 89 214t241.5 145.5t341.5 54.5q-23 358 -209 358
q-86 0 -144.5 -71t-86.5 -201l-170 170q145 145 403 145q132 0 230 -39t158 -112t89 -172.5t29 -225.5v-409q0 -33 20.5 -53.5t53.5 -20.5zM399 1307q-37 0 -69 -31.5t-41 -63.5q12 90 50 149.5t105 59.5q37 0 81 -21t78 -45.5t78 -45.5t81 -21q59 0 92 68
q-26 -182 -147 -182q-39 0 -85.5 21t-81 45.5t-74 45.5t-67.5 21z" />
    <glyph glyph-name="adieresis" unicode="&#xe4;" horiz-adv-x="1091" 
d="M725 485v41q0 72 -2 107q-179 -5 -279 -89.5t-100 -244.5q0 -105 41 -167t104 -62q62 0 117 61t87 156.5t32 197.5zM1094 43h12v-43h-381v256q-47 -126 -144.5 -201t-228.5 -75q-133 0 -218 78.5t-85 201.5q0 120 89 214t241.5 145.5t341.5 54.5q-23 358 -209 358
q-86 0 -144.5 -71t-86.5 -201l-170 170q145 145 403 145q132 0 230 -39t158 -112t89 -172.5t29 -225.5v-409q0 -33 20.5 -53.5t53.5 -20.5zM399 1239q0 35 23 58.5t57 23.5q35 0 58.5 -23.5t23.5 -58.5q0 -33 -23.5 -56.5t-58.5 -23.5q-33 0 -56.5 23.5t-23.5 56.5z
M582 1239q0 35 23 58.5t57 23.5t57.5 -23.5t23.5 -58.5q0 -33 -23.5 -56.5t-57.5 -23.5q-33 0 -56.5 23.5t-23.5 56.5z" />
    <glyph glyph-name="aring" unicode="&#xe5;" horiz-adv-x="1091" 
d="M725 485v41q0 72 -2 107q-179 -5 -279 -89.5t-100 -244.5q0 -105 41 -167t104 -62q62 0 117 61t87 156.5t32 197.5zM1094 43h12v-43h-381v256q-47 -126 -144.5 -201t-228.5 -75q-133 0 -218 78.5t-85 201.5q0 120 89 214t241.5 145.5t341.5 54.5q-23 358 -209 358
q-86 0 -144.5 -71t-86.5 -201l-170 170q145 145 403 145q132 0 230 -39t158 -112t89 -172.5t29 -225.5v-409q0 -33 20.5 -53.5t53.5 -20.5zM483 1348q0 -37 24.5 -62.5t61.5 -25.5t61.5 25.5t24.5 62.5q0 36 -25 61t-61 25t-61 -25t-25 -61zM426 1348q0 60 42 102.5
t101 42.5q60 0 103 -42.5t43 -102.5t-43 -102t-103 -42q-59 0 -101 42t-42 102z" />
    <glyph glyph-name="ae" unicode="&#xe6;" horiz-adv-x="1722" 
d="M725 485v41q0 72 -2 107q-179 -5 -279 -89.5t-100 -244.5q0 -105 41 -167t104 -62q62 0 117 61t87 156.5t32 197.5zM1020 526h399q0 235 -48 370.5t-138 135.5q-93 0 -153 -141t-60 -365zM1714 526v-41h-694q8 -216 74 -340.5t182 -124.5q87 0 145.5 72t85.5 203
l172 -170q-145 -145 -405 -145q-208 0 -341.5 94t-180.5 262q-38 -157 -144 -256.5t-256 -99.5q-133 0 -218 78.5t-85 201.5q0 120 89 214t241.5 145.5t341.5 54.5q-23 358 -209 358q-86 0 -144.5 -71t-86.5 -201l-170 170q145 145 403 145q237 0 369 -129q135 129 350 129
q229 0 355 -144t126 -405z" />
    <glyph glyph-name="ccedilla" unicode="&#xe7;" horiz-adv-x="997" 
d="M852 295l170 -170q-142 -145 -404 -145q-263 0 -405.5 147.5t-142.5 398.5q0 253 142.5 401t405.5 148q259 0 404 -145l-170 -170q-28 130 -86.5 201t-144.5 71q-124 0 -190 -136t-66 -370q0 -233 66.5 -369.5t189.5 -136.5q86 0 144.5 72t86.5 203zM723 -260
q0 -61 -34 -102.5t-84 -54.5t-103.5 -8t-97.5 35.5t-60 76.5q49 -43 113 -53.5t111.5 21.5t47.5 101q0 110 -96 121l43 123h68l-37 -102q129 -38 129 -158z" />
    <glyph glyph-name="egrave" unicode="&#xe8;" horiz-adv-x="1054" 
d="M365 526h399q0 235 -48 370.5t-138 135.5q-94 0 -153.5 -140.5t-59.5 -365.5zM578 1075q228 0 354.5 -144t126.5 -405v-41h-694q6 -215 72 -340t184 -125q86 0 144.5 72t86.5 203l170 -170q-142 -145 -404 -145q-263 0 -405.5 147.5t-142.5 398.5q0 250 136 399.5
t372 149.5zM662 1204l-222 228l133 88l111 -316h-22z" />
    <glyph glyph-name="eacute" unicode="&#xe9;" horiz-adv-x="1054" 
d="M365 526h399q0 235 -48 370.5t-138 135.5q-94 0 -153.5 -140.5t-59.5 -365.5zM578 1075q228 0 354.5 -144t126.5 -405v-41h-694q6 -215 72 -340t184 -125q86 0 144.5 72t86.5 203l170 -170q-142 -145 -404 -145q-263 0 -405.5 147.5t-142.5 398.5q0 250 136 399.5
t372 149.5zM684 1386l-221 -227h-23l113 316z" />
    <glyph glyph-name="ecircumflex" unicode="&#xea;" horiz-adv-x="1054" 
d="M365 526h399q0 235 -48 370.5t-138 135.5q-94 0 -153.5 -140.5t-59.5 -365.5zM578 1075q228 0 354.5 -144t126.5 -405v-41h-694q6 -215 72 -340t184 -125q86 0 144.5 72t86.5 203l170 -170q-142 -145 -404 -145q-263 0 -405.5 147.5t-142.5 398.5q0 250 136 399.5
t372 149.5zM575 1475l222 -228l-131 -88l-101 289l-102 -289l-133 88l221 228h24z" />
    <glyph glyph-name="edieresis" unicode="&#xeb;" horiz-adv-x="1054" 
d="M365 526h399q0 235 -48 370.5t-138 135.5q-94 0 -153.5 -140.5t-59.5 -365.5zM578 1075q228 0 354.5 -144t126.5 -405v-41h-694q6 -215 72 -340t184 -125q86 0 144.5 72t86.5 203l170 -170q-142 -145 -404 -145q-263 0 -405.5 147.5t-142.5 398.5q0 250 136 399.5
t372 149.5zM391 1239q0 35 23 58.5t57 23.5q35 0 58.5 -23.5t23.5 -58.5q0 -33 -23.5 -56.5t-58.5 -23.5q-33 0 -56.5 23.5t-23.5 56.5zM573 1239q0 35 23 58.5t57 23.5t58 -23.5t24 -58.5q0 -32 -24 -56t-58 -24q-33 0 -56.5 23.5t-23.5 56.5z" />
    <glyph glyph-name="igrave" unicode="&#xec;" horiz-adv-x="514" 
d="M510 43h10v-43h-463v43h11q34 0 53.5 20t19.5 54v737q0 33 -20 53.5t-53 20.5h-11v41l338 86h41v-938q0 -33 20.5 -53.5t53.5 -20.5zM385 1204l-221 228l133 88l111 -316h-23z" />
    <glyph glyph-name="iacute" unicode="&#xed;" horiz-adv-x="514" 
d="M510 43h10v-43h-463v43h11q34 0 53.5 20t19.5 54v737q0 33 -20 53.5t-53 20.5h-11v41l338 86h41v-938q0 -33 20.5 -53.5t53.5 -20.5zM408 1386l-222 -227h-22l112 316z" />
    <glyph glyph-name="icircumflex" unicode="&#xee;" horiz-adv-x="514" 
d="M504 43h10v-43h-463v43h10q34 0 54 20t20 54v737q0 33 -20.5 53.5t-53.5 20.5h-10v41l338 86h41v-938q0 -33 20.5 -53.5t53.5 -20.5zM291 1475l221 -228l-131 -88l-100 289l-103 -289l-133 88l221 228h25z" />
    <glyph glyph-name="idieresis" unicode="&#xef;" horiz-adv-x="514" 
d="M510 43h10v-43h-463v43h11q34 0 53.5 20t19.5 54v737q0 33 -20 53.5t-53 20.5h-11v41l338 86h41v-938q0 -33 20.5 -53.5t53.5 -20.5zM115 1239q0 35 23 58.5t57 23.5q35 0 58 -23.5t23 -58.5q0 -33 -23 -56.5t-58 -23.5q-33 0 -56.5 23.5t-23.5 56.5zM297 1239
q0 35 23 58.5t57 23.5t58 -23.5t24 -58.5q0 -32 -24 -56t-58 -24q-33 0 -56.5 23.5t-23.5 56.5z" />
    <glyph glyph-name="eth" unicode="&#xf0;" horiz-adv-x="1107" 
d="M772 406q0 183 -71 310.5t-169 127.5q-89 0 -136.5 -107.5t-47.5 -290.5q0 -197 55 -311.5t152 -114.5q96 0 156.5 109.5t60.5 276.5zM543 -20q-218 0 -354 131.5t-136 343.5q0 195 113.5 317.5t292.5 122.5q126 0 205 -68t131 -204q17 340 -33 573l-74 -55l-26 33l90 65
q-60 215 -187 215q-86 0 -162.5 -93.5t-117.5 -254.5l-156 180q88 101 203.5 156t238.5 55q198 0 334 -145l99 71l26 -34l-98 -70q160 -205 160 -576q0 -123 -18.5 -233t-60.5 -208t-104.5 -168.5t-156 -112t-209.5 -41.5z" />
    <glyph glyph-name="ntilde" unicode="&#xf1;" horiz-adv-x="1198" 
d="M510 43h10v-43h-463v43h11q34 0 53.5 20t19.5 54v737q0 33 -20 53.5t-53 20.5h-11v41l338 86h41v-219q45 115 136 177t219 62q155 0 245 -88t90 -239v-631q0 -34 20 -54t54 -20h10v-43h-462v43h10q32 0 52.5 20.5t20.5 53.5v585q0 121 -42 192t-125 71
q-103 0 -165.5 -106.5t-62.5 -270.5v-471q0 -33 20.5 -53.5t53.5 -20.5zM457 1307q-37 0 -69.5 -31.5t-41.5 -63.5q12 90 50.5 149.5t105.5 59.5q37 0 80.5 -21t77.5 -45.5t78 -45.5t81 -21q59 0 92 68q-26 -182 -147 -182q-39 0 -85 21t-81 45.5t-74 45.5t-67 21z" />
    <glyph glyph-name="ograve" unicode="&#xf2;" 
d="M365 526q0 -233 66.5 -369.5t189.5 -136.5q121 0 186 137t65 369q0 234 -65 370t-186 136q-124 0 -190 -136t-66 -370zM70 526q0 253 143 401t408 148q263 0 404.5 -148t141.5 -401q0 -252 -141.5 -399t-404.5 -147q-265 0 -408 147.5t-143 398.5zM719 1204l-221 228
l133 88l110 -316h-22z" />
    <glyph glyph-name="oacute" unicode="&#xf3;" 
d="M365 526q0 -233 66.5 -369.5t189.5 -136.5q121 0 186 137t65 369q0 234 -65 370t-186 136q-124 0 -190 -136t-66 -370zM70 526q0 253 143 401t408 148q263 0 404.5 -148t141.5 -401q0 -252 -141.5 -399t-404.5 -147q-265 0 -408 147.5t-143 398.5zM741 1386l-221 -227
h-22l112 316z" />
    <glyph glyph-name="ocircumflex" unicode="&#xf4;" 
d="M365 526q0 -233 66.5 -369.5t189.5 -136.5q121 0 186 137t65 369q0 234 -65 370t-186 136q-124 0 -190 -136t-66 -370zM70 526q0 253 143 401t408 148q263 0 404.5 -148t141.5 -401q0 -252 -141.5 -399t-404.5 -147q-265 0 -408 147.5t-143 398.5zM633 1475l221 -228
l-131 -88l-100 289l-103 -289l-133 88l221 228h25z" />
    <glyph glyph-name="otilde" unicode="&#xf5;" 
d="M365 526q0 -233 66.5 -369.5t189.5 -136.5q121 0 186 137t65 369q0 234 -65 370t-186 136q-124 0 -190 -136t-66 -370zM70 526q0 253 143 401t408 148q263 0 404.5 -148t141.5 -401q0 -252 -141.5 -399t-404.5 -147q-265 0 -408 147.5t-143 398.5zM449 1307
q-37 0 -69.5 -31.5t-41.5 -63.5q12 90 50.5 149.5t105.5 59.5q37 0 80.5 -21t77.5 -45.5t78 -45.5t81 -21q59 0 92 68q-26 -182 -147 -182q-39 0 -85 21t-81 45.5t-74 45.5t-67 21z" />
    <glyph glyph-name="odieresis" unicode="&#xf6;" 
d="M365 526q0 -233 66.5 -369.5t189.5 -136.5q121 0 186 137t65 369q0 234 -65 370t-186 136q-124 0 -190 -136t-66 -370zM70 526q0 253 143 401t408 148q263 0 404.5 -148t141.5 -401q0 -252 -141.5 -399t-404.5 -147q-265 0 -408 147.5t-143 398.5zM449 1239
q0 35 22.5 58.5t56.5 23.5q35 0 58.5 -23.5t23.5 -58.5q0 -33 -23.5 -56.5t-58.5 -23.5q-33 0 -56 23.5t-23 56.5zM631 1239q0 35 23 58.5t57 23.5t58 -23.5t24 -58.5q0 -32 -24 -56t-58 -24q-33 0 -56.5 23.5t-23.5 56.5z" />
    <glyph glyph-name="divide" unicode="&#xf7;" horiz-adv-x="1366" 
d="M616 334q0 64 40.5 103.5t105.5 39.5q64 0 102.5 -39t38.5 -104q0 -66 -38 -105t-103 -39t-105.5 39.5t-40.5 104.5zM156 760h1210v-43h-1210v43zM616 1143q0 64 40.5 103.5t105.5 39.5q64 0 102.5 -39t38.5 -104t-38.5 -104.5t-102.5 -39.5q-65 0 -105.5 40t-40.5 104z
" />
    <glyph glyph-name="oslash" unicode="&#xf8;" horiz-adv-x="1173" 
d="M848 793l-440 -564q30 -100 85 -154.5t132 -54.5q121 0 186.5 137t65.5 369q0 148 -29 267zM369 526q0 -136 26 -256l443 564q-31 95 -85.5 146.5t-127.5 51.5q-124 0 -190 -136t-66 -370zM74 526q0 253 143 401t408 148q193 0 331 -88l66 82h43l-80 -102
q91 -70 138.5 -183.5t47.5 -257.5q0 -252 -141.5 -399t-404.5 -147q-208 0 -342 92l-56 -72h-43l72 92q-182 144 -182 434z" />
    <glyph glyph-name="ugrave" unicode="&#xf9;" horiz-adv-x="1191" 
d="M737 928h-10v41l336 86h43v-938q0 -34 20 -54t54 -20h10v-43h-379v219q-45 -115 -135.5 -177t-218.5 -62q-155 0 -245.5 87t-90.5 238v549q0 33 -20.5 53.5t-53.5 20.5h-10v41l328 86h51v-703q0 -121 42.5 -192.5t125.5 -71.5q101 0 164 107t63 270v389q0 32 -21 53
t-53 21zM715 1204l-221 228l133 88l110 -316h-22z" />
    <glyph glyph-name="uacute" unicode="&#xfa;" horiz-adv-x="1191" 
d="M737 928h-10v41l336 86h43v-938q0 -34 20 -54t54 -20h10v-43h-379v219q-45 -115 -135.5 -177t-218.5 -62q-155 0 -245.5 87t-90.5 238v549q0 33 -20.5 53.5t-53.5 20.5h-10v41l328 86h51v-703q0 -121 42.5 -192.5t125.5 -71.5q101 0 164 107t63 270v389q0 32 -21 53
t-53 21zM737 1386l-221 -227h-22l112 316z" />
    <glyph glyph-name="ucircumflex" unicode="&#xfb;" horiz-adv-x="1191" 
d="M737 928h-10v41l336 86h43v-938q0 -34 20 -54t54 -20h10v-43h-379v219q-45 -115 -135.5 -177t-218.5 -62q-155 0 -245.5 87t-90.5 238v549q0 33 -20.5 53.5t-53.5 20.5h-10v41l328 86h51v-703q0 -121 42.5 -192.5t125.5 -71.5q101 0 164 107t63 270v389q0 32 -21 53
t-53 21zM627 1475l221 -228l-131 -88l-101 289l-102 -289l-133 88l221 228h25z" />
    <glyph glyph-name="udieresis" unicode="&#xfc;" horiz-adv-x="1191" 
d="M737 928h-10v41l336 86h43v-938q0 -34 20 -54t54 -20h10v-43h-379v219q-45 -115 -135.5 -177t-218.5 -62q-155 0 -245.5 87t-90.5 238v549q0 33 -20.5 53.5t-53.5 20.5h-10v41l328 86h51v-703q0 -121 42.5 -192.5t125.5 -71.5q101 0 164 107t63 270v389q0 32 -21 53
t-53 21zM442 1239q0 35 23 58.5t57 23.5q35 0 58.5 -23.5t23.5 -58.5q0 -33 -23.5 -56.5t-58.5 -23.5q-33 0 -56.5 23.5t-23.5 56.5zM625 1239q0 35 23 58.5t57 23.5t57.5 -23.5t23.5 -58.5q0 -33 -24 -56.5t-57 -23.5t-56.5 23.5t-23.5 56.5z" />
    <glyph glyph-name="yacute" unicode="&#xfd;" horiz-adv-x="1114" 
d="M825 944l-450 -944q-41 -85 -70 -140.5t-63 -110t-64 -86.5t-67 -58t-78.5 -36.5t-91.5 -10.5q-185 0 -330 145l170 170q27 -125 82.5 -188.5t130.5 -63.5q88 0 164.5 88t173.5 291h-4l-430 944q-13 31 -42 49.5t-61 18.5h-12v43h518v-43h-37q-34 0 -46 -18.5t1 -49.5
l275 -598l284 598q14 31 2.5 49.5t-43.5 18.5h-32v43h235v-43h-10q-33 0 -62.5 -19t-42.5 -49zM485 1386l-221 -227h-22l112 316z" />
    <glyph glyph-name="thorn" unicode="&#xfe;" horiz-adv-x="1155" 
d="M606 63q97 0 151 120t54 339q0 222 -56 334.5t-157 112.5q-96 0 -163.5 -98t-67.5 -281v-127q0 -172 69 -286t170 -114zM440 -379h11v-43h-463v43h10q34 0 54 20t20 54v1581q0 33 -20.5 53.5t-53.5 20.5h-10v41l338 84h41v-644q46 115 135.5 179.5t206.5 64.5
q182 0 290.5 -151t108.5 -402q0 -248 -109 -395t-297 -147q-120 0 -206 61.5t-129 173.5v-520q0 -33 20.5 -53.5t52.5 -20.5z" />
    <glyph glyph-name="ydieresis" unicode="&#xff;" horiz-adv-x="1114" 
d="M825 944l-450 -944q-41 -85 -70 -140.5t-63 -110t-64 -86.5t-67 -58t-78.5 -36.5t-91.5 -10.5q-185 0 -330 145l170 170q27 -125 82.5 -188.5t130.5 -63.5q88 0 164.5 88t173.5 291h-4l-430 944q-13 31 -42 49.5t-61 18.5h-12v43h518v-43h-37q-34 0 -46 -18.5t1 -49.5
l275 -598l284 598q14 31 2.5 49.5t-43.5 18.5h-32v43h235v-43h-10q-33 0 -62.5 -19t-42.5 -49zM190 1239q0 35 23 58.5t57 23.5q35 0 58.5 -23.5t23.5 -58.5q0 -33 -23.5 -56.5t-58.5 -23.5q-33 0 -56.5 23.5t-23.5 56.5zM373 1239q0 35 23 58.5t57 23.5t58 -23.5t24 -58.5
q0 -32 -24 -56t-58 -24q-33 0 -56.5 23.5t-23.5 56.5z" />
    <glyph glyph-name="Amacron" unicode="&#x100;" horiz-adv-x="1310" 
d="M221 440h527l-259 645zM881 111l-115 288h-561l-121 -288q-12 -31 0.5 -49.5t46.5 -18.5h31v-43h-232v43h11q33 0 60.5 18.5t41.5 49.5l565 1364h43l547 -1364q12 -31 39 -49.5t61 -18.5h11v-43h-506v43h33q32 0 44.5 18.5t0.5 49.5zM858 1612h-473v98h473v-98z" />
    <glyph glyph-name="amacron" unicode="&#x101;" horiz-adv-x="1091" 
d="M725 485v41q0 72 -2 107q-179 -5 -279 -89.5t-100 -244.5q0 -105 41 -167t104 -62q62 0 117 61t87 156.5t32 197.5zM1094 43h12v-43h-381v256q-47 -126 -144.5 -201t-228.5 -75q-133 0 -218 78.5t-85 201.5q0 120 89 214t241.5 145.5t341.5 54.5q-23 358 -209 358
q-86 0 -144.5 -71t-86.5 -201l-170 170q145 145 403 145q132 0 230 -39t158 -112t89 -172.5t29 -225.5v-409q0 -33 20.5 -53.5t53.5 -20.5zM807 1204h-473v99h473v-99z" />
    <glyph glyph-name="Abreve" unicode="&#x102;" horiz-adv-x="1310" 
d="M221 440h527l-259 645zM881 111l-115 288h-561l-121 -288q-12 -31 0.5 -49.5t46.5 -18.5h31v-43h-232v43h11q33 0 60.5 18.5t41.5 49.5l565 1364h43l547 -1364q12 -31 39 -49.5t61 -18.5h11v-43h-506v43h33q32 0 44.5 18.5t0.5 49.5zM618 1702q98 0 165 34.5t67 84.5
q0 -97 -63.5 -158t-165.5 -61q-101 0 -165.5 61t-64.5 158q2 -50 65.5 -84.5t161.5 -34.5z" />
    <glyph glyph-name="abreve" unicode="&#x103;" horiz-adv-x="1091" 
d="M725 485v41q0 72 -2 107q-179 -5 -279 -89.5t-100 -244.5q0 -105 41 -167t104 -62q62 0 117 61t87 156.5t32 197.5zM1094 43h12v-43h-381v256q-47 -126 -144.5 -201t-228.5 -75q-133 0 -218 78.5t-85 201.5q0 120 89 214t241.5 145.5t341.5 54.5q-23 358 -209 358
q-86 0 -144.5 -71t-86.5 -201l-170 170q145 145 403 145q132 0 230 -39t158 -112t89 -172.5t29 -225.5v-409q0 -33 20.5 -53.5t53.5 -20.5zM569 1294q98 0 165 34.5t67 84.5q0 -97 -64 -158t-166 -61q-101 0 -165 61t-64 158q2 -50 65.5 -84.5t161.5 -34.5z" />
    <glyph glyph-name="Aogonek" unicode="&#x104;" horiz-adv-x="1310" 
d="M221 440h527l-259 645zM881 111l-115 288h-561l-121 -288q-12 -31 0.5 -49.5t46.5 -18.5h31v-43h-232v43h11q33 0 60.5 18.5t41.5 49.5l565 1364h43l547 -1364q12 -31 39 -49.5t61 -18.5h11v-43h-506v43h33q32 0 44.5 18.5t0.5 49.5zM1309 -328q-8 -50 -43.5 -82
t-91.5 -32q-63 0 -102.5 39.5t-39.5 97.5q0 39 24.5 91.5t50 91t85.5 122.5h22q-72 -115 -86 -201q-17 -88 10 -134t87 -46q8 0 20 2t33 15t31 36z" />
    <glyph glyph-name="aogonek" unicode="&#x105;" horiz-adv-x="1091" 
d="M725 485v41q0 72 -2 107q-179 -5 -279 -89.5t-100 -244.5q0 -105 41 -167t104 -62q62 0 117 61t87 156.5t32 197.5zM1094 43h12v-43h-381v256q-47 -126 -144.5 -201t-228.5 -75q-133 0 -218 78.5t-85 201.5q0 120 89 214t241.5 145.5t341.5 54.5q-23 358 -209 358
q-86 0 -144.5 -71t-86.5 -201l-170 170q145 145 403 145q132 0 230 -39t158 -112t89 -172.5t29 -225.5v-409q0 -33 20.5 -53.5t53.5 -20.5zM1106 -328q-8 -50 -43.5 -82t-91.5 -32q-63 0 -102.5 39.5t-39.5 97.5q0 39 24.5 91.5t50 91t85.5 122.5h23q-72 -115 -86 -201
q-17 -88 9.5 -134t86.5 -46q8 0 20 2t33 15t31 36z" />
    <glyph glyph-name="Cacute" unicode="&#x106;" 
d="M1042 367l158 -183q-176 -204 -475 -204t-479 208t-180 551t178.5 550.5t474.5 207.5t479 -211l-156 -180q-42 165 -124 256.5t-195 91.5q-167 0 -265 -196t-98 -521t98 -521t265 -196q112 0 194.5 91.5t124.5 255.5zM739 1794l-221 -227h-22l112 315z" />
    <glyph glyph-name="cacute" unicode="&#x107;" horiz-adv-x="997" 
d="M852 295l170 -170q-142 -145 -404 -145q-263 0 -405.5 147.5t-142.5 398.5q0 253 142.5 401t405.5 148q259 0 404 -145l-170 -170q-28 130 -86.5 201t-144.5 71q-124 0 -190 -136t-66 -370q0 -233 66.5 -369.5t189.5 -136.5q86 0 144.5 72t86.5 203zM655 1386l-221 -227
h-22l112 316z" />
    <glyph glyph-name="Ccircumflex" unicode="&#x108;" 
d="M1042 367l158 -183q-176 -204 -475 -204t-479 208t-180 551t178.5 550.5t474.5 207.5t479 -211l-156 -180q-42 165 -124 256.5t-195 91.5q-167 0 -265 -196t-98 -521t98 -521t265 -196q112 0 194.5 91.5t124.5 255.5zM631 1882l221 -227l-131 -88l-100 288l-103 -288
l-133 88l221 227h25z" />
    <glyph glyph-name="ccircumflex" unicode="&#x109;" horiz-adv-x="997" 
d="M852 295l170 -170q-142 -145 -404 -145q-263 0 -405.5 147.5t-142.5 398.5q0 253 142.5 401t405.5 148q259 0 404 -145l-170 -170q-28 130 -86.5 201t-144.5 71q-124 0 -190 -136t-66 -370q0 -233 66.5 -369.5t189.5 -136.5q86 0 144.5 72t86.5 203zM547 1475l221 -228
l-131 -88l-100 289l-103 -289l-133 88l221 228h25z" />
    <glyph glyph-name="Cdotaccent" unicode="&#x10a;" 
d="M1042 367l158 -183q-176 -204 -475 -204t-479 208t-180 551t178.5 550.5t474.5 207.5t479 -211l-156 -180q-42 165 -124 256.5t-195 91.5q-167 0 -265 -196t-98 -521t98 -521t265 -196q112 0 194.5 91.5t124.5 255.5zM537 1647q0 35 22.5 58.5t56.5 23.5q35 0 58.5 -23.5
t23.5 -58.5q0 -33 -23.5 -56.5t-58.5 -23.5q-33 0 -56 23.5t-23 56.5z" />
    <glyph glyph-name="cdotaccent" unicode="&#x10b;" horiz-adv-x="997" 
d="M852 295l170 -170q-142 -145 -404 -145q-263 0 -405.5 147.5t-142.5 398.5q0 253 142.5 401t405.5 148q259 0 404 -145l-170 -170q-28 130 -86.5 201t-144.5 71q-124 0 -190 -136t-66 -370q0 -233 66.5 -369.5t189.5 -136.5q86 0 144.5 72t86.5 203zM453 1239
q0 35 22.5 58.5t56.5 23.5q35 0 58.5 -23.5t23.5 -58.5q0 -33 -23.5 -56.5t-58.5 -23.5q-33 0 -56 23.5t-23 56.5z" />
    <glyph glyph-name="Ccaron" unicode="&#x10c;" 
d="M1042 367l158 -183q-176 -204 -475 -204t-479 208t-180 551t178.5 550.5t474.5 207.5t479 -211l-156 -180q-42 165 -124 256.5t-195 91.5q-167 0 -265 -196t-98 -521t98 -521t265 -196q112 0 194.5 91.5t124.5 255.5zM852 1794l-221 -227h-25l-221 227l133 88l103 -287
l100 287z" />
    <glyph glyph-name="ccaron" unicode="&#x10d;" horiz-adv-x="997" 
d="M852 295l170 -170q-142 -145 -404 -145q-263 0 -405.5 147.5t-142.5 398.5q0 253 142.5 401t405.5 148q259 0 404 -145l-170 -170q-28 130 -86.5 201t-144.5 71q-124 0 -190 -136t-66 -370q0 -233 66.5 -369.5t189.5 -136.5q86 0 144.5 72t86.5 203zM768 1386l-221 -227
h-25l-221 227l133 89l103 -287l100 287z" />
    <glyph glyph-name="Dcaron" unicode="&#x10e;" horiz-adv-x="1236" 
d="M518 43h90q90 0 148.5 32t98.5 112t57.5 213t17.5 337q0 271 -33.5 423t-101.5 213t-187 61h-90q-32 0 -53 -21t-21 -53v-1243q0 -33 20.5 -53.5t53.5 -20.5zM733 0h-667v43h10q34 0 54 20t20 54v1243q0 33 -20.5 53.5t-53.5 20.5h-10v41h667q81 0 150.5 -22t133.5 -75
t109.5 -135.5t72 -211.5t26.5 -294t-27 -294t-72 -211t-109 -135.5t-133.5 -75t-150.5 -21.5zM885 1794l-221 -227h-25l-221 227l133 88l102 -287l101 287z" />
    <glyph glyph-name="dcaron" unicode="&#x10f;" horiz-adv-x="1570" 
d="M821 463v127q0 183 -66.5 281t-164.5 98q-101 0 -157 -112.5t-56 -334.5q0 -219 54.5 -339t152.5 -120q100 0 168.5 114t68.5 286zM1190 43h12v-43h-381v215q-43 -112 -128.5 -173.5t-205.5 -61.5q-189 0 -297 147t-108 395q0 252 107.5 402.5t291.5 150.5
q117 0 205.5 -64.5t134.5 -179.5v445q0 33 -20 53.5t-53 20.5h-11v41l338 84h41v-1358q0 -33 20.5 -53.5t53.5 -20.5zM1274 1354q0 64 40 103.5t105 39.5q64 0 103 -40.5t39 -108.5q0 -45 -16.5 -89.5t-48 -86t-60 -72t-70.5 -68.5l-33 35q65 76 99 143h-13q-65 0 -105 40
t-40 104z" />
    <glyph glyph-name="Dcroat" unicode="&#x110;" horiz-adv-x="1241" 
d="M526 43h90q90 0 148.5 32t98.5 112t57.5 213t17.5 337q0 271 -33.5 423t-101.5 213t-187 61h-90q-32 0 -52.5 -21t-20.5 -53v-600h198v-43h-198v-600q0 -33 20.5 -53.5t52.5 -20.5zM741 0h-667v43h10q34 0 54 20t20 54v600h-84v43h84v600q0 33 -20.5 53.5t-53.5 20.5h-10
v41h667q81 0 150.5 -22t133.5 -75t109.5 -135.5t72 -211.5t26.5 -294t-27 -294t-72 -211t-109 -135.5t-133.5 -75t-150.5 -21.5z" />
    <glyph glyph-name="dcroat" unicode="&#x111;" horiz-adv-x="1181" 
d="M821 463v127q0 183 -66.5 281t-164.5 98q-101 0 -157 -112.5t-56 -334.5q0 -219 54.5 -339t152.5 -120q100 0 168.5 114t68.5 286zM1190 43h12v-43h-381v215q-43 -112 -128.5 -173.5t-205.5 -61.5q-189 0 -297 147t-108 395q0 252 107.5 402.5t291.5 150.5
q117 0 205.5 -64.5t134.5 -179.5v334h-92v43h92v68q0 33 -20 53.5t-53 20.5h-11v41l338 84h41v-267h86v-43h-86v-1048q0 -33 20.5 -53.5t53.5 -20.5z" />
    <glyph glyph-name="Emacron" unicode="&#x112;" horiz-adv-x="1138" 
d="M518 43h369l211 315h43v-358h-1075v43h10q34 0 54 20t20 54v1243q0 33 -20.5 53.5t-53.5 20.5h-10v41h1054v-359h-43l-211 318h-348q-32 0 -53 -21t-21 -53v-600h211l107 104h41v-254h-41l-107 107h-211v-600q0 -33 20.5 -53.5t53.5 -20.5zM840 1612h-473v98h473v-98z
" />
    <glyph glyph-name="emacron" unicode="&#x113;" horiz-adv-x="1054" 
d="M365 526h399q0 235 -48 370.5t-138 135.5q-94 0 -153.5 -140.5t-59.5 -365.5zM578 1075q228 0 354.5 -144t126.5 -405v-41h-694q6 -215 72 -340t184 -125q86 0 144.5 72t86.5 203l170 -170q-142 -145 -404 -145q-263 0 -405.5 147.5t-142.5 398.5q0 250 136 399.5
t372 149.5zM799 1204h-473v99h473v-99z" />
    <glyph glyph-name="Ebreve" unicode="&#x114;" horiz-adv-x="1138" 
d="M518 43h369l211 315h43v-358h-1075v43h10q34 0 54 20t20 54v1243q0 33 -20.5 53.5t-53.5 20.5h-10v41h1054v-359h-43l-211 318h-348q-32 0 -53 -21t-21 -53v-600h211l107 104h41v-254h-41l-107 107h-211v-600q0 -33 20.5 -53.5t53.5 -20.5zM600 1702q98 0 164.5 34.5
t66.5 84.5q0 -97 -63.5 -158t-165.5 -61q-101 0 -165 61t-64 158q2 -50 65.5 -84.5t161.5 -34.5z" />
    <glyph glyph-name="ebreve" unicode="&#x115;" horiz-adv-x="1054" 
d="M365 526h399q0 235 -48 370.5t-138 135.5q-94 0 -153.5 -140.5t-59.5 -365.5zM578 1075q228 0 354.5 -144t126.5 -405v-41h-694q6 -215 72 -340t184 -125q86 0 144.5 72t86.5 203l170 -170q-142 -145 -404 -145q-263 0 -405.5 147.5t-142.5 398.5q0 250 136 399.5
t372 149.5zM561 1294q98 0 165 34.5t67 84.5q0 -97 -64 -158t-166 -61q-101 0 -165 61t-64 158q2 -50 65.5 -84.5t161.5 -34.5z" />
    <glyph glyph-name="Edotaccent" unicode="&#x116;" horiz-adv-x="1138" 
d="M518 43h369l211 315h43v-358h-1075v43h10q34 0 54 20t20 54v1243q0 33 -20.5 53.5t-53.5 20.5h-10v41h1054v-359h-43l-211 318h-348q-32 0 -53 -21t-21 -53v-600h211l107 104h41v-254h-41l-107 107h-211v-600q0 -33 20.5 -53.5t53.5 -20.5zM522 1647q0 35 23 58.5
t57 23.5q35 0 58.5 -23.5t23.5 -58.5q0 -33 -23.5 -56.5t-58.5 -23.5q-33 0 -56.5 23.5t-23.5 56.5z" />
    <glyph glyph-name="edotaccent" unicode="&#x117;" horiz-adv-x="1054" 
d="M365 526h399q0 235 -48 370.5t-138 135.5q-94 0 -153.5 -140.5t-59.5 -365.5zM578 1075q228 0 354.5 -144t126.5 -405v-41h-694q6 -215 72 -340t184 -125q86 0 144.5 72t86.5 203l170 -170q-142 -145 -404 -145q-263 0 -405.5 147.5t-142.5 398.5q0 250 136 399.5
t372 149.5zM481 1239q0 35 23 58.5t57 23.5q35 0 58.5 -23.5t23.5 -58.5q0 -33 -23.5 -56.5t-58.5 -23.5q-33 0 -56.5 23.5t-23.5 56.5z" />
    <glyph glyph-name="Eogonek" unicode="&#x118;" horiz-adv-x="1138" 
d="M518 43h369l211 315h43v-358h-1075v43h10q34 0 54 20t20 54v1243q0 33 -20.5 53.5t-53.5 20.5h-10v41h1054v-359h-43l-211 318h-348q-32 0 -53 -21t-21 -53v-600h211l107 104h41v-254h-41l-107 107h-211v-600q0 -33 20.5 -53.5t53.5 -20.5zM1057 -328q-8 -50 -43.5 -82
t-91.5 -32q-63 0 -102.5 39.5t-39.5 97.5q0 39 24.5 91.5t50 91t85.5 122.5h23q-72 -115 -86 -201q-17 -88 9.5 -134t86.5 -46q8 0 20 2t33 15t31 36z" />
    <glyph glyph-name="eogonek" unicode="&#x119;" horiz-adv-x="1054" 
d="M365 526h399q0 235 -48 370.5t-138 135.5q-94 0 -153.5 -140.5t-59.5 -365.5zM578 1075q228 0 354.5 -144t126.5 -405v-41h-694q6 -215 72 -340t184 -125q86 0 144.5 72t86.5 203l170 -170q-142 -145 -404 -145q-263 0 -405.5 147.5t-142.5 398.5q0 250 136 399.5
t372 149.5zM1059 -328q-8 -50 -43.5 -82t-91.5 -32q-63 0 -102.5 39.5t-39.5 97.5q0 39 24.5 91.5t50 91t85.5 122.5h23q-72 -115 -86 -201q-17 -88 9.5 -134t86.5 -46q8 0 20 2t33 15t31 36z" />
    <glyph glyph-name="Ecaron" unicode="&#x11a;" horiz-adv-x="1138" 
d="M518 43h369l211 315h43v-358h-1075v43h10q34 0 54 20t20 54v1243q0 33 -20.5 53.5t-53.5 20.5h-10v41h1054v-359h-43l-211 318h-348q-32 0 -53 -21t-21 -53v-600h211l107 104h41v-254h-41l-107 107h-211v-600q0 -33 20.5 -53.5t53.5 -20.5zM836 1794l-222 -227h-24
l-221 227l133 88l102 -287l101 287z" />
    <glyph glyph-name="ecaron" unicode="&#x11b;" horiz-adv-x="1054" 
d="M365 526h399q0 235 -48 370.5t-138 135.5q-94 0 -153.5 -140.5t-59.5 -365.5zM578 1075q228 0 354.5 -144t126.5 -405v-41h-694q6 -215 72 -340t184 -125q86 0 144.5 72t86.5 203l170 -170q-142 -145 -404 -145q-263 0 -405.5 147.5t-142.5 398.5q0 250 136 399.5
t372 149.5zM797 1386l-222 -227h-24l-221 227l133 89l102 -287l101 287z" />
    <glyph glyph-name="Gcircumflex" unicode="&#x11c;" horiz-adv-x="1265" 
d="M1200 625v-441q-176 -204 -475 -204t-479 208t-180 551t178.5 550.5t474.5 207.5t479 -211l-156 -180q-42 165 -124 256.5t-195 91.5q-167 0 -265 -196t-98 -521t98 -521t265 -196q101 0 182 78v527q0 32 -21 52.5t-53 20.5h-12v41h465v-41h-10q-34 0 -54 -20t-20 -53z
M678 1882l221 -227l-131 -88l-100 288l-103 -288l-133 88l221 227h25z" />
    <glyph glyph-name="gcircumflex" unicode="&#x11d;" horiz-adv-x="1105" 
d="M281 -172q54 -107 145 -168t211 -61q95 0 155 36.5t60 98.5q0 48 -38 71.5t-99 25.5t-137.5 -0.5t-152.5 -7.5t-144 5zM369 643q0 -178 62.5 -295t160.5 -117t159.5 115.5t61.5 294.5q0 177 -60.5 284t-160.5 107q-101 0 -162 -108t-61 -281zM74 633q0 196 142.5 319
t371.5 123q63 0 126.5 26.5t118.5 86t72 139.5l170 -170q-80 -80 -287 -108q149 -45 234.5 -154t85.5 -260q0 -195 -139 -317.5t-365 -127.5q-235 0 -235 -53q0 -19 41.5 -24.5t107.5 -4t145.5 4t159.5 -6t146 -29.5t107.5 -71t41.5 -125q0 -142 -137.5 -232.5t-362.5 -90.5
q-169 0 -308.5 54t-229.5 157l82 94q-62 42 -62 127q0 183 289 227q-147 46 -231 155.5t-84 260.5zM602 1475l221 -228l-131 -88l-100 289l-103 -289l-133 88l222 228h24z" />
    <glyph glyph-name="Gbreve" unicode="&#x11e;" horiz-adv-x="1265" 
d="M1200 625v-441q-176 -204 -475 -204t-479 208t-180 551t178.5 550.5t474.5 207.5t479 -211l-156 -180q-42 165 -124 256.5t-195 91.5q-167 0 -265 -196t-98 -521t98 -521t265 -196q101 0 182 78v527q0 32 -21 52.5t-53 20.5h-12v41h465v-41h-10q-34 0 -54 -20t-20 -53z
M664 1702q98 0 164.5 34.5t66.5 84.5q0 -97 -63.5 -158t-165.5 -61q-101 0 -165.5 61t-64.5 158q2 -50 66 -84.5t162 -34.5z" />
    <glyph glyph-name="gbreve" unicode="&#x11f;" horiz-adv-x="1105" 
d="M281 -172q54 -107 145 -168t211 -61q95 0 155 36.5t60 98.5q0 48 -38 71.5t-99 25.5t-137.5 -0.5t-152.5 -7.5t-144 5zM369 643q0 -178 62.5 -295t160.5 -117t159.5 115.5t61.5 294.5q0 177 -60.5 284t-160.5 107q-101 0 -162 -108t-61 -281zM74 633q0 196 142.5 319
t371.5 123q63 0 126.5 26.5t118.5 86t72 139.5l170 -170q-80 -80 -287 -108q149 -45 234.5 -154t85.5 -260q0 -195 -139 -317.5t-365 -127.5q-235 0 -235 -53q0 -19 41.5 -24.5t107.5 -4t145.5 4t159.5 -6t146 -29.5t107.5 -71t41.5 -125q0 -142 -137.5 -232.5t-362.5 -90.5
q-169 0 -308.5 54t-229.5 157l82 94q-62 42 -62 127q0 183 289 227q-147 46 -231 155.5t-84 260.5zM588 1294q98 0 164.5 34.5t66.5 84.5q0 -97 -63.5 -158t-165.5 -61q-101 0 -165.5 61t-64.5 158q2 -50 66 -84.5t162 -34.5z" />
    <glyph glyph-name="Gdotaccent" unicode="&#x120;" horiz-adv-x="1265" 
d="M1200 625v-441q-176 -204 -475 -204t-479 208t-180 551t178.5 550.5t474.5 207.5t479 -211l-156 -180q-42 165 -124 256.5t-195 91.5q-167 0 -265 -196t-98 -521t98 -521t265 -196q101 0 182 78v527q0 32 -21 52.5t-53 20.5h-12v41h465v-41h-10q-34 0 -54 -20t-20 -53z
M586 1647q0 35 23 58.5t57 23.5q35 0 58.5 -23.5t23.5 -58.5q0 -33 -23.5 -56.5t-58.5 -23.5q-33 0 -56.5 23.5t-23.5 56.5z" />
    <glyph glyph-name="gdotaccent" unicode="&#x121;" horiz-adv-x="1105" 
d="M281 -172q54 -107 145 -168t211 -61q95 0 155 36.5t60 98.5q0 48 -38 71.5t-99 25.5t-137.5 -0.5t-152.5 -7.5t-144 5zM369 643q0 -178 62.5 -295t160.5 -117t159.5 115.5t61.5 294.5q0 177 -60.5 284t-160.5 107q-101 0 -162 -108t-61 -281zM74 633q0 196 142.5 319
t371.5 123q63 0 126.5 26.5t118.5 86t72 139.5l170 -170q-80 -80 -287 -108q149 -45 234.5 -154t85.5 -260q0 -195 -139 -317.5t-365 -127.5q-235 0 -235 -53q0 -19 41.5 -24.5t107.5 -4t145.5 4t159.5 -6t146 -29.5t107.5 -71t41.5 -125q0 -142 -137.5 -232.5t-362.5 -90.5
q-169 0 -308.5 54t-229.5 157l82 94q-62 42 -62 127q0 183 289 227q-147 46 -231 155.5t-84 260.5zM510 1239q0 35 23 58.5t57 23.5q35 0 58.5 -23.5t23.5 -58.5q0 -33 -23.5 -56.5t-58.5 -23.5q-33 0 -56.5 23.5t-23.5 56.5z" />
    <glyph glyph-name="gcedilla" unicode="&#x123;" horiz-adv-x="1105" 
d="M281 -172q54 -107 145 -168t211 -61q95 0 155 36.5t60 98.5q0 48 -38 71.5t-99 25.5t-137.5 -0.5t-152.5 -7.5t-144 5zM369 643q0 -178 62.5 -295t160.5 -117t159.5 115.5t61.5 294.5q0 177 -60.5 284t-160.5 107q-101 0 -162 -108t-61 -281zM74 633q0 196 142.5 319
t371.5 123q63 0 126.5 26.5t118.5 86t72 139.5l170 -170q-80 -80 -287 -108q149 -45 234.5 -154t85.5 -260q0 -195 -139 -317.5t-365 -127.5q-235 0 -235 -53q0 -19 41.5 -24.5t107.5 -4t145.5 4t159.5 -6t146 -29.5t107.5 -71t41.5 -125q0 -142 -137.5 -232.5t-362.5 -90.5
q-169 0 -308.5 54t-229.5 157l82 94q-62 42 -62 127q0 183 289 227q-147 46 -231 155.5t-84 260.5zM733 1583q0 -64 -40 -103.5t-103 -39.5q-65 0 -104.5 40.5t-39.5 108.5q0 45 16.5 89.5t48 86t60 72t70.5 68.5l33 -35q-64 -74 -99 -144h13q65 0 105 -39t40 -104z" />
    <glyph glyph-name="Itilde" unicode="&#x128;" horiz-adv-x="530" 
d="M467 43h10v-43h-463v43h11q34 0 53.5 20t19.5 54v1243q0 33 -20 53.5t-53 20.5h-11v41h463v-41h-10q-32 0 -53 -21t-21 -53v-1243q0 -33 20.5 -53.5t53.5 -20.5zM74 1714q-37 0 -69.5 -31t-41.5 -63q12 90 50.5 149.5t105.5 59.5q37 0 81 -21t77.5 -45.5t77.5 -45.5
t81 -21q59 0 92 67q-26 -182 -147 -182q-50 0 -109 33.5t-111.5 66.5t-86.5 33z" />
    <glyph glyph-name="itilde" unicode="&#x129;" horiz-adv-x="514" 
d="M455 43h10v-43h-463v43h10q34 0 54 20t20 54v737q0 33 -20.5 53.5t-53.5 20.5h-10v41l338 86h41v-938q0 -33 20.5 -53.5t53.5 -20.5zM57 1307q-37 0 -69 -31.5t-41 -63.5q12 90 50 149.5t105 59.5q37 0 81 -21t78 -45.5t78 -45.5t81 -21q59 0 92 68q-26 -182 -147 -182
q-39 0 -85.5 21t-81 45.5t-74 45.5t-67.5 21z" />
    <glyph glyph-name="Imacron" unicode="&#x12a;" horiz-adv-x="530" 
d="M514 43h10v-43h-463v43h11q34 0 53.5 20t19.5 54v1243q0 33 -20 53.5t-53 20.5h-11v41h463v-41h-10q-32 0 -53 -21t-21 -53v-1243q0 -33 20.5 -53.5t53.5 -20.5zM530 1612h-473v98h473v-98z" />
    <glyph glyph-name="imacron" unicode="&#x12b;" horiz-adv-x="514" 
d="M502 43h10v-43h-463v43h10q34 0 54 20t20 54v737q0 33 -20.5 53.5t-53.5 20.5h-10v41l338 86h41v-938q0 -33 20.5 -53.5t53.5 -20.5zM514 1204h-473v99h473v-99z" />
    <glyph glyph-name="Ibreve" unicode="&#x12c;" horiz-adv-x="530" 
d="M518 43h10v-43h-462v43h10q34 0 54 20t20 54v1243q0 33 -20.5 53.5t-53.5 20.5h-10v41h462v-41h-10q-32 0 -53 -21t-21 -53v-1243q0 -33 20.5 -53.5t53.5 -20.5zM295 1702q98 0 164.5 34.5t66.5 84.5q0 -97 -63.5 -158t-165.5 -61q-101 0 -165 61t-64 158
q2 -50 65.5 -84.5t161.5 -34.5z" />
    <glyph glyph-name="ibreve" unicode="&#x12d;" horiz-adv-x="514" 
d="M508 43h10v-43h-463v43h11q34 0 53.5 20t19.5 54v737q0 33 -20 53.5t-53 20.5h-11v41l338 86h41v-938q0 -33 20.5 -53.5t53.5 -20.5zM281 1294q98 0 164.5 34.5t66.5 84.5q0 -97 -63.5 -158t-165.5 -61q-101 0 -165.5 61t-64.5 158q2 -50 66 -84.5t162 -34.5z" />
    <glyph glyph-name="Iogonek" unicode="&#x12e;" horiz-adv-x="530" 
d="M518 43h10v-43h-462v43h10q34 0 54 20t20 54v1243q0 33 -20.5 53.5t-53.5 20.5h-10v41h462v-41h-10q-32 0 -53 -21t-21 -53v-1243q0 -33 20.5 -53.5t53.5 -20.5zM528 -328q-8 -50 -43.5 -82t-91.5 -32q-63 0 -102 39.5t-39 97.5q0 39 24.5 91.5t50 91t85.5 122.5h22
q-72 -115 -86 -201q-17 -88 9.5 -134t86.5 -46q8 0 20 2t33 15t31 36z" />
    <glyph glyph-name="iogonek" unicode="&#x12f;" horiz-adv-x="514" 
d="M510 43h10v-43h-463v43h11q34 0 53.5 20t19.5 54v737q0 33 -20 53.5t-53 20.5h-11v41l338 86h41v-938q0 -33 20.5 -53.5t53.5 -20.5zM104 1313q0 83 50.5 133.5t132.5 50.5q83 0 132.5 -50.5t49.5 -133.5q0 -82 -49.5 -131t-132.5 -49q-82 0 -132.5 49.5t-50.5 130.5z
M424 -328q-8 -50 -43.5 -82t-91.5 -32q-63 0 -102.5 39.5t-39.5 97.5q0 39 24.5 91.5t50 91t85.5 122.5h23q-72 -115 -86 -201q-17 -88 9.5 -134t86.5 -46q8 0 20 2t33 15t31 36z" />
    <glyph glyph-name="Idotaccent" unicode="&#x130;" horiz-adv-x="530" 
d="M518 43h10v-43h-462v43h10q34 0 54 20t20 54v1243q0 33 -20.5 53.5t-53.5 20.5h-10v41h462v-41h-10q-32 0 -53 -21t-21 -53v-1243q0 -33 20.5 -53.5t53.5 -20.5zM217 1647q0 35 23 58.5t57 23.5q35 0 58.5 -23.5t23.5 -58.5q0 -33 -23.5 -56.5t-58.5 -23.5
q-33 0 -56.5 23.5t-23.5 56.5z" />
    <glyph glyph-name="idotless" unicode="&#x131;" horiz-adv-x="514" 
d="M510 43h10v-43h-463v43h11q34 0 53.5 20t19.5 54v737q0 33 -20 53.5t-53 20.5h-11v41l338 86h41v-938q0 -33 20.5 -53.5t53.5 -20.5z" />
    <glyph glyph-name="IJ" unicode="&#x132;" horiz-adv-x="1609" 
d="M518 43h10v-43h-462v43h10q34 0 54 20t20 54v1243q0 33 -20.5 53.5t-53.5 20.5h-10v41h462v-41h-10q-32 0 -53 -21t-21 -53v-1243q0 -33 20.5 -53.5t53.5 -20.5zM1542 1360v-621q0 -178 -27.5 -312.5t-88.5 -237t-165.5 -156t-250.5 -53.5q-299 0 -475 204l157 183
q42 -164 125 -255.5t195 -91.5q37 0 67.5 11t53 29t40.5 51t30 65.5t20 85t13 97.5t7.5 114.5t3 125t0.5 138.5v623q0 32 -20.5 53t-52.5 21h-11v41h463v-41h-10q-33 0 -53.5 -20.5t-20.5 -53.5z" />
    <glyph glyph-name="ij" unicode="&#x133;" horiz-adv-x="995" 
d="M510 43h10v-43h-463v43h11q34 0 53.5 20t19.5 54v737q0 33 -20 53.5t-53 20.5h-11v41l338 86h41v-938q0 -33 20.5 -53.5t53.5 -20.5zM104 1313q0 83 50.5 133.5t132.5 50.5q83 0 132.5 -50.5t49.5 -133.5q0 -82 -49.5 -131t-132.5 -49q-82 0 -132.5 49.5t-50.5 130.5z
M182 -297l170 170q27 -125 79.5 -199.5t109.5 -74.5q19 0 34.5 8.5t26.5 28.5t19 42t13 60.5t8 72t4.5 87.5t2 96.5t0.5 109.5v750q0 33 -20.5 53.5t-53.5 20.5h-10v41l338 86h43v-951q0 -546 -395 -546q-106 0 -203 38t-166 107zM797 1133q-83 0 -134 49t-51 131
q0 83 51 133.5t134 50.5q82 0 131 -50.5t49 -133.5q0 -82 -49 -131t-131 -49z" />
    <glyph glyph-name="Lslash" unicode="&#x141;" horiz-adv-x="1183" 
d="M565 43h369l211 315h43v-358h-1075v43h10q33 0 53.5 20.5t20.5 53.5v458l-187 -126l-22 34l209 144v733q0 32 -21 53t-53 21h-10v41h462v-41h-10q-33 0 -53 -20.5t-20 -53.5v-535l294 203l23 -35l-317 -217v-659q0 -34 19.5 -54t53.5 -20z" />
    <glyph glyph-name="lslash" unicode="&#x142;" horiz-adv-x="792" 
d="M561 43h10v-43h-462v43h10q33 0 53.5 20.5t20.5 53.5v458l-187 -126l-22 34l209 144v649q0 32 -21 53t-53 21h-10v41l335 84h43v-650l295 203l23 -35l-318 -217v-659q0 -34 20 -54t54 -20z" />
    <glyph glyph-name="Nacute" unicode="&#x143;" horiz-adv-x="1222" 
d="M266 43h10v-43h-210v43h10q34 0 54 20t20 54v1243q0 33 -20.5 53.5t-53.5 20.5h-10v41h434l598 -943v828q0 33 -20.5 53.5t-53.5 20.5h-10v41h211v-41h-11q-33 0 -53 -20.5t-20 -53.5v-1360h-54l-894 1411v-1294q0 -34 19.5 -54t53.5 -20zM766 1794l-221 -227h-23
l113 315z" />
    <glyph glyph-name="nacute" unicode="&#x144;" horiz-adv-x="1198" 
d="M510 43h10v-43h-463v43h11q34 0 53.5 20t19.5 54v737q0 33 -20 53.5t-53 20.5h-11v41l338 86h41v-219q45 115 136 177t219 62q155 0 245 -88t90 -239v-631q0 -34 20 -54t54 -20h10v-43h-462v43h10q32 0 52.5 20.5t20.5 53.5v585q0 121 -42 192t-125 71
q-103 0 -165.5 -106.5t-62.5 -270.5v-471q0 -33 20.5 -53.5t53.5 -20.5zM750 1386l-222 -227h-22l112 316z" />
    <glyph glyph-name="Ncaron" unicode="&#x147;" horiz-adv-x="1222" 
d="M266 43h10v-43h-210v43h10q34 0 54 20t20 54v1243q0 33 -20.5 53.5t-53.5 20.5h-10v41h434l598 -943v828q0 33 -20.5 53.5t-53.5 20.5h-10v41h211v-41h-11q-33 0 -53 -20.5t-20 -53.5v-1360h-54l-894 1411v-1294q0 -34 19.5 -54t53.5 -20zM879 1794l-222 -227h-24
l-221 227l133 88l102 -287l101 287z" />
    <glyph glyph-name="ncaron" unicode="&#x148;" horiz-adv-x="1198" 
d="M510 43h10v-43h-463v43h11q34 0 53.5 20t19.5 54v737q0 33 -20 53.5t-53 20.5h-11v41l338 86h41v-219q45 115 136 177t219 62q155 0 245 -88t90 -239v-631q0 -34 20 -54t54 -20h10v-43h-462v43h10q32 0 52.5 20.5t20.5 53.5v585q0 121 -42 192t-125 71
q-103 0 -165.5 -106.5t-62.5 -270.5v-471q0 -33 20.5 -53.5t53.5 -20.5zM862 1386l-221 -227h-25l-221 227l133 89l103 -287l100 287z" />
    <glyph glyph-name="Omacron" unicode="&#x14c;" horiz-adv-x="1380" 
d="M360 737q0 -325 98 -521t265 -196t263.5 195.5t96.5 521.5t-96.5 521.5t-263.5 195.5t-265 -196t-98 -521zM66 739q0 343 178.5 550.5t474.5 207.5q198 0 348 -96.5t230.5 -270t80.5 -399.5q0 -341 -177.5 -546t-475.5 -205q-299 0 -479 208t-180 551zM961 1612h-474v98
h474v-98z" />
    <glyph glyph-name="omacron" unicode="&#x14d;" 
d="M365 526q0 -233 66.5 -369.5t189.5 -136.5q121 0 186 137t65 369q0 234 -65 370t-186 136q-124 0 -190 -136t-66 -370zM70 526q0 253 143 401t408 148q263 0 404.5 -148t141.5 -401q0 -252 -141.5 -399t-404.5 -147q-265 0 -408 147.5t-143 398.5zM856 1204h-473v99h473
v-99z" />
    <glyph glyph-name="Obreve" unicode="&#x14e;" horiz-adv-x="1380" 
d="M360 737q0 -325 98 -521t265 -196t263.5 195.5t96.5 521.5t-96.5 521.5t-263.5 195.5t-265 -196t-98 -521zM66 739q0 343 178.5 550.5t474.5 207.5q198 0 348 -96.5t230.5 -270t80.5 -399.5q0 -341 -177.5 -546t-475.5 -205q-299 0 -479 208t-180 551zM721 1702
q98 0 164.5 34.5t66.5 84.5q0 -97 -63.5 -158t-165.5 -61q-101 0 -165 61t-64 158q2 -50 65.5 -84.5t161.5 -34.5z" />
    <glyph glyph-name="obreve" unicode="&#x14f;" 
d="M365 526q0 -233 66.5 -369.5t189.5 -136.5q121 0 186 137t65 369q0 234 -65 370t-186 136q-124 0 -190 -136t-66 -370zM70 526q0 253 143 401t408 148q263 0 404.5 -148t141.5 -401q0 -252 -141.5 -399t-404.5 -147q-265 0 -408 147.5t-143 398.5zM618 1294
q98 0 165 34.5t67 84.5q0 -97 -63.5 -158t-165.5 -61q-101 0 -165.5 61t-64.5 158q2 -50 65.5 -84.5t161.5 -34.5z" />
    <glyph glyph-name="Odoubleacute" unicode="&#x150;" horiz-adv-x="1380" 
d="M360 737q0 -325 98 -521t265 -196t263.5 195.5t96.5 521.5t-96.5 521.5t-263.5 195.5t-265 -196t-98 -521zM66 739q0 343 178.5 550.5t474.5 207.5q198 0 348 -96.5t230.5 -270t80.5 -399.5q0 -341 -177.5 -546t-475.5 -205q-299 0 -479 208t-180 551zM944 1794
l-221 -227h-21l109 315zM745 1794l-221 -227h-22l112 315z" />
    <glyph glyph-name="odoubleacute" unicode="&#x151;" 
d="M365 526q0 -233 66.5 -369.5t189.5 -136.5q121 0 186 137t65 369q0 234 -65 370t-186 136q-124 0 -190 -136t-66 -370zM70 526q0 253 143 401t408 148q263 0 404.5 -148t141.5 -401q0 -252 -141.5 -399t-404.5 -147q-265 0 -408 147.5t-143 398.5zM842 1386l-221 -227
h-21l109 316zM643 1386l-221 -227h-23l113 316z" />
    <glyph glyph-name="OE" unicode="&#x152;" horiz-adv-x="2072" 
d="M1016 43q41 3 57 31q-51 -28 -57 -31zM1008 1434q51 -27 69 -41q-15 41 -67 41h-2zM360 737q0 -325 98 -521t265 -196t263.5 195.5t96.5 521.5t-96.5 521.5t-263.5 195.5t-265 -196t-98 -521zM66 739q0 343 178.5 550.5t474.5 207.5q149 0 280 -59v37h1055v-359h-43
l-211 318h-348q-32 0 -53 -21t-21 -53v-600h211l107 104h41v-254h-41l-107 107h-211v-600q0 -33 20.5 -53.5t53.5 -20.5h369l211 315h43v-358h-1076v33q-121 -53 -274 -53q-299 0 -479 208t-180 551z" />
    <glyph glyph-name="oe" unicode="&#x153;" horiz-adv-x="1861" 
d="M1171 526h400q0 235 -48 370.5t-139 135.5q-93 0 -153 -141t-60 -365zM365 526q0 -233 66.5 -369.5t189.5 -136.5q121 0 186 137t65 369q0 234 -65 370t-186 136q-124 0 -190 -136t-66 -370zM70 526q0 253 143 401t408 148q255 0 399 -141q135 141 364 141
q228 0 355 -144.5t127 -404.5v-41h-695q6 -215 73 -340t183 -125q86 0 145.5 72.5t86.5 202.5l170 -170q-142 -145 -404 -145q-261 0 -403 145q-142 -145 -401 -145q-265 0 -408 147.5t-143 398.5z" />
    <glyph glyph-name="Racute" unicode="&#x154;" horiz-adv-x="1306" 
d="M444 653h101q174 0 279.5 107.5t105.5 288.5q0 173 -106 279t-279 106h-27q-32 0 -53 -21t-21 -53v-707zM518 43h10v-43h-462v43h10q34 0 54 20t20 54v1243q0 33 -20.5 53.5t-53.5 20.5h-10v41h731q194 0 311 -119t117 -318q0 -166 -89.5 -277.5t-242.5 -139.5l315 -517
q17 -28 48 -44.5t63 -16.5h37v-43h-424l-373 610h-115v-493q0 -33 20.5 -53.5t53.5 -20.5zM809 1794l-221 -227h-23l113 315z" />
    <glyph glyph-name="racute" unicode="&#x155;" horiz-adv-x="964" 
d="M510 43h10v-43h-463v43h11q34 0 53.5 20t19.5 54v737q0 33 -20 53.5t-53 20.5h-11v41l338 86h41v-215q43 111 122.5 173t180.5 62q85 0 157 -43t110 -119l-209 -182q-14 121 -62 177.5t-104 56.5q-80 0 -137.5 -108.5t-57.5 -268.5v-471q0 -33 20.5 -53.5t53.5 -20.5z
M633 1386l-221 -227h-23l113 316z" />
    <glyph glyph-name="Rcaron" unicode="&#x158;" horiz-adv-x="1306" 
d="M444 653h101q174 0 279.5 107.5t105.5 288.5q0 173 -106 279t-279 106h-27q-32 0 -53 -21t-21 -53v-707zM518 43h10v-43h-462v43h10q34 0 54 20t20 54v1243q0 33 -20.5 53.5t-53.5 20.5h-10v41h731q194 0 311 -119t117 -318q0 -166 -89.5 -277.5t-242.5 -139.5l315 -517
q17 -28 48 -44.5t63 -16.5h37v-43h-424l-373 610h-115v-493q0 -33 20.5 -53.5t53.5 -20.5zM920 1794l-222 -227h-24l-221 227l133 88l102 -287l100 287z" />
    <glyph glyph-name="rcaron" unicode="&#x159;" horiz-adv-x="964" 
d="M510 43h10v-43h-463v43h11q34 0 53.5 20t19.5 54v737q0 33 -20 53.5t-53 20.5h-11v41l338 86h41v-215q43 111 122.5 173t180.5 62q85 0 157 -43t110 -119l-209 -182q-14 121 -62 177.5t-104 56.5q-80 0 -137.5 -108.5t-57.5 -268.5v-471q0 -33 20.5 -53.5t53.5 -20.5z
M745 1386l-221 -227h-24l-221 227l133 89l102 -287l100 287z" />
    <glyph glyph-name="Sacute" unicode="&#x15a;" horiz-adv-x="1103" 
d="M883 1106q-42 167 -127.5 257.5t-210.5 90.5q-98 0 -156.5 -54t-58.5 -147q0 -75 42.5 -138t110.5 -109.5t150.5 -91t165 -93.5t150.5 -104.5t110.5 -136t42.5 -177.5q0 -192 -147.5 -307.5t-389.5 -115.5q-160 0 -297.5 54t-226.5 156l156 179q40 -159 141 -254t237 -95
q118 0 188.5 68t70.5 182q0 67 -26.5 123t-71 96.5t-102.5 76.5t-122 67.5t-128.5 63.5t-122.5 71t-102.5 84t-71 108t-26.5 138q0 175 132.5 287t349.5 112q151 0 280 -56t215 -155zM694 1794l-221 -227h-22l112 315z" />
    <glyph glyph-name="sacute" unicode="&#x15b;" horiz-adv-x="937" 
d="M735 760q-28 130 -86 201t-141 71q-73 0 -114.5 -49t-41.5 -106q0 -45 31.5 -85t82 -71.5t111.5 -63t122 -67.5t111.5 -76t82 -97t31.5 -124q0 -144 -131 -228.5t-347 -84.5q-271 0 -413 145l170 170q60 -275 250 -275q84 0 139 47.5t55 118.5q0 50 -31.5 92t-82 72.5
t-111 60.5t-121.5 63.5t-111.5 72.5t-82 96t-31.5 127q0 142 118.5 223.5t311.5 81.5q254 0 399 -145zM608 1386l-221 -227h-22l112 316z" />
    <glyph glyph-name="Scircumflex" unicode="&#x15c;" horiz-adv-x="1103" 
d="M883 1106q-42 167 -127.5 257.5t-210.5 90.5q-98 0 -156.5 -54t-58.5 -147q0 -75 42.5 -138t110.5 -109.5t150.5 -91t165 -93.5t150.5 -104.5t110.5 -136t42.5 -177.5q0 -192 -147.5 -307.5t-389.5 -115.5q-160 0 -297.5 54t-226.5 156l156 179q40 -159 141 -254t237 -95
q118 0 188.5 68t70.5 182q0 67 -26.5 123t-71 96.5t-102.5 76.5t-122 67.5t-128.5 63.5t-122.5 71t-102.5 84t-71 108t-26.5 138q0 175 132.5 287t349.5 112q151 0 280 -56t215 -155zM586 1882l221 -227l-131 -88l-101 288l-102 -288l-133 88l221 227h25z" />
    <glyph glyph-name="scircumflex" unicode="&#x15d;" horiz-adv-x="937" 
d="M735 760q-28 130 -86 201t-141 71q-73 0 -114.5 -49t-41.5 -106q0 -45 31.5 -85t82 -71.5t111.5 -63t122 -67.5t111.5 -76t82 -97t31.5 -124q0 -144 -131 -228.5t-347 -84.5q-271 0 -413 145l170 170q60 -275 250 -275q84 0 139 47.5t55 118.5q0 50 -31.5 92t-82 72.5
t-111 60.5t-121.5 63.5t-111.5 72.5t-82 96t-31.5 127q0 142 118.5 223.5t311.5 81.5q254 0 399 -145zM498 1475l221 -228l-131 -88l-101 289l-102 -289l-133 88l221 228h25z" />
    <glyph glyph-name="Scedilla" unicode="&#x15e;" horiz-adv-x="1103" 
d="M883 1106q-42 167 -127.5 257.5t-210.5 90.5q-98 0 -156.5 -54t-58.5 -147q0 -75 42.5 -138t110.5 -109.5t150.5 -91t165 -93.5t150.5 -104.5t110.5 -136t42.5 -177.5q0 -192 -147.5 -307.5t-389.5 -115.5q-160 0 -297.5 54t-226.5 156l156 179q40 -159 141 -254t237 -95
q118 0 188.5 68t70.5 182q0 67 -26.5 123t-71 96.5t-102.5 76.5t-122 67.5t-128.5 63.5t-122.5 71t-102.5 84t-71 108t-26.5 138q0 175 132.5 287t349.5 112q151 0 280 -56t215 -155zM762 -260q0 -61 -34 -102.5t-84 -54.5t-103.5 -8t-97.5 35.5t-60 76.5q49 -43 113 -53.5
t111.5 21.5t47.5 101q0 110 -96 121l43 123h68l-37 -102q129 -38 129 -158z" />
    <glyph glyph-name="scedilla" unicode="&#x15f;" horiz-adv-x="937" 
d="M735 760q-28 130 -86 201t-141 71q-73 0 -114.5 -49t-41.5 -106q0 -45 31.5 -85t82 -71.5t111.5 -63t122 -67.5t111.5 -76t82 -97t31.5 -124q0 -144 -131 -228.5t-347 -84.5q-271 0 -413 145l170 170q60 -275 250 -275q84 0 139 47.5t55 118.5q0 50 -31.5 92t-82 72.5
t-111 60.5t-121.5 63.5t-111.5 72.5t-82 96t-31.5 127q0 142 118.5 223.5t311.5 81.5q254 0 399 -145zM676 -260q0 -61 -34 -102.5t-84 -54.5t-103.5 -8t-97.5 35.5t-60 76.5q49 -43 113 -53.5t111.5 21.5t47.5 101q0 110 -96 121l43 123h68l-37 -102q129 -38 129 -158z" />
    <glyph glyph-name="Scaron" unicode="&#x160;" horiz-adv-x="1103" 
d="M883 1106q-42 167 -127.5 257.5t-210.5 90.5q-98 0 -156.5 -54t-58.5 -147q0 -75 42.5 -138t110.5 -109.5t150.5 -91t165 -93.5t150.5 -104.5t110.5 -136t42.5 -177.5q0 -192 -147.5 -307.5t-389.5 -115.5q-160 0 -297.5 54t-226.5 156l156 179q40 -159 141 -254t237 -95
q118 0 188.5 68t70.5 182q0 67 -26.5 123t-71 96.5t-102.5 76.5t-122 67.5t-128.5 63.5t-122.5 71t-102.5 84t-71 108t-26.5 138q0 175 132.5 287t349.5 112q151 0 280 -56t215 -155zM807 1794l-221 -227h-25l-221 227l133 88l102 -287l101 287z" />
    <glyph glyph-name="scaron" unicode="&#x161;" horiz-adv-x="937" 
d="M735 760q-28 130 -86 201t-141 71q-73 0 -114.5 -49t-41.5 -106q0 -45 31.5 -85t82 -71.5t111.5 -63t122 -67.5t111.5 -76t82 -97t31.5 -124q0 -144 -131 -228.5t-347 -84.5q-271 0 -413 145l170 170q60 -275 250 -275q84 0 139 47.5t55 118.5q0 50 -31.5 92t-82 72.5
t-111 60.5t-121.5 63.5t-111.5 72.5t-82 96t-31.5 127q0 142 118.5 223.5t311.5 81.5q254 0 399 -145zM719 1386l-221 -227h-25l-221 227l133 89l102 -287l101 287z" />
    <glyph glyph-name="Tcaron" unicode="&#x164;" horiz-adv-x="1161" 
d="M23 1116h-43v359h1179v-359h-41l-211 318h-116q-32 0 -53 -21t-21 -53v-1243q0 -33 20.5 -53.5t53.5 -20.5h10v-43h-463v43h10q34 0 54 20t20 54v1243q0 33 -20.5 53.5t-53.5 20.5h-115zM805 1794l-221 -227h-25l-221 227l133 88l102 -287l101 287z" />
    <glyph glyph-name="tcaron" unicode="&#x165;" horiz-adv-x="1091" 
d="M109 1253l294 107v-305h222v-43h-222v-486q0 -52 0.5 -88t1 -80.5t2.5 -74.5t4.5 -65.5t7 -58.5t10.5 -47.5t14 -39.5t18.5 -28t23.5 -18.5t29 -5.5q48 0 75 69q13 36 48 195q1 5 2 11l170 -170q-76 -78 -142.5 -111.5t-174.5 -33.5q-202 0 -292.5 125.5t-90.5 379.5v527
h-84v43h84v198zM766 1354q0 64 40 103.5t105 39.5q64 0 103 -40.5t39 -108.5q0 -45 -16.5 -89.5t-48 -86t-60 -72t-70.5 -68.5l-33 35q65 76 99 143h-13q-65 0 -105 40t-40 104z" />
    <glyph glyph-name="Utilde" unicode="&#x168;" horiz-adv-x="1222" 
d="M125 481v879q0 33 -20.5 53.5t-53.5 20.5h-10v41h463v-41h-10q-32 0 -53 -21t-21 -53v-901q0 -185 87 -290.5t234 -105.5q155 0 255 113t100 283v901q0 32 -21 53t-53 21h-12v41h211v-41h-11q-32 0 -52.5 -21t-20.5 -53v-879q0 -227 -138.5 -364t-367.5 -137t-367.5 137
t-138.5 364zM461 1714q-37 0 -69.5 -31t-41.5 -63q12 90 50.5 149.5t105.5 59.5q37 0 80.5 -21t77.5 -45.5t78 -45.5t81 -21q59 0 92 67q-26 -182 -147 -182q-50 0 -109 33.5t-111.5 66.5t-86.5 33z" />
    <glyph glyph-name="utilde" unicode="&#x169;" horiz-adv-x="1191" 
d="M737 928h-10v41l336 86h43v-938q0 -34 20 -54t54 -20h10v-43h-379v219q-45 -115 -135.5 -177t-218.5 -62q-155 0 -245.5 87t-90.5 238v549q0 33 -20.5 53.5t-53.5 20.5h-10v41l328 86h51v-703q0 -121 42.5 -192.5t125.5 -71.5q101 0 164 107t63 270v389q0 32 -21 53
t-53 21zM442 1307q-37 0 -69 -31.5t-41 -63.5q12 90 50 149.5t105 59.5q37 0 81 -21t78 -45.5t78 -45.5t81 -21q59 0 92 68q-26 -182 -147 -182q-39 0 -85.5 21t-81 45.5t-74 45.5t-67.5 21z" />
    <glyph glyph-name="Umacron" unicode="&#x16a;" horiz-adv-x="1222" 
d="M125 481v879q0 33 -20.5 53.5t-53.5 20.5h-10v41h463v-41h-10q-32 0 -53 -21t-21 -53v-901q0 -185 87 -290.5t234 -105.5q155 0 255 113t100 283v901q0 32 -21 53t-53 21h-12v41h211v-41h-11q-32 0 -52.5 -21t-20.5 -53v-879q0 -227 -138.5 -364t-367.5 -137t-367.5 137
t-138.5 364zM868 1612h-473v98h473v-98z" />
    <glyph glyph-name="umacron" unicode="&#x16b;" horiz-adv-x="1191" 
d="M737 928h-10v41l336 86h43v-938q0 -34 20 -54t54 -20h10v-43h-379v219q-45 -115 -135.5 -177t-218.5 -62q-155 0 -245.5 87t-90.5 238v549q0 33 -20.5 53.5t-53.5 20.5h-10v41l328 86h51v-703q0 -121 42.5 -192.5t125.5 -71.5q101 0 164 107t63 270v389q0 32 -21 53
t-53 21zM852 1204h-473v99h473v-99z" />
    <glyph glyph-name="Ubreve" unicode="&#x16c;" horiz-adv-x="1222" 
d="M125 481v879q0 33 -20.5 53.5t-53.5 20.5h-10v41h463v-41h-10q-32 0 -53 -21t-21 -53v-901q0 -185 87 -290.5t234 -105.5q155 0 255 113t100 283v901q0 32 -21 53t-53 21h-12v41h211v-41h-11q-32 0 -52.5 -21t-20.5 -53v-879q0 -227 -138.5 -364t-367.5 -137t-367.5 137
t-138.5 364zM631 1702q98 0 164.5 34.5t66.5 84.5q0 -97 -63.5 -158t-165.5 -61q-101 0 -165.5 61t-64.5 158q2 -50 66 -84.5t162 -34.5z" />
    <glyph glyph-name="ubreve" unicode="&#x16d;" horiz-adv-x="1191" 
d="M737 928h-10v41l336 86h43v-938q0 -34 20 -54t54 -20h10v-43h-379v219q-45 -115 -135.5 -177t-218.5 -62q-155 0 -245.5 87t-90.5 238v549q0 33 -20.5 53.5t-53.5 20.5h-10v41l328 86h51v-703q0 -121 42.5 -192.5t125.5 -71.5q101 0 164 107t63 270v389q0 32 -21 53
t-53 21zM612 1294q98 0 165 34.5t67 84.5q0 -97 -64 -158t-166 -61q-101 0 -165 61t-64 158q2 -50 65.5 -84.5t161.5 -34.5z" />
    <glyph glyph-name="Uring" unicode="&#x16e;" horiz-adv-x="1222" 
d="M125 481v879q0 33 -20.5 53.5t-53.5 20.5h-10v41h463v-41h-10q-32 0 -53 -21t-21 -53v-901q0 -185 87 -290.5t234 -105.5q155 0 255 113t100 283v901q0 32 -21 53t-53 21h-12v41h211v-41h-11q-32 0 -52.5 -21t-20.5 -53v-879q0 -227 -138.5 -364t-367.5 -137t-367.5 137
t-138.5 364zM545 1755q0 -37 24.5 -62.5t61.5 -25.5t61.5 25.5t24.5 62.5q0 36 -25 61t-61 25t-61 -25t-25 -61zM487 1755q0 60 42.5 103t101.5 43q60 0 102.5 -43t42.5 -103t-42.5 -101.5t-102.5 -41.5q-59 0 -101.5 41.5t-42.5 101.5z" />
    <glyph glyph-name="uring" unicode="&#x16f;" horiz-adv-x="1191" 
d="M737 928h-10v41l336 86h43v-938q0 -34 20 -54t54 -20h10v-43h-379v219q-45 -115 -135.5 -177t-218.5 -62q-155 0 -245.5 87t-90.5 238v549q0 33 -20.5 53.5t-53.5 20.5h-10v41l328 86h51v-703q0 -121 42.5 -192.5t125.5 -71.5q101 0 164 107t63 270v389q0 32 -21 53
t-53 21zM528 1348q0 -37 24.5 -62.5t61.5 -25.5t61.5 25.5t24.5 62.5q0 36 -25 61t-61 25t-61 -25t-25 -61zM471 1348q0 60 42 102.5t101 42.5q60 0 103 -42.5t43 -102.5t-43 -102t-103 -42q-59 0 -101 42t-42 102z" />
    <glyph glyph-name="Udoubleacute" unicode="&#x170;" horiz-adv-x="1222" 
d="M125 481v879q0 33 -20.5 53.5t-53.5 20.5h-10v41h463v-41h-10q-32 0 -53 -21t-21 -53v-901q0 -185 87 -290.5t234 -105.5q155 0 255 113t100 283v901q0 32 -21 53t-53 21h-12v41h211v-41h-11q-32 0 -52.5 -21t-20.5 -53v-879q0 -227 -138.5 -364t-367.5 -137t-367.5 137
t-138.5 364zM854 1794l-221 -227h-21l109 315zM655 1794l-221 -227h-22l112 315z" />
    <glyph glyph-name="udoubleacute" unicode="&#x171;" horiz-adv-x="1191" 
d="M737 928h-10v41l336 86h43v-938q0 -34 20 -54t54 -20h10v-43h-379v219q-45 -115 -135.5 -177t-218.5 -62q-155 0 -245.5 87t-90.5 238v549q0 33 -20.5 53.5t-53.5 20.5h-10v41l328 86h51v-703q0 -121 42.5 -192.5t125.5 -71.5q101 0 164 107t63 270v389q0 32 -21 53
t-53 21zM836 1386l-222 -227h-20l108 316zM637 1386l-221 -227h-23l113 316z" />
    <glyph glyph-name="Uogonek" unicode="&#x172;" horiz-adv-x="1222" 
d="M125 481v879q0 33 -20.5 53.5t-53.5 20.5h-10v41h463v-41h-10q-32 0 -53 -21t-21 -53v-901q0 -185 87 -290.5t234 -105.5q155 0 255 113t100 283v901q0 32 -21 53t-53 21h-12v41h211v-41h-11q-32 0 -52.5 -21t-20.5 -53v-879q0 -227 -138.5 -364t-367.5 -137t-367.5 137
t-138.5 364zM1221 -328q-8 -50 -44 -82t-92 -32q-63 0 -102 39.5t-39 97.5q0 39 24.5 91.5t50 91t85.5 122.5h22q-72 -115 -86 -201q-17 -88 10 -134t87 -46q8 0 20 2t33 15t31 36z" />
    <glyph glyph-name="uogonek" unicode="&#x173;" horiz-adv-x="1191" 
d="M737 928h-10v41l336 86h43v-938q0 -34 20 -54t54 -20h10v-43h-379v219q-45 -115 -135.5 -177t-218.5 -62q-155 0 -245.5 87t-90.5 238v549q0 33 -20.5 53.5t-53.5 20.5h-10v41l328 86h51v-703q0 -121 42.5 -192.5t125.5 -71.5q101 0 164 107t63 270v389q0 32 -21 53
t-53 21zM1190 -328q-8 -50 -43.5 -82t-91.5 -32q-63 0 -102.5 39.5t-39.5 97.5q0 39 24.5 91.5t50 91t85.5 122.5h23q-72 -115 -86 -201q-17 -88 9.5 -134t86.5 -46q8 0 20 2t33 15t31 36z" />
    <glyph glyph-name="Wcircumflex" unicode="&#x174;" horiz-adv-x="1900" 
d="M350 1364l309 -909l234 688l-76 221q-9 31 -35.5 50.5t-60.5 19.5h-10v41h501v-41h-32q-32 0 -46 -19.5t-4 -50.5l310 -909l309 909q9 31 -4 50.5t-45 19.5h-33v41h231v-41h-10q-32 0 -59.5 -19.5t-36.5 -50.5l-467 -1364h-41l-369 1079l-368 -1079h-43l-467 1364
q-9 31 -35.5 50.5t-60.5 19.5h-11v41h502v-41h-31q-33 0 -46.5 -19.5t-4.5 -50.5zM928 1882l221 -227l-131 -88l-100 288l-103 -288l-133 88l221 227h25z" />
    <glyph glyph-name="wcircumflex" unicode="&#x175;" horiz-adv-x="1644" 
d="M387 942l215 -551l174 418l-51 133q-14 32 -41 51t-61 19h-11v43h510v-43h-35q-34 0 -46.5 -19t-0.5 -51l215 -551l230 553q12 31 -0.5 49.5t-44.5 18.5h-33v43h235v-43h-10q-32 0 -60 -18.5t-40 -49.5l-393 -944h-45l-295 752l-314 -752h-45l-368 942q-13 32 -41 51
t-62 19h-10v43h510v-43h-35q-34 0 -46.5 -19t-0.5 -51zM815 1475l221 -228l-131 -88l-100 289l-103 -289l-133 88l222 228h24z" />
    <glyph glyph-name="Ycircumflex" unicode="&#x176;" horiz-adv-x="1196" 
d="M379 1368l326 -580l321 580q17 28 6 47t-43 19h-33v41h240v-41h-10q-33 0 -64.5 -19t-46.5 -47l-348 -625l-2 -4v-622q0 -33 20.5 -53.5t53.5 -20.5h10v-43h-463v43h10q34 0 54 20t20 54v557l-387 694q-18 29 -48 47.5t-63 18.5h-10v41h527v-41h-31q-33 0 -44 -19t5 -47z
M571 1882l222 -227l-131 -88l-101 288l-102 -288l-133 88l221 227h24z" />
    <glyph glyph-name="ycircumflex" unicode="&#x177;" horiz-adv-x="1114" 
d="M825 944l-450 -944q-41 -85 -70 -140.5t-63 -110t-64 -86.5t-67 -58t-78.5 -36.5t-91.5 -10.5q-185 0 -330 145l170 170q27 -125 82.5 -188.5t130.5 -63.5q88 0 164.5 88t173.5 291h-4l-430 944q-13 31 -42 49.5t-61 18.5h-12v43h518v-43h-37q-34 0 -46 -18.5t1 -49.5
l275 -598l284 598q14 31 2.5 49.5t-43.5 18.5h-32v43h235v-43h-10q-33 0 -62.5 -19t-42.5 -49zM375 1475l221 -228l-131 -88l-100 289l-103 -289l-133 88l221 228h25z" />
    <glyph glyph-name="Ydieresis" unicode="&#x178;" horiz-adv-x="1196" 
d="M379 1368l326 -580l321 580q17 28 6 47t-43 19h-33v41h240v-41h-10q-33 0 -64.5 -19t-46.5 -47l-348 -625l-2 -4v-622q0 -33 20.5 -53.5t53.5 -20.5h10v-43h-463v43h10q34 0 54 20t20 54v557l-387 694q-18 29 -48 47.5t-63 18.5h-10v41h527v-41h-31q-33 0 -44 -19t5 -47z
M387 1647q0 35 23 58.5t57 23.5q35 0 58.5 -23.5t23.5 -58.5q0 -33 -23.5 -56.5t-58.5 -23.5q-33 0 -56.5 23.5t-23.5 56.5zM569 1647q0 35 23 58.5t57 23.5t58 -23.5t24 -58.5q0 -32 -24 -56t-58 -24q-33 0 -56.5 23.5t-23.5 56.5z" />
    <glyph glyph-name="Zacute" unicode="&#x179;" horiz-adv-x="1171" 
d="M1122 0h-1134l815 1434h-477l-211 -318h-43v359h1091l-815 -1432h520l211 315h43v-358zM702 1794l-221 -227h-22l112 315z" />
    <glyph glyph-name="zacute" unicode="&#x17a;" horiz-adv-x="1046" 
d="M977 0h-977l666 1012h-314l-211 -316h-43v359h940l-667 -1012h352l211 315h43v-358zM645 1386l-221 -227h-23l113 316z" />
    <glyph glyph-name="Zdotaccent" unicode="&#x17b;" horiz-adv-x="1171" 
d="M1122 0h-1134l815 1434h-477l-211 -318h-43v359h1091l-815 -1432h520l211 315h43v-358zM500 1647q0 35 23 58.5t57 23.5q35 0 58.5 -23.5t23.5 -58.5q0 -33 -23.5 -56.5t-58.5 -23.5q-33 0 -56.5 23.5t-23.5 56.5z" />
    <glyph glyph-name="zdotaccent" unicode="&#x17c;" horiz-adv-x="1046" 
d="M977 0h-977l666 1012h-314l-211 -316h-43v359h940l-667 -1012h352l211 315h43v-358zM442 1239q0 35 23 58.5t57 23.5q35 0 58.5 -23.5t23.5 -58.5q0 -33 -23.5 -56.5t-58.5 -23.5q-33 0 -56.5 23.5t-23.5 56.5z" />
    <glyph glyph-name="Zcaron" unicode="&#x17d;" horiz-adv-x="1171" 
d="M1122 0h-1134l815 1434h-477l-211 -318h-43v359h1091l-815 -1432h520l211 315h43v-358zM813 1794l-221 -227h-25l-221 227l133 88l103 -287l100 287z" />
    <glyph glyph-name="zcaron" unicode="&#x17e;" horiz-adv-x="1046" 
d="M977 0h-977l666 1012h-314l-211 -316h-43v359h940l-667 -1012h352l211 315h43v-358zM758 1386l-221 -227h-25l-221 227l133 89l102 -287l101 287z" />
    <glyph glyph-name="fhook" unicode="&#x192;" horiz-adv-x="731" 
d="M-35 1012l10 43h88q129 442 484 442q105 0 194 -38t144 -107l-207 -172q0 126 -36 200t-93 74q-34 0 -62 -26.5t-51.5 -83t-41.5 -122.5t-40 -167h221l-8 -43h-221q-4 -12 -14 -64l-176 -821q-116 -549 -510 -549l-2 43q22 0 41.5 13t35.5 33.5t32 57.5t28.5 74.5t27 95
t26 108t26.5 124.5l174 821q2 12 18 64h-88z" />
    <glyph glyph-name="AEacute" unicode="&#x1fc;" horiz-adv-x="1880" 
d="M268 440h551v920q0 15 -8 35zM1190 43h369l210 315h41v-358h-1075v43h10q34 0 54 20t20 54v282h-575l-164 -288q-15 -29 -1 -48.5t48 -19.5h31v-43h-232v43h11q62 0 102 68l747 1312q-18 11 -41 11h-10v41h1055v-359h-43l-211 318h-346q-34 0 -55 -21t-21 -53v-600h211
l107 104h41v-254h-41l-107 107h-211v-600q0 -34 21 -54t55 -20zM1026 1794l-221 -227h-23l113 315z" />
    <glyph glyph-name="aeacute" unicode="&#x1fd;" horiz-adv-x="1722" 
d="M725 485v41q0 72 -2 107q-179 -5 -279 -89.5t-100 -244.5q0 -105 41 -167t104 -62q62 0 117 61t87 156.5t32 197.5zM1020 526h399q0 235 -48 370.5t-138 135.5q-93 0 -153 -141t-60 -365zM1714 526v-41h-694q8 -216 74 -340.5t182 -124.5q87 0 145.5 72t85.5 203
l172 -170q-145 -145 -405 -145q-208 0 -341.5 94t-180.5 262q-38 -157 -144 -256.5t-256 -99.5q-133 0 -218 78.5t-85 201.5q0 120 89 214t241.5 145.5t341.5 54.5q-23 358 -209 358q-86 0 -144.5 -71t-86.5 -201l-170 170q145 145 403 145q237 0 369 -129q135 129 350 129
q229 0 355 -144t126 -405zM1008 1386l-222 -227h-22l113 316z" />
    <glyph glyph-name="circumflexmod" unicode="&#x2c6;" horiz-adv-x="546" 
d="M324 1475l221 -228l-131 -88l-101 289l-102 -289l-133 88l221 228h25z" />
    <glyph glyph-name="caronmod" unicode="&#x2c7;" horiz-adv-x="546" 
d="M545 1386l-221 -227h-25l-221 227l133 89l102 -287l101 287z" />
    <glyph glyph-name="brevemod" unicode="&#x2d8;" horiz-adv-x="542" 
d="M309 1294q98 0 165 34.5t67 84.5q0 -97 -64 -158t-166 -61q-101 0 -165 61t-64 158q2 -50 65.5 -84.5t161.5 -34.5z" />
    <glyph glyph-name="dotaccentmod" unicode="&#x2d9;" horiz-adv-x="241" 
d="M78 1239q0 35 23 58.5t57 23.5q35 0 58.5 -23.5t23.5 -58.5q0 -33 -23.5 -56.5t-58.5 -23.5q-33 0 -56.5 23.5t-23.5 56.5z" />
    <glyph glyph-name="ringmod" unicode="&#x2da;" horiz-adv-x="385" 
d="M152 1348q0 -37 24.5 -62.5t61.5 -25.5t61.5 25.5t24.5 62.5q0 36 -25 61t-61 25t-61 -25t-25 -61zM94 1348q0 60 42.5 102.5t101.5 42.5q60 0 102.5 -42.5t42.5 -102.5t-42.5 -102t-102.5 -42q-59 0 -101.5 42t-42.5 102z" />
    <glyph glyph-name="ogonekmod" unicode="&#x2db;" horiz-adv-x="452" 
d="M453 -328q-8 -50 -44 -82t-92 -32q-63 0 -102 39.5t-39 97.5q0 39 24.5 91.5t50 91t85.5 122.5h22q-72 -115 -86 -201q-17 -88 10 -134t87 -46q8 0 20 2t33 15t31 36z" />
    <glyph glyph-name="tildemod" unicode="&#x2dc;" horiz-adv-x="651" 
d="M197 1307q-37 0 -69.5 -31.5t-41.5 -63.5q12 90 50.5 149.5t105.5 59.5q37 0 80.5 -21t77.5 -45.5t78 -45.5t81 -21q59 0 92 68q-26 -182 -147 -182q-39 0 -85 21t-81 45.5t-74 45.5t-67 21z" />
    <glyph glyph-name="doubleacutemod" unicode="&#x2dd;" horiz-adv-x="526" 
d="M528 1386l-221 -227h-20l108 316zM330 1386l-221 -227h-23l113 316z" />
    <glyph glyph-name="mu-grek" unicode="&#x3bc;" horiz-adv-x="1208" 
d="M823 928h-10v41l336 86h43v-1360q0 -34 20 -54t54 -20h10v-43h-379v641q-45 -115 -135.5 -177t-218.5 -62q-155 0 -245.5 87t-90.5 238v549q0 33 -20.5 53.5t-53.5 20.5h-10v41l328 86h51v-703q0 -121 42.5 -192.5t125.5 -71.5q101 0 164 107t63 270v389q0 32 -21 53
t-53 21z" />
    <glyph glyph-name="Wgrave" unicode="&#x1e80;" horiz-adv-x="1900" 
d="M350 1364l309 -909l234 688l-76 221q-9 31 -35.5 50.5t-60.5 19.5h-10v41h501v-41h-32q-32 0 -46 -19.5t-4 -50.5l310 -909l309 909q9 31 -4 50.5t-45 19.5h-33v41h231v-41h-10q-32 0 -59.5 -19.5t-36.5 -50.5l-467 -1364h-41l-369 1079l-368 -1079h-43l-467 1364
q-9 31 -35.5 50.5t-60.5 19.5h-11v41h502v-41h-31q-33 0 -46.5 -19.5t-4.5 -50.5zM1016 1612l-221 227l133 88l110 -315h-22z" />
    <glyph glyph-name="wgrave" unicode="&#x1e81;" horiz-adv-x="1644" 
d="M387 942l215 -551l174 418l-51 133q-14 32 -41 51t-61 19h-11v43h510v-43h-35q-34 0 -46.5 -19t-0.5 -51l215 -551l230 553q12 31 -0.5 49.5t-44.5 18.5h-33v43h235v-43h-10q-32 0 -60 -18.5t-40 -49.5l-393 -944h-45l-295 752l-314 -752h-45l-368 942q-13 32 -41 51
t-62 19h-10v43h510v-43h-35q-34 0 -46.5 -19t-0.5 -51zM901 1204l-221 228l133 88l111 -316h-23z" />
    <glyph glyph-name="Wacute" unicode="&#x1e82;" horiz-adv-x="1900" 
d="M350 1364l309 -909l234 688l-76 221q-9 31 -35.5 50.5t-60.5 19.5h-10v41h501v-41h-32q-32 0 -46 -19.5t-4 -50.5l310 -909l309 909q9 31 -4 50.5t-45 19.5h-33v41h231v-41h-10q-32 0 -59.5 -19.5t-36.5 -50.5l-467 -1364h-41l-369 1079l-368 -1079h-43l-467 1364
q-9 31 -35.5 50.5t-60.5 19.5h-11v41h502v-41h-31q-33 0 -46.5 -19.5t-4.5 -50.5zM1038 1794l-221 -227h-22l112 315z" />
    <glyph glyph-name="wacute" unicode="&#x1e83;" horiz-adv-x="1644" 
d="M387 942l215 -551l174 418l-51 133q-14 32 -41 51t-61 19h-11v43h510v-43h-35q-34 0 -46.5 -19t-0.5 -51l215 -551l230 553q12 31 -0.5 49.5t-44.5 18.5h-33v43h235v-43h-10q-32 0 -60 -18.5t-40 -49.5l-393 -944h-45l-295 752l-314 -752h-45l-368 942q-13 32 -41 51
t-62 19h-10v43h510v-43h-35q-34 0 -46.5 -19t-0.5 -51zM924 1386l-222 -227h-22l113 316z" />
    <glyph glyph-name="Wdieresis" unicode="&#x1e84;" horiz-adv-x="1900" 
d="M350 1364l309 -909l234 688l-76 221q-9 31 -35.5 50.5t-60.5 19.5h-10v41h501v-41h-32q-32 0 -46 -19.5t-4 -50.5l310 -909l309 909q9 31 -4 50.5t-45 19.5h-33v41h231v-41h-10q-32 0 -59.5 -19.5t-36.5 -50.5l-467 -1364h-41l-369 1079l-368 -1079h-43l-467 1364
q-9 31 -35.5 50.5t-60.5 19.5h-11v41h502v-41h-31q-33 0 -46.5 -19.5t-4.5 -50.5zM743 1647q0 35 23 58.5t57 23.5q35 0 58.5 -23.5t23.5 -58.5q0 -33 -23.5 -56.5t-58.5 -23.5q-33 0 -56.5 23.5t-23.5 56.5zM926 1647q0 35 23 58.5t57 23.5t57.5 -23.5t23.5 -58.5
q0 -33 -23.5 -56.5t-57.5 -23.5q-33 0 -56.5 23.5t-23.5 56.5z" />
    <glyph glyph-name="wdieresis" unicode="&#x1e85;" horiz-adv-x="1644" 
d="M387 942l215 -551l174 418l-51 133q-14 32 -41 51t-61 19h-11v43h510v-43h-35q-34 0 -46.5 -19t-0.5 -51l215 -551l230 553q12 31 -0.5 49.5t-44.5 18.5h-33v43h235v-43h-10q-32 0 -60 -18.5t-40 -49.5l-393 -944h-45l-295 752l-314 -752h-45l-368 942q-13 32 -41 51
t-62 19h-10v43h510v-43h-35q-34 0 -46.5 -19t-0.5 -51zM631 1239q0 35 23 58.5t57 23.5q35 0 58.5 -23.5t23.5 -58.5q0 -33 -23.5 -56.5t-58.5 -23.5q-33 0 -56.5 23.5t-23.5 56.5zM813 1239q0 35 23 58.5t57 23.5t58 -23.5t24 -58.5q0 -32 -24 -56t-58 -24
q-33 0 -56.5 23.5t-23.5 56.5z" />
    <glyph glyph-name="Ygrave" unicode="&#x1ef2;" horiz-adv-x="1196" 
d="M379 1368l326 -580l321 580q17 28 6 47t-43 19h-33v41h240v-41h-10q-33 0 -64.5 -19t-46.5 -47l-348 -625l-2 -4v-622q0 -33 20.5 -53.5t53.5 -20.5h10v-43h-463v43h10q34 0 54 20t20 54v557l-387 694q-18 29 -48 47.5t-63 18.5h-10v41h527v-41h-31q-33 0 -44 -19t5 -47z
M659 1612l-221 227l133 88l111 -315h-23z" />
    <glyph glyph-name="ygrave" unicode="&#x1ef3;" horiz-adv-x="1114" 
d="M825 944l-450 -944q-41 -85 -70 -140.5t-63 -110t-64 -86.5t-67 -58t-78.5 -36.5t-91.5 -10.5q-185 0 -330 145l170 170q27 -125 82.5 -188.5t130.5 -63.5q88 0 164.5 88t173.5 291h-4l-430 944q-13 31 -42 49.5t-61 18.5h-12v43h518v-43h-37q-34 0 -46 -18.5t1 -49.5
l275 -598l284 598q14 31 2.5 49.5t-43.5 18.5h-32v43h235v-43h-10q-33 0 -62.5 -19t-42.5 -49zM463 1204l-221 228l133 88l110 -316h-22z" />
    <glyph glyph-name="endash" unicode="&#x2013;" horiz-adv-x="1009" 
d="M1008 522h-967v43h967v-43z" />
    <glyph glyph-name="emdash" unicode="&#x2014;" horiz-adv-x="2029" 
d="M2030 522h-1989v43h1989v-43z" />
    <glyph glyph-name="quoteleft" unicode="&#x2018;" horiz-adv-x="391" 
d="M393 1176q0 -64 -40 -104t-103 -40q-65 0 -104.5 40.5t-39.5 109.5q0 45 16.5 89.5t48 86t60 71.5t70.5 68l33 -35q-62 -73 -98 -143h12q65 0 105 -39t40 -104z" />
    <glyph glyph-name="quoteright" unicode="&#x2019;" horiz-adv-x="389" 
d="M102 1354q0 64 40.5 103.5t105.5 39.5q64 0 102.5 -40.5t38.5 -108.5q0 -85 -52.5 -160t-141.5 -156l-33 35q62 73 98 143h-12q-65 0 -105.5 40t-40.5 104z" />
    <glyph glyph-name="quotesinglbase" unicode="&#x201a;" horiz-adv-x="380" 
d="M94 123q0 64 40.5 103.5t105.5 39.5q64 0 102.5 -40.5t38.5 -108.5q0 -45 -16.5 -89.5t-48 -86t-60 -72t-70.5 -68.5l-32 35q61 72 98 144h-12q-65 0 -105.5 39t-40.5 104z" />
    <glyph glyph-name="quotereversed" unicode="&#x201b;" horiz-adv-x="389" 
d="M246 1497q63 0 103 -39.5t40 -103.5t-40 -104t-105 -40h-13q34 -67 99 -143l-33 -35q-42 38 -70.5 68.5t-60 72t-48 86t-16.5 89.5q0 68 39.5 108.5t104.5 40.5z" />
    <glyph glyph-name="quotedblleft" unicode="&#x201c;" horiz-adv-x="688" 
d="M688 1176q0 -64 -40 -104t-103 -40q-65 0 -104.5 40.5t-39.5 109.5q0 45 16.5 89t49 86.5t59.5 71t70 68.5l33 -35q-65 -76 -99 -143h13q65 0 105 -39t40 -104zM393 1176q0 -64 -40 -104t-103 -40q-65 0 -104.5 40.5t-39.5 109.5q0 45 16.5 89.5t48 86t60 71.5t70.5 68
l33 -35q-62 -73 -98 -143h12q65 0 105 -39t40 -104z" />
    <glyph glyph-name="quotedblright" unicode="&#x201d;" horiz-adv-x="686" 
d="M102 1354q0 64 40.5 103.5t105.5 39.5q64 0 102.5 -40.5t38.5 -108.5q0 -85 -52.5 -160t-141.5 -156l-33 35q62 73 98 143h-12q-65 0 -105.5 40t-40.5 104zM397 1354q0 64 40.5 103.5t105.5 39.5q64 0 102.5 -40.5t38.5 -108.5q0 -45 -16.5 -89.5t-48 -86t-60 -72
t-70.5 -68.5l-32 35q62 73 98 143h-12q-65 0 -105.5 40t-40.5 104z" />
    <glyph glyph-name="quotedblbase" unicode="&#x201e;" horiz-adv-x="677" 
d="M389 123q0 64 40.5 103.5t105.5 39.5q64 0 102.5 -40.5t38.5 -108.5q0 -45 -16.5 -89.5t-48 -86t-60 -72t-70.5 -68.5l-32 35q61 72 98 144h-12q-65 0 -105.5 39t-40.5 104zM94 123q0 64 40.5 103.5t105.5 39.5q64 0 102.5 -40.5t38.5 -108.5q0 -45 -16.5 -89.5t-48 -86
t-60 -72t-70.5 -68.5l-32 35q61 72 98 144h-12q-65 0 -105.5 39t-40.5 104z" />
    <glyph glyph-name="dagger" unicode="&#x2020;" horiz-adv-x="1097" 
d="M156 963v43h448v510h43v-510h449v-43h-449v-1229h-43v1229h-448z" />
    <glyph glyph-name="daggerdbl" unicode="&#x2021;" horiz-adv-x="1044" 
d="M594 -266h-43v618h-449v41h449v570h-449v43h449v510h43v-510h448v-43h-448v-570h448v-41h-448v-618z" />
    <glyph glyph-name="bullet" unicode="&#x2022;" horiz-adv-x="479" 
d="M291 600q-78 0 -133.5 55t-55.5 133t55.5 133.5t133.5 55.5q77 0 131.5 -55.5t54.5 -133.5t-54.5 -133t-131.5 -55z" />
    <glyph glyph-name="ellipsis" unicode="&#x2026;" horiz-adv-x="1415" 
d="M1126 123q0 64 40.5 103.5t105.5 39.5q64 0 102.5 -39t38.5 -104q0 -66 -38 -104.5t-103 -38.5t-105.5 39t-40.5 104zM610 123q0 64 40.5 103.5t105.5 39.5q63 0 102 -39.5t39 -103.5q0 -65 -38.5 -104t-102.5 -39q-65 0 -105.5 39t-40.5 104zM94 123q0 64 40.5 103.5
t105.5 39.5q63 0 102 -39.5t39 -103.5q0 -65 -38.5 -104t-102.5 -39q-65 0 -105.5 39t-40.5 104z" />
    <glyph glyph-name="perthousand" unicode="&#x2030;" horiz-adv-x="1968" 
d="M1544 387q0 -172 37.5 -279.5t99.5 -107.5q61 0 97.5 106.5t36.5 274.5q0 170 -37.5 275.5t-98.5 105.5q-62 0 -98.5 -103.5t-36.5 -271.5zM911 387q0 -171 38.5 -279t99.5 -108t98 106.5t37 274.5q0 169 -38 275t-99 106t-98.5 -104t-37.5 -271zM1386 385q0 181 80 290
t211 109t213 -111.5t82 -293.5q0 -178 -81 -288.5t-212 -110.5q-132 0 -212.5 111.5t-80.5 293.5zM754 385q0 181 79.5 290t210.5 109t213 -111.5t82 -293.5q0 -178 -80.5 -288.5t-211.5 -110.5q-132 0 -212.5 111.5t-80.5 293.5zM281 1100q0 -171 38 -279t99 -108t98 106.5
t37 274.5q0 169 -38 274t-99 105t-98 -103t-37 -270zM256 0l844 1475h104l-844 -1475h-104zM123 1098q0 180 80.5 289.5t210.5 109.5q131 0 213 -111.5t82 -293.5q0 -178 -81 -289t-212 -111t-212 112.5t-81 293.5z" />
    <glyph glyph-name="guilsinglleft" unicode="&#x2039;" horiz-adv-x="612" 
d="M502 356l-420 420l420 420l90 -158l-262 -262l262 -262z" />
    <glyph glyph-name="guilsinglright" unicode="&#x203a;" horiz-adv-x="612" 
d="M629 776l-420 -420l-90 158l262 262l-262 262l90 158z" />
    <glyph glyph-name="fraction" unicode="&#x2044;" horiz-adv-x="1105" 
d="M156 0l843 1475h105l-844 -1475h-104z" />
    <glyph glyph-name="euro" unicode="&#x20ac;" horiz-adv-x="1415" 
d="M68 770l8 41h176q19 313 195 499.5t456 186.5q296 0 479 -211l-157 -180q-40 165 -122.5 256.5t-195.5 91.5q-158 0 -253.5 -174t-106.5 -469h246l-9 -41h-239v-33v-30h227l-10 -43h-215q11 -294 106.5 -469t253.5 -175q113 0 195.5 92t122.5 255l159 -183
q-176 -204 -475 -204q-282 0 -459.5 185.5t-197.5 498.5h-207l10 43h195v32v31h-182z" />
    <glyph glyph-name="trademark" unicode="&#x2122;" horiz-adv-x="1517" 
d="M799 768h4v-23h-105v23h4q18 0 28.5 10t10.5 25v616q0 15 -10.5 25t-28.5 10h-4v21h199l205 -531l213 531h188v-21h-6q-17 0 -27 -10t-10 -25v-616q0 -15 10 -25t27 -10h6v-23h-231v23h6q17 0 27 10t10 25v620l-271 -678h-22l-262 676v-618q0 -15 10.5 -25t28.5 -10z
M115 1298h-21v177h584v-177h-21l-104 156h-57q-17 0 -27 -10t-10 -25v-616q0 -15 10 -25t27 -10h6v-23h-232v23h6q17 0 27 10t10 25v616q0 15 -10 25t-27 10h-57z" />
    <glyph glyph-name="minus" unicode="&#x2212;" horiz-adv-x="1251" 
d="M1251 717h-1210v43h1210v-43z" />
    <glyph glyph-name="glyph176" unicode="&#xf000;" horiz-adv-x="1589" 
d="M561 440h526l-229 574q-25 58 -31 69zM381 111l424 1019q-34 71 -68 126.5t-78 108.5t-96 81.5t-108 28.5q-102 0 -182.5 -91t-135.5 -251l-203 151q91 98 252 166t351 68q235 0 389 -122.5t258 -404.5h-2l383 -948q23 -54 39 -90t44 -91.5t51.5 -93t57 -80.5t66 -69
t72.5 -43.5t81 -17.5q102 0 183.5 92t136.5 252l203 -152q-91 -99 -252 -167t-353 -68q-234 0 -388.5 122.5t-258.5 405.5l-143 356h-561l-119 -288q-12 -31 0.5 -49.5t44.5 -18.5h33v-43h-232v43h11q32 0 60 18.5t40 49.5z" />
    <glyph glyph-name="glyph177" unicode="&#xf001;" horiz-adv-x="1687" 
d="M1368 432q0 171 -79 270t-245 99h-161v-199l114 -98q-245 -44 -369 -142t-124 -221q0 -114 99 -185t255 -71q228 0 369 151t141 396zM883 844h121q280 0 280 295t-280 295h-48q-33 0 -53 -20.5t-20 -53.5v-516zM588 500v860q0 33 -19.5 53.5t-52.5 20.5
q-188 -1 -312 -102t-124 -251q0 -148 122 -267.5t310 -166.5l-180 -155q-135 84 -225.5 217t-90.5 295q0 69 17 134t55 126t93.5 107t138.5 74t184 30h710q92 0 164.5 -29t115 -77.5t64 -107t21.5 -122.5q0 -104 -53 -190t-158 -124q137 -37 216 -149.5t79 -280.5
q0 -179 -91 -320t-248.5 -217.5t-352.5 -76.5q-232 0 -371 107.5t-139 287.5t127 324z" />
    <glyph glyph-name="glyph178" unicode="&#xf002;" horiz-adv-x="1290" 
d="M1059 367l158 -183q-176 -204 -476 -204q-148 0 -274 54.5t-215.5 153t-140 240.5t-50.5 311q0 341 191 549.5t498 208.5q238 0 390 -128.5t152 -342.5q0 -93 -31.5 -182.5t-88 -160.5t-142 -114t-184.5 -43q-109 0 -204 48t-154.5 140.5t-59.5 209.5q0 66 19.5 131
t60 129.5t110 123t162.5 101.5l185 -160q-245 -44 -369.5 -141.5t-124.5 -220.5q0 -108 85 -181t183 -73q87 0 161.5 64t117.5 168.5t43 221.5q0 164 -84.5 265.5t-216.5 101.5q-122 0 -213.5 -89.5t-141 -252t-49.5 -375.5q0 -212 48.5 -375.5t135.5 -252.5t199 -89
q114 0 196 91.5t124 255.5z" />
    <glyph glyph-name="glyph179" unicode="&#xf003;" horiz-adv-x="1697" 
d="M883 602l114 -98q-245 -44 -369 -142t-124 -221q0 -111 93 -183.5t224 -72.5q116 0 215 63t173.5 184t116.5 311.5t42 430.5q0 303 -75 431.5t-249 128.5h-88q-33 0 -53 -20.5t-20 -53.5v-758zM1663 784q0 -216 -53 -402t-148 -318.5t-232.5 -207.5t-299.5 -75
q-204 0 -336.5 108.5t-132.5 286.5q0 180 127 324v860q0 33 -19.5 53.5t-52.5 20.5q-188 -1 -312 -102t-124 -251q0 -148 122 -267.5t310 -166.5l-180 -155q-135 84 -225.5 217t-90.5 295q0 69 17 134t55 126t93.5 107t138.5 74t184 30h667q81 0 151 -21.5t133.5 -72.5
t109 -128.5t72 -197.5t26.5 -271z" />
    <glyph glyph-name="glyph180" unicode="&#xf004;" horiz-adv-x="1579" 
d="M225 -168h-37q12 71 38.5 133.5t68.5 117t106 86.5t142 32q33 0 49 -2v1161q0 33 -19.5 53.5t-52.5 20.5q-188 -1 -312 -102t-124 -251q0 -148 122 -267.5t310 -166.5l-180 -155q-135 84 -225.5 217t-90.5 295q0 69 17 134t55 126t93.5 107t138.5 74t184 30h1053v-359
h-41l-211 318h-348q-33 0 -53.5 -20.5t-20.5 -53.5v-600h211l104 104h43v-254h-43l-104 107h-211v-627q15 -8 65 -34t70 -36t63.5 -30.5t70 -29.5t63 -21t68.5 -16.5t63 -4.5q183 0 200 178h37q-26 -174 -117 -263t-227 -89q-77 0 -168.5 29t-175.5 70.5t-165.5 83.5
t-162.5 71t-143 29q-94 0 -146 -58.5t-57 -136.5z" />
    <glyph glyph-name="glyph181" unicode="&#xf005;" horiz-adv-x="1542" 
d="M961 43h10v-43h-463v43h10q34 0 54 20t20 54v1243q0 33 -19.5 53.5t-52.5 20.5q-188 -1 -312 -102t-124 -251q0 -148 122 -267.5t310 -166.5l-180 -155q-135 84 -225.5 217t-90.5 295q0 69 17 134t55 126t93.5 107t138.5 74t184 30h1053v-359h-41l-211 318h-348
q-33 0 -53.5 -20.5t-20.5 -53.5v-643h211l104 104h43v-252h-43l-104 105h-211v-557q0 -34 20 -54t54 -20z" />
    <glyph glyph-name="glyph182" unicode="&#xf006;" horiz-adv-x="1308" 
d="M922 98v527q0 2 -1 7t-1 7q-34 -6 -74 -6q-160 0 -257 101.5t-97 256.5q0 36 5 71t23 84.5t47.5 93t84.5 89.5t128 80l185 -160q-98 -18 -175 -46t-124 -59.5t-77.5 -68.5t-42 -69.5t-11.5 -65.5q0 -79 61.5 -141t159.5 -62q130 0 217.5 110.5t87.5 262.5
q0 149 -85 246.5t-216 97.5q-122 0 -213.5 -89.5t-141 -252t-49.5 -375.5q0 -212 48.5 -375.5t135.5 -252.5t199 -89q102 0 183 78zM1217 625v-441q-176 -204 -476 -204q-148 0 -274 54.5t-215.5 153t-140 240.5t-50.5 311q0 341 191 549.5t498 208.5q154 0 278.5 -55
t194 -150t69.5 -209q0 -91 -43.5 -183.5t-120.5 -160.5h172v-41h-10q-33 0 -53 -20t-20 -53z" />
    <glyph glyph-name="glyph183" unicode="&#xf007;" horiz-adv-x="1771" 
d="M592 856v504q0 33 -19.5 53.5t-52.5 20.5q-188 -1 -312 -102t-124 -251q0 -138 108 -253t277 -169q11 62 42.5 115t80.5 82zM961 43h10v-43h-463v43h10q34 0 54 20t20 54v653q-88 -19 -100 -117l24 -6l-180 -155q-135 84 -225.5 217t-90.5 295q0 69 17 134t55 126
t93.5 107t138.5 74t184 30h463v-41h-10q-33 0 -53.5 -20.5t-20.5 -53.5v-533q31 -13 90 -40t95.5 -42.5t84 -29t84.5 -13.5q66 0 95.5 33t33.5 80h2v545q0 32 -21 53t-53 21h-10v41h463v-41h-10q-33 0 -53.5 -20.5t-20.5 -53.5v-1243q0 -34 20 -54t54 -20h10v-43h-463v43h10
q33 0 53.5 20.5t20.5 53.5v614q-55 -139 -194 -139q-41 0 -95.5 14.5t-93 30t-102.5 43.5v-563q0 -34 20 -54t54 -20z" />
    <glyph glyph-name="glyph184" unicode="&#xf008;" horiz-adv-x="993" 
d="M961 43h10v-43h-463v43h10q34 0 54 20t20 54v1243q0 33 -19.5 53.5t-52.5 20.5q-188 -1 -312 -102t-124 -251q0 -148 122 -267.5t310 -166.5l-180 -155q-135 84 -225.5 217t-90.5 295q0 69 17 134t55 126t93.5 107t138.5 74t184 30h463v-41h-10q-33 0 -53.5 -20.5
t-20.5 -53.5v-1243q0 -34 20 -54t54 -20z" />
    <glyph glyph-name="glyph185" unicode="&#xf009;" horiz-adv-x="1101" 
d="M995 1360v-621q0 -178 -27.5 -312.5t-88.5 -237t-165.5 -156t-250.5 -53.5q-299 0 -475 204l157 183q42 -164 125 -255.5t195 -91.5q37 0 67.5 11t53 29t40.5 51t30 65.5t20 85t13 97.5t7.5 114.5t3 125t0.5 138.5v623q0 32 -20.5 53t-52.5 21q-189 0 -313 -101.5
t-124 -251.5q0 -148 122.5 -267.5t310.5 -166.5l-181 -155q-134 84 -224.5 216.5t-90.5 295.5q0 69 17 134.5t55.5 126.5t94 107t138.5 74t184 29h463v-41h-10q-33 0 -53.5 -20.5t-20.5 -53.5z" />
    <glyph glyph-name="glyph186" unicode="&#xf00a;" horiz-adv-x="1761" 
d="M956 43h11v-43h-463v43h10q34 0 54 20t20 54v1243q0 33 -19.5 53.5t-52.5 20.5q-188 -1 -312 -102t-124 -251q0 -148 122 -267.5t310 -166.5l-180 -155q-135 84 -225.5 217t-90.5 295q0 69 17 134t55 126t93.5 107t138.5 74t184 30h463v-41h-11q-33 0 -53 -20.5
t-20 -53.5v-586l563 600q23 26 13 43t-44 17h-31v41h244v-41h-10q-64 0 -117 -60l-514 -547q82 18 164.5 -11t154 -94t141.5 -155t132.5 -193.5t122.5 -208.5t116.5 -201.5t108 -171.5t103.5 -120t98 -45q116 0 211 258l174 -84q-55 -97 -159.5 -157t-252.5 -60
q-118 0 -221.5 41t-181 110t-145.5 159t-121.5 189t-101.5 198.5t-93 189.5t-89 159t-96 110.5t-108 41.5l-61 -65v-600q0 -34 19.5 -54t53.5 -20z" />
    <glyph glyph-name="glyph187" unicode="&#xf00b;" horiz-adv-x="1540" 
d="M225 -168h-37q12 71 38.5 133.5t68.5 117t106 86.5t142 32q33 0 49 -2v1161q0 33 -19.5 53.5t-52.5 20.5q-188 -1 -312 -102t-124 -251q0 -148 122 -267.5t310 -166.5l-180 -155q-135 84 -225.5 217t-90.5 295q0 69 17 134t55 126t93.5 107t138.5 74t184 30h463v-41h-10
q-33 0 -53.5 -20.5t-20.5 -53.5v-1270q15 -8 65 -34t70 -36t63.5 -30.5t70 -29.5t63 -21t68.5 -16.5t63 -4.5q183 0 200 178h37q-26 -174 -117 -263t-227 -89q-77 0 -168.5 29t-175.5 70.5t-165.5 83.5t-162.5 71t-143 29q-94 0 -146 -58.5t-57 -136.5z" />
    <glyph glyph-name="glyph188" unicode="&#xf00c;" horiz-adv-x="2310" 
d="M819 43h10v-43h-211v43h13q33 0 53.5 20.5t20.5 53.5v1257q-120 187 -246 187q-52 0 -101 -31t-89 -87t-72 -122t-60 -147l-203 151q45 49 104 95t134.5 88.5t167.5 68t184 25.5q428 0 658 -570l254 -629l428 1072h381v-41h-11q-33 0 -53 -20.5t-20 -53.5v-1243
q0 -34 19.5 -54t53.5 -20h11v-43h-463v43h10q33 0 53.5 20.5t20.5 53.5v1253l-408 -1022l107 -264q29 -72 54.5 -128t67 -127t82.5 -118t95.5 -79.5t111.5 -32.5q102 0 183.5 92t136.5 252l203 -152q-90 -98 -247 -165.5t-333 -67.5q-233 0 -399.5 131t-272.5 395l-389 973
q-71 169 -113 246v-1186q0 -33 20.5 -53.5t53.5 -20.5z" />
    <glyph glyph-name="glyph189" unicode="&#xf00d;" horiz-adv-x="1812" 
d="M778 43h10v-43h-210v43h10q34 0 54 20t20 54v1331q-109 104 -205 104q-100 0 -181 -104.5t-139 -273.5l-203 151q46 50 105 95t139 88t182 68.5t211 25.5q218 0 379 -119t291 -398l369 -786v1061q0 33 -20.5 53.5t-53.5 20.5h-10v41h211v-41h-11q-33 0 -53 -20.5
t-20 -53.5v-1149l59 -127q31 -67 63 -127t76.5 -128t87.5 -116.5t93.5 -81t97.5 -32.5q84 0 161.5 94t129.5 250l202 -152q-88 -98 -244 -165.5t-331 -67.5q-229 0 -390 131t-284 395l-452 973q-101 215 -217 346v-1286q0 -34 19.5 -54t53.5 -20z" />
    <glyph glyph-name="glyph190" unicode="&#xf00e;" horiz-adv-x="1378" 
d="M780 1409l185 -160q-245 -44 -369.5 -141.5t-124.5 -220.5q0 -108 85 -181t183 -73q87 0 161.5 64t117.5 168.5t43 221.5q0 164 -84.5 265.5t-216.5 101.5q-122 0 -213.5 -89.5t-141 -252t-49.5 -375.5q0 -316 104 -513.5t269 -203.5q144 6 235.5 160.5t110.5 413.5
q-109 -68 -229 -68q-109 0 -204 48t-154.5 140.5t-59.5 209.5q0 66 19.5 131t60 129.5t110 123t162.5 101.5zM1374 729q0 -219 -77 -387t-221 -262.5t-335 -99.5h-10h-10q-193 5 -343 100t-233.5 266.5t-83.5 392.5q0 341 191 549.5t498 208.5q190 0 328.5 -84t189.5 -231
q106 -192 106 -453z" />
    <glyph glyph-name="glyph191" unicode="&#xf00f;" horiz-adv-x="1662" 
d="M887 653h98q175 0 281 107.5t106 288.5q0 173 -106 279t-281 106h-24q-33 0 -53.5 -20.5t-20.5 -53.5v-707zM1239 610h-352v-493q0 -34 20 -54t54 -20h10v-43h-463v43h10q34 0 54 20t20 54v1243q0 33 -19.5 53.5t-52.5 20.5q-188 -1 -312 -102t-124 -251
q0 -148 122 -267.5t310 -166.5l-180 -155q-135 84 -225.5 217t-90.5 295q0 69 17 134t55 126t93.5 107t138.5 74t184 30h731q193 0 310.5 -119t117.5 -318q0 -192 -118 -310t-310 -118z" />
    <glyph glyph-name="glyph192" unicode="&#xf010;" horiz-adv-x="1380" 
d="M360 737q0 -325 98 -521t265 -196t263.5 195.5t96.5 521.5t-96.5 521.5t-263.5 195.5t-265 -196t-98 -521zM66 739q0 343 178.5 550.5t474.5 207.5q198 0 348 -96.5t230.5 -270t80.5 -399.5q0 -217 -74.5 -384t-213.5 -262.5t-326 -104.5q68 -21 165.5 -65t171.5 -80
t162.5 -64.5t155.5 -28.5q98 0 140.5 49t46.5 119h36q-24 -162 -108 -245t-209 -83q-72 0 -164 27t-179 66t-171.5 78t-166 66t-138.5 27q-89 0 -136.5 -54t-54.5 -130h-32q13 81 43 148t88 121t135 69q-225 57 -354 254t-129 485z" />
    <glyph glyph-name="glyph193" unicode="&#xf011;" horiz-adv-x="1742" 
d="M883 653h98q175 0 281 107.5t106 288.5q0 173 -106 279t-281 106h-25q-33 0 -53 -20.5t-20 -53.5v-707zM1235 610h-49q84 -38 169.5 -113t156 -163.5t140 -188t131.5 -190.5t119 -165t114 -118.5t106 -44.5q122 0 217 258l174 -84q-56 -97 -162 -157t-262 -60
q-113 0 -213 33.5t-175.5 90.5t-141.5 131t-118 157t-99.5 166t-91 160.5t-85.5 138.5t-91.5 101t-102.5 48h-88v-493q0 -34 19.5 -54t53.5 -20h11v-43h-463v43h10q34 0 54 20t20 54v1243q0 33 -19.5 53.5t-52.5 20.5q-188 -1 -312 -102t-124 -251q0 -148 122 -267.5
t310 -166.5l-180 -155q-135 84 -225.5 217t-90.5 295q0 69 17 134t55 126t93.5 107t138.5 74t184 30h731q193 0 310.5 -119t117.5 -318q0 -192 -118 -310t-310 -118z" />
    <glyph glyph-name="glyph194" unicode="&#xf012;" horiz-adv-x="1228" 
d="M991 1106q-42 167 -127.5 257.5t-210.5 90.5q-98 0 -156.5 -54t-58.5 -147q0 -59 26.5 -109.5t71 -89t102.5 -74.5t122 -73t128 -77t122 -93t102.5 -115.5t71 -150t26.5 -190.5q0 -278 -176 -451.5t-465 -173.5q-248 0 -402.5 128t-154.5 343q0 126 53.5 239t157.5 187
t236 74q109 0 204 -48t154.5 -140.5t59.5 -209.5q0 -65 -19.5 -130.5t-60 -130t-110.5 -123t-163 -101.5l-182 160q244 44 368 141.5t124 220.5q0 108 -85.5 181t-183.5 73q-87 0 -161.5 -64t-117 -168.5t-42.5 -221.5q0 -165 87 -266t228 -101q111 0 199.5 63.5t136 169.5
t47.5 232q0 90 -26.5 165t-71 127.5t-102.5 96.5t-122 79.5t-128 69.5t-122 72.5t-102.5 82t-71 105t-26.5 136.5q0 175 132 287t349 112q151 0 280.5 -56t215.5 -155z" />
    <glyph glyph-name="glyph195" unicode="&#xf013;" horiz-adv-x="1331" 
d="M20 1004q0 69 17 134t55 126t93.5 107t138.5 74t184 30h842v-359h-41l-211 318h-117q-32 0 -53 -21t-21 -53v-1243q0 -33 20.5 -53.5t53.5 -20.5h10v-43h-463v43h11q34 0 53.5 20t19.5 54v1243q0 33 -20 53.5t-53 20.5h-17q-189 0 -313.5 -101.5t-124.5 -251.5
q0 -148 122 -267.5t310 -166.5l-180 -155q-135 84 -225.5 217t-90.5 295z" />
    <glyph glyph-name="glyph196" unicode="&#xf014;" horiz-adv-x="1697" 
d="M588 481v879q0 33 -19.5 53.5t-52.5 20.5q-188 -1 -312 -102t-124 -251q0 -148 122 -267.5t310 -166.5l-180 -155q-135 84 -225.5 217t-90.5 295q0 69 17 134t55 126t93.5 107t138.5 74t184 30h463v-41h-11q-33 0 -53 -20.5t-20 -53.5v-901q0 -185 87 -290.5t232 -105.5
q155 0 254.5 113t99.5 283v901q0 33 -20 53.5t-53 20.5h-10v41h210v-41h-10q-33 0 -53.5 -20.5t-20.5 -53.5v-879q0 -227 -138 -364t-367 -137t-367.5 137t-138.5 364z" />
    <glyph glyph-name="glyph197" unicode="&#xf015;" horiz-adv-x="1650" 
d="M745 1366l392 -977l405 977q12 30 -1 49t-46 19h-31v41h232v-41h-10q-33 0 -61 -19t-40 -49l-567 -1366h-43l-545 1366q-14 30 -41.5 49t-60.5 19q-102 0 -173 -89.5t-71 -220.5q0 -89 36 -168.5t99 -139t144 -103t174 -66.5l-179 -155q-66 41 -122 91.5t-107 119
t-80 158t-29 190.5q0 180 85.5 299.5t211.5 124.5h506v-41h-30q-33 0 -46.5 -19.5t-1.5 -48.5z" />
    <glyph glyph-name="glyph198" unicode="&#xf016;" horiz-adv-x="2242" 
d="M737 1364l310 -909l233 688l-76 221q-9 31 -35.5 50.5t-60.5 19.5h-10v41h501v-41h-32q-32 0 -45 -19.5t-4 -50.5l309 -909l309 909q11 31 -3 50.5t-46 19.5h-33v41h232v-41h-11q-32 0 -59.5 -19.5t-36.5 -50.5l-467 -1364h-41l-368 1079l-369 -1079h-43l-465 1364
q-11 31 -38 50.5t-60 19.5q-102 0 -173 -89.5t-71 -220.5q0 -89 36 -168.5t99 -139t144 -103t174 -66.5l-179 -155q-66 41 -122 91.5t-107 119t-80 158t-29 190.5q0 180 85.5 299.5t211.5 124.5h502v-41h-31q-33 0 -46.5 -19.5t-4.5 -50.5z" />
    <glyph glyph-name="glyph199" unicode="&#xf017;" horiz-adv-x="1570" 
d="M532 43h33v-43h-241v43h10q34 0 66.5 15.5t52.5 41.5l399 531l-414 737q-17 31 -46.5 48.5t-63.5 17.5q-102 0 -173 -89.5t-71 -220.5q0 -89 36 -168.5t99 -139t144 -103t174 -66.5l-179 -155q-66 41 -122 91.5t-107 119t-80 158t-29 190.5q0 180 85.5 299.5t211.5 124.5
h527v-41h-31q-34 0 -44 -17.5t5 -48.5l270 -481l367 487q21 28 12.5 44t-41.5 16h-32v41h241v-41h-10q-34 0 -66.5 -16t-52.5 -44l-397 -526l414 -742q17 -29 46.5 -46t63.5 -17h15v-43h-527v43h27q34 0 44 17t-5 46l-271 484l-368 -490q-22 -26 -14 -41.5t42 -15.5z" />
    <glyph glyph-name="glyph200" unicode="&#xf018;" horiz-adv-x="1542" 
d="M774 1368l326 -580l321 580q17 28 7 47t-44 19h-32v41h239v-41h-10q-33 0 -64.5 -19t-46.5 -47l-348 -625l-2 -4v-622q0 -33 20.5 -53.5t53.5 -20.5h10v-43h-463v43h11q34 0 53.5 20t19.5 54v557l-387 694q-18 29 -47.5 47.5t-62.5 18.5q-102 0 -173 -89.5t-71 -220.5
q0 -89 36 -168.5t99 -139t144 -103t174 -66.5l-179 -155q-66 41 -122 91.5t-107 119t-80 158t-29 190.5q0 180 85.5 299.5t211.5 124.5h527v-41h-31q-33 0 -44 -19t5 -47z" />
    <glyph glyph-name="glyph201" unicode="&#xf019;" horiz-adv-x="1329" 
d="M1303 0h-1135l815 1434h-448q-189 0 -314 -101.5t-125 -251.5q0 -97 57.5 -169t150.5 -108.5t208 -39.5l-164 -272q-134 84 -224.5 216.5t-90.5 295.5q0 69 17 134.5t55.5 127t94.5 107.5t140 73.5t186 28.5h817l-815 -1432h521l211 315h43v-358z" />
    <glyph glyph-name="glyph202" unicode="&#xf01a;" horiz-adv-x="1056" 
d="M725 485v41q0 72 -2 107q-179 -5 -279 -89.5t-100 -244.5q0 -105 41 -167t104 -62q62 0 117 61t87 156.5t32 197.5zM281 760l-170 170q145 145 403 145q132 0 230 -39t158 -112t89 -172.5t29 -225.5v-526q0 -119 10 -207.5t34 -158t66 -105t103 -35.5q87 0 146 71.5
t87 203.5l170 -172q-146 -146 -405 -146q-132 0 -230 39t-158 112t-89 172.5t-29 225.5v256q-47 -126 -144.5 -201t-228.5 -75q-133 0 -218 78.5t-85 201.5q0 120 89 214t241.5 145.5t341.5 54.5q-23 358 -209 358q-86 0 -144.5 -71t-86.5 -201z" />
    <glyph glyph-name="glyph203" unicode="&#xf01b;" horiz-adv-x="1155" 
d="M76 63q98 0 152.5 120t54.5 339q0 222 -56 334.5t-157 112.5q-98 0 -165 -98t-67 -281v-127q0 -172 68.5 -286t169.5 -114zM-162 1475v-644q45 115 133.5 179.5t206.5 64.5q184 0 292 -150.5t108 -402.5q0 -248 -108.5 -395t-297.5 -147q-120 0 -206 61.5t-128 173.5v-88
q0 -126 -29 -225.5t-89 -172.5t-158 -112t-230 -39q-259 0 -405 146l170 172q28 -132 87 -203.5t146 -71.5q61 0 103 35.5t66 105t34 158t10 207.5v1149q0 32 -20.5 53t-52.5 21h-13v41l338 84h43z" />
    <glyph glyph-name="glyph204" unicode="&#xf01c;" horiz-adv-x="1155" 
d="M821 463v127q0 183 -66.5 281t-164.5 98q-101 0 -157 -112.5t-56 -334.5q0 -219 54.5 -339t152.5 -120q100 0 168.5 114t68.5 286zM821 831v445q0 33 -20 53.5t-53 20.5h-11v41l338 84h41v-1348q0 -119 10 -207.5t34 -158t66 -105t103 -35.5q87 0 146.5 71.5t87.5 203.5
l170 -172q-146 -146 -406 -146q-132 0 -230 39t-158 112t-89 172.5t-29 225.5v88q-43 -112 -128.5 -173.5t-205.5 -61.5q-189 0 -297 147t-108 395q0 252 107.5 402.5t291.5 150.5q117 0 205.5 -64.5t134.5 -179.5z" />
    <glyph glyph-name="glyph205" unicode="&#xf01d;" horiz-adv-x="1183" 
d="M377 522q0 -219 54.5 -339t152.5 -120q100 0 168.5 114t68.5 286v127q0 183 -66.5 281t-164.5 98q-101 0 -157 -112.5t-56 -334.5zM123 -297l170 170q27 -131 89 -202.5t159 -71.5q138 0 209 134.5t71 370.5v111q-43 -112 -128.5 -173.5t-205.5 -61.5q-189 0 -297 147
t-108 395q0 252 107.5 402.5t291.5 150.5q117 0 205.5 -64.5t134.5 -179.5v224h43l338 -86v-41h-12q-32 0 -53 -21t-21 -53v-750q0 -262 -152.5 -404t-426.5 -142q-269 0 -414 145z" />
    <glyph glyph-name="glyph206" unicode="&#xf01e;" horiz-adv-x="1161" 
d="M1110 748v-748q0 -120 10 -208t33.5 -157.5t66 -105t103.5 -35.5q86 0 144.5 71.5t86.5 203.5l170 -172q-146 -146 -403 -146q-132 0 -230 39t-158 112t-89 172.5t-29 225.5v702q0 120 -42.5 191.5t-125.5 71.5q-103 0 -165 -106.5t-62 -270.5v-471q0 -33 20.5 -53.5
t53.5 -20.5h10v-43h-463v43h10q34 0 54 20t20 54v1159q0 33 -20.5 53.5t-53.5 20.5h-10v41l338 84h41v-639q45 115 135.5 177t218.5 62q155 0 245.5 -88t90.5 -239z" />
    <glyph glyph-name="glyph207" unicode="&#xf01f;" horiz-adv-x="479" 
d="M-131 -442v41q78 47 125 186t47 319v750q0 33 -20.5 53.5t-53.5 20.5h-10v41l338 86h41v-951q0 -200 -126 -349.5t-341 -196.5zM186 1133q-82 0 -132 49t-50 131q0 83 50 133.5t132 50.5q83 0 133 -50.5t50 -133.5q0 -82 -50 -131t-133 -49z" />
    <glyph glyph-name="glyph208" unicode="&#xf020;" horiz-adv-x="1134" 
d="M494 43h10v-43h-463v43h10q34 0 54 20t20 54v1159q0 33 -20.5 53.5t-53.5 20.5h-10v41l338 84h41v-848l416 340q25 22 20 34.5t-37 12.5h-33v41h258v-41h-10q-34 0 -70.5 -13t-60.5 -34l-414 -338q94 -2 189 -59t175 -145.5t157.5 -195t147.5 -212.5t133.5 -193.5
t127 -142t117.5 -54.5q120 0 215 258l172 -84q-56 -98 -162.5 -157.5t-265.5 -59.5q-108 0 -204 29.5t-169.5 80.5t-138 117.5t-116 142t-97.5 152t-88.5 150.5t-82.5 134.5t-86 105.5t-93 63v-442q0 -33 20.5 -53.5t53.5 -20.5z" />
    <glyph glyph-name="glyph209" unicode="&#xf021;" horiz-adv-x="1646" 
d="M1604 748v-748q0 -119 10 -207.5t34 -158t66 -105t103 -35.5q87 0 146 71.5t87 203.5l170 -172q-146 -146 -405 -146q-132 0 -230 39t-158 112t-89 172.5t-29 225.5v702q0 120 -29 191.5t-82 71.5q-68 0 -123 -110.5t-55 -266.5v-471q0 -33 20.5 -53.5t53.5 -20.5h12v-43
h-465v43h10q34 0 54 20t20 54v585q0 120 -29 191.5t-82 71.5q-70 0 -124 -110t-54 -267v-471q0 -33 20.5 -53.5t53.5 -20.5h10v-43h-463v43h11q34 0 53.5 20t19.5 54v737q0 33 -20 53.5t-53 20.5h-11v41l338 86h41v-215q43 111 125 173t187 62q111 0 179.5 -67.5
t86.5 -184.5q41 120 124.5 186t192.5 66q128 0 200.5 -89.5t72.5 -237.5z" />
    <glyph glyph-name="glyph210" unicode="&#xf022;" 
d="M510 43h10v-43h-463v43h11q34 0 53.5 20t19.5 54v737q0 33 -20 53.5t-53 20.5h-11v41l338 86h41v-219q45 115 136 177t219 62q155 0 245 -88t90 -239v-748q0 -120 10 -208t33.5 -157.5t66 -105t103.5 -35.5q86 0 145 71.5t87 203.5l170 -172q-146 -146 -404 -146
q-132 0 -230 39t-158 112t-89 172.5t-29 225.5v702q0 121 -42 192t-125 71q-103 0 -165.5 -106.5t-62.5 -270.5v-471q0 -33 20.5 -53.5t53.5 -20.5z" />
    <glyph glyph-name="glyph211" unicode="&#xf023;" horiz-adv-x="1183" 
d="M133 63q98 0 152.5 120t54.5 339q0 222 -56 334.5t-157 112.5q-98 0 -164.5 -98t-66.5 -281v-127q0 -172 68.5 -286t168.5 -114zM-1016 -403l170 172q28 -132 87.5 -203.5t146.5 -71.5q61 0 103 35.5t66 105t34 158t10 207.5v854q0 32 -21 53t-53 21h-12v41l338 86h43
v-224q45 115 133.5 179.5t206.5 64.5q184 0 291.5 -150.5t107.5 -402.5q0 -248 -108.5 -395t-297.5 -147q-120 0 -205.5 61.5t-127.5 173.5v-215q0 -126 -29 -225.5t-89 -172.5t-158 -112t-230 -39q-260 0 -406 146z" />
    <glyph glyph-name="glyph212" unicode="&#xf024;" horiz-adv-x="1183" 
d="M377 522q0 -219 54.5 -339t152.5 -120q100 0 168.5 114t68.5 286v127q0 183 -66.5 281t-164.5 98q-101 0 -157 -112.5t-56 -334.5zM821 0v215q-43 -112 -128.5 -173.5t-205.5 -61.5q-189 0 -297 147t-108 395q0 252 107.5 402.5t291.5 150.5q117 0 205.5 -64.5
t134.5 -179.5v224h43l338 -86v-41h-12q-32 0 -53 -21t-21 -53v-854q0 -119 10 -207.5t34 -158t66 -105t103 -35.5q87 0 146.5 71.5t87.5 203.5l170 -172q-146 -146 -406 -146q-132 0 -230 39t-158 112t-89 172.5t-29 225.5z" />
    <glyph glyph-name="glyph213" unicode="&#xf025;" horiz-adv-x="1165" 
d="M737 928h-10v41l336 86h43v-1055q0 -120 10 -208t33.5 -157.5t66 -105t103.5 -35.5q86 0 144.5 71.5t86.5 203.5l170 -172q-146 -146 -403 -146q-132 0 -230 39t-158 112t-89 172.5t-29 225.5v219q-45 -115 -135.5 -177t-218.5 -62q-155 0 -245.5 87t-90.5 238v549
q0 33 -20.5 53.5t-53.5 20.5h-10v41l328 86h51v-703q0 -121 42.5 -192.5t125.5 -71.5q101 0 164 107t63 270v389q0 32 -21 53t-53 21z" />
    <glyph glyph-name="glyph214" unicode="&#xf026;" horiz-adv-x="1110" 
d="M395 944l275 -598l241 512q96 199 126 251q100 175 227 256q162 103 424 103q123 0 229.5 -18t148.5 -45l9 -289q-51 36 -189 71.5t-256 35.5q-59 0 -124 -9.5t-143.5 -34t-148.5 -61.5t-135.5 -98t-107.5 -137l-422 -883h-45l-430 944q-15 31 -43.5 49.5t-61.5 18.5h-10
v43h516v-43h-35q-34 0 -46 -18.5t1 -49.5z" />
    <glyph glyph-name="glyph215" unicode="&#xf027;" horiz-adv-x="1638" 
d="M387 942l215 -551l174 418l-51 133q-14 32 -41 51t-61 19h-11v43h510v-43h-35q-34 0 -46.5 -19t-0.5 -51l215 -551l230 553q31 70 57 121t63.5 109.5t77 98.5t94.5 79.5t118.5 63t147 38t181.5 14.5q124 0 231.5 -18t149.5 -45l8 -289q-51 36 -188.5 71.5t-255.5 35.5
q-62 0 -131 -10t-152.5 -36.5t-155.5 -66t-136 -105t-99 -147.5l-356 -858h-45l-295 752l-314 -752h-45l-368 942q-13 32 -41 51t-62 19h-10v43h510v-43h-35q-34 0 -46.5 -19t-0.5 -51z" />
    <glyph glyph-name="glyph216" unicode="&#xf028;" horiz-adv-x="2242" 
d="M1489 1087l-268 -647h526zM1204 399l-33 -73q-143 -346 -479 -346q-136 0 -252.5 54.5t-198.5 153t-128.5 240.5t-46.5 311q0 343 178.5 550.5t474.5 207.5t479 -211l-156 -180q-42 165 -124 256.5t-195 91.5q-167 0 -265 -196t-98 -521q0 -216 44.5 -376.5t134.5 -250.5
t217 -90q118 0 215 78.5t159 227.5l478 1149h43l547 -1364q12 -31 39 -49.5t61 -18.5h10v-43h-506v43h33q32 0 44.5 18.5t0.5 49.5l-115 288h-561z" />
    <glyph glyph-name="glyph217" unicode="&#xf029;" horiz-adv-x="2473" 
d="M1855 63q-153 0 -278 42.5t-219 126t-145.5 216.5t-51.5 306q0 219 80.5 388t229.5 262t344 93q197 0 347.5 -95.5t231 -264t80.5 -383.5q0 -219 -87.5 -403t-244.5 -312t-381 -199t-489 -71q-208 0 -392.5 43.5t-333 128t-256 202.5t-166 275t-58.5 338
q0 218 80.5 386.5t229 261.5t343.5 93q296 0 479 -211l-156 -180q-42 165 -124 256.5t-195 91.5q-110 0 -193.5 -87t-126.5 -236.5t-43 -337.5q0 -232 69 -418t194 -309.5t299.5 -189.5t386.5 -66q422 0 646 251.5t224 706.5q0 200 -42.5 354.5t-125 243t-192.5 88.5
q-167 0 -265 -196t-98 -521q0 -328 102 -488.5t287 -142.5z" />
    <glyph glyph-name="glyph218" unicode="&#xf02a;" horiz-adv-x="2105" 
d="M23 1116h-43v359h1304v-41h-10q-33 0 -53.5 -20.5t-20.5 -53.5v-600h486v600q0 32 -21 53t-53 21h-13v41h465v-41h-10q-33 0 -53.5 -20.5t-20.5 -53.5v-1243q0 -34 20 -54t54 -20h10v-43h-465v43h13q33 0 53.5 20.5t20.5 53.5v600h-486v-600q0 -34 20 -54t54 -20h10v-43
h-463v43h10q33 0 53.5 20.5t20.5 53.5v1243q0 32 -21 53t-53 21h-40q-32 0 -53 -21t-21 -53v-1243q0 -33 20.5 -53.5t53.5 -20.5h10v-43h-463v43h10q34 0 54 20t20 54v1243q0 33 -20.5 53.5t-53.5 20.5h-115z" />
    <glyph glyph-name="glyph219" unicode="&#xf02b;" horiz-adv-x="2007" 
d="M23 1116h-43v359h1239v-639q45 115 135.5 177t218.5 62q155 0 245.5 -88t90.5 -239v-631q0 -34 19.5 -54t53.5 -20h11v-43h-465v43h12q33 0 53.5 20.5t20.5 53.5v585q0 120 -42.5 191.5t-125.5 71.5q-103 0 -165 -106.5t-62 -270.5v-471q0 -33 20.5 -53.5t52.5 -20.5h11
v-43h-463v43h10q34 0 54 20t20 54v1243q0 33 -20.5 53.5t-53.5 20.5h-59q-32 0 -53 -21t-21 -53v-1243q0 -33 20.5 -53.5t53.5 -20.5h10v-43h-463v43h10q34 0 54 20t20 54v1243q0 33 -20.5 53.5t-53.5 20.5h-115z" />
    <glyph glyph-name="glyph220" unicode="&#xf02c;" horiz-adv-x="1980" 
d="M1937 0h-1075v43h10q34 0 54 20t20 54v1243h297v-600h209l107 104h40v-254h-40l-107 107h-209v-600q0 -34 20 -54t54 -20h369l210 315h41v-358zM23 1116h-43v359h1937v-359h-43l-211 318h-872q-32 0 -53 -21t-21 -53v-1243q0 -33 20.5 -53.5t53.5 -20.5h10v-43h-463v43
h10q34 0 54 20t20 54v1243q0 33 -20.5 53.5t-53.5 20.5h-115z" />
    <glyph glyph-name="glyph221" unicode="&#xf02d;" horiz-adv-x="2633" 
d="M1614 504h477l-233 583zM956 43h11v-43h-463v43h10q34 0 54 20t20 54v1243q0 33 -19.5 53.5t-52.5 20.5q-188 -1 -312 -102t-124 -251q0 -148 122 -267.5t310 -166.5l-180 -155q-135 84 -225.5 217t-90.5 295q0 69 17 134t55 126t93.5 107t138.5 74t184 30h463v-41h-11
q-33 0 -53 -20.5t-20 -53.5v-586l563 600q23 26 13 43t-44 17h-31v41h244v-41h-10q-64 0 -117 -60l-514 -547q82 18 164.5 -11t154 -94t141.5 -155t132.5 -193.5t122.5 -208.5t116.5 -201.5t108 -171.5t103.5 -120t98 -45q116 0 211 258l174 -84q-55 -97 -159.5 -157
t-252.5 -60q-118 0 -221.5 41t-181 110t-145.5 159t-121.5 189t-101.5 198.5t-93 189.5t-89 159t-96 110.5t-108 41.5l-61 -65v-600q0 -34 19.5 -54t53.5 -20zM2249 111l-142 350h-553l422 1014h43l545 -1364q14 -31 41.5 -49.5t60.5 -18.5h11v-43h-506v43h31
q34 0 46.5 18.5t0.5 49.5z" />
    <glyph glyph-name="glyph222" unicode="&#xf02e;" horiz-adv-x="2639" 
d="M1620 504h477l-233 583zM883 653h98q175 0 281 107.5t106 288.5q0 173 -106 279t-281 106h-25q-33 0 -53 -20.5t-20 -53.5v-707zM2255 111l-141 350h-553l421 1014h43l545 -1364q14 -31 41.5 -49.5t61.5 -18.5h10v-43h-506v43h31q34 0 46.5 18.5t0.5 49.5zM1235 610h-49
q84 -38 169.5 -113t156 -163.5t140 -188t131.5 -190.5t119 -165t114 -118.5t106 -44.5q122 0 217 258l174 -84q-56 -97 -162 -157t-262 -60q-113 0 -213 33.5t-175.5 90.5t-141.5 131t-118 157t-99.5 166t-91 160.5t-85.5 138.5t-91.5 101t-102.5 48h-88v-493
q0 -34 19.5 -54t53.5 -20h11v-43h-463v43h10q34 0 54 20t20 54v1243q0 33 -19.5 53.5t-52.5 20.5q-188 -1 -312 -102t-124 -251q0 -148 122 -267.5t310 -166.5l-180 -155q-135 84 -225.5 217t-90.5 295q0 69 17 134t55 126t93.5 107t138.5 74t184 30h731q193 0 310.5 -119
t117.5 -318q0 -192 -118 -310t-310 -118z" />
    <glyph glyph-name="glyph223" unicode="&#xf02f;" horiz-adv-x="1796" 
d="M852 295l170 -170q-142 -145 -404 -145q-263 0 -405.5 147.5t-142.5 398.5q0 253 142.5 401t405.5 148q124 0 220 -35q-103 131 -103 248q0 121 98 198t257 77q163 0 256.5 -87.5t93.5 -263.5v-157h221v-43h-221v-486v-88t1 -80.5t2.5 -75t4.5 -65t7.5 -58.5t10 -48
t14 -39.5t18.5 -27.5t23 -18.5t29 -5.5q25 0 41.5 13t30.5 51t21 67.5t21 99.5q6 29 9 44l172 -170q-78 -78 -144 -111.5t-173 -33.5q-204 0 -293.5 125t-89.5 380v527h-84v43h84v51q0 135 -50 211t-126 76q-57 0 -92 -41.5t-35 -106.5q0 -43 17 -89t43 -84t50 -66.5
t46.5 -51.5t23.5 -24l-170 -170q-28 130 -86.5 201t-144.5 71q-124 0 -190 -136t-66 -370q0 -233 66.5 -369.5t189.5 -136.5q86 0 144.5 72t86.5 203z" />
    <glyph glyph-name="glyph224" unicode="&#xf030;" horiz-adv-x="2291" 
d="M725 485v41q0 72 -2 107q-179 -5 -279 -89.5t-100 -244.5q0 -105 41 -167t104 -62q62 0 117 61t87 156.5t32 197.5zM1020 117q2 -27 3 -71.5t2 -78.5t3.5 -75.5t9 -71t16.5 -56t27.5 -40t40.5 -13.5q19 0 35 10t26.5 30.5t19 42.5t13 57.5t7.5 62.5t4 69.5t1.5 67
t0.5 66.5v1159q0 33 -20.5 53.5t-53.5 20.5h-10v41l338 84h41v-639q45 115 135.5 177t218.5 62q155 0 245.5 -88t90.5 -239v-631q0 -34 20 -54t54 -20h10v-43h-463v43h10q34 0 54 20t20 54v585q0 120 -42 191.5t-124 71.5q-103 0 -166 -106.5t-63 -270.5v-471
q0 -241 -92.5 -345t-301.5 -104q-80 0 -143.5 15t-105.5 38t-72 60.5t-46 73t-25 85.5t-11 87.5t-2 89.5v139q-47 -126 -144.5 -201t-228.5 -75q-133 0 -218 78.5t-85 201.5q0 120 89 214t241.5 145.5t341.5 54.5q-23 358 -209 358q-86 0 -144.5 -71t-86.5 -201l-170 170
q145 145 403 145q132 0 230 -39t158 -112t89 -172.5t29 -225.5v-409z" />
    <glyph glyph-name="glyph225" unicode="&#xf031;" horiz-adv-x="2154" 
d="M725 485v41q0 72 -2 107q-179 -5 -279 -89.5t-100 -244.5q0 -105 41 -167t104 -62q62 0 117 61t87 156.5t32 197.5zM1405 643q0 -178 62.5 -295t160.5 -117t159.5 115.5t61.5 294.5q0 177 -60.5 284t-160.5 107q-101 0 -162 -108t-61 -281zM1020 117q0 -262 128 -390
t388 -128q157 0 253.5 43t96.5 116q0 45 -41.5 64t-107.5 18.5t-145.5 -7.5t-159.5 -9t-146 8t-107.5 49t-41.5 109q0 183 288 227q-148 46 -231.5 155t-83.5 261q0 196 142.5 319t371.5 123q45 0 94 16t94 46t79.5 79.5t47.5 110.5l172 -170q-80 -80 -286 -108
q148 -45 233.5 -154t85.5 -260q0 -195 -139.5 -317.5t-364.5 -127.5q-235 0 -235 -53q0 -22 55.5 -27t138.5 1t180.5 3t180.5 -17t138.5 -63t55.5 -130q0 -104 -84.5 -183t-234.5 -121t-344 -42q-364 0 -565 148t-201 411v139q-47 -126 -144.5 -201t-228.5 -75
q-133 0 -218 78.5t-85 201.5q0 120 89 214t241.5 145.5t341.5 54.5q-23 358 -209 358q-86 0 -144.5 -71t-86.5 -201l-170 170q145 145 403 145q132 0 230 -39t158 -112t89 -172.5t29 -225.5v-409z" />
    <glyph glyph-name="glyph226" unicode="&#xf032;" horiz-adv-x="2770" 
d="M725 485v41q0 72 -2 107q-179 -5 -279 -89.5t-100 -244.5q0 -105 41 -167t104 -62q62 0 117 61t87 156.5t32 197.5zM1020 117q2 -27 3 -71.5t2 -78.5t3.5 -75.5t9 -71t16.5 -56t27.5 -40t40.5 -13.5q19 0 35 10t26.5 30.5t19 42.5t13 57.5t7.5 62.5t4 69.5t1.5 67
t0.5 66.5v737q0 33 -20.5 53.5t-53.5 20.5h-10v41l338 86h41v-215q43 111 124.5 173t186.5 62q111 0 179.5 -67.5t86.5 -184.5q41 120 125 186t193 66q128 0 201 -90t73 -237v-631q0 -34 20 -54t54 -20h10v-43h-465v43h12q33 0 53.5 20.5t20.5 53.5v585q0 119 -29.5 191
t-82.5 72q-68 0 -122.5 -110t-54.5 -267v-471q0 -34 20 -54t54 -20h10v-43h-464v43h10q34 0 53.5 20t19.5 54v585q0 120 -28.5 191.5t-81.5 71.5q-68 0 -123 -110.5t-55 -266.5v-471q0 -241 -92.5 -345t-301.5 -104q-80 0 -143.5 15t-105.5 38t-72 60.5t-46 73t-25 85.5
t-11 87.5t-2 89.5v139q-47 -126 -144.5 -201t-228.5 -75q-133 0 -218 78.5t-85 201.5q0 120 89 214t241.5 145.5t341.5 54.5q-23 358 -209 358q-86 0 -144.5 -71t-86.5 -201l-170 170q145 145 403 145q132 0 230 -39t158 -112t89 -172.5t29 -225.5v-409z" />
    <glyph glyph-name="glyph227" unicode="&#xf033;" horiz-adv-x="2291" 
d="M725 485v41q0 72 -2 107q-179 -5 -279 -89.5t-100 -244.5q0 -105 41 -167t104 -62q62 0 117 61t87 156.5t32 197.5zM1020 117q2 -27 3 -71.5t2 -78.5t3.5 -75.5t9 -71t16.5 -56t27.5 -40t40.5 -13.5q19 0 35 10t26.5 30.5t19 42.5t13 57.5t7.5 62.5t4 69.5t1.5 67
t0.5 66.5v737q0 33 -20.5 53.5t-53.5 20.5h-10v41l338 86h41v-219q45 115 135.5 177t218.5 62q155 0 245.5 -88t90.5 -239v-631q0 -34 20 -54t54 -20h10v-43h-463v43h10q34 0 54 20t20 54v585q0 120 -42 191.5t-124 71.5q-103 0 -166 -106.5t-63 -270.5v-471
q0 -241 -92.5 -345t-301.5 -104q-80 0 -143.5 15t-105.5 38t-72 60.5t-46 73t-25 85.5t-11 87.5t-2 89.5v139q-47 -126 -144.5 -201t-228.5 -75q-133 0 -218 78.5t-85 201.5q0 120 89 214t241.5 145.5t341.5 54.5q-23 358 -209 358q-86 0 -144.5 -71t-86.5 -201l-170 170
q145 145 403 145q132 0 230 -39t158 -112t89 -172.5t29 -225.5v-409z" />
    <glyph glyph-name="glyph228" unicode="&#xf034;" horiz-adv-x="1474" 
d="M1325 295l170 -170q-142 -145 -405 -145t-405 147.5t-142 398.5q0 253 142 401t405 148q260 0 405 -145l-170 -170q-28 131 -87 201.5t-146 70.5q-122 0 -188 -136t-66 -370q0 -232 66 -369t188 -137q87 0 145.5 72t87.5 203zM510 43h10v-43h-463v43h11q34 0 53.5 20
t19.5 54v737q0 33 -20 53.5t-53 20.5h-11v41l338 86h41v-244q34 135 92 250t140 208t194.5 146t243.5 53q65 0 134 -11t155.5 -45.5t148.5 -88.5l-168 -233q-136 133 -348 133q-186 0 -322 -104t-203 -278t-67 -395v-329q0 -33 20.5 -53.5t53.5 -20.5z" />
    <glyph glyph-name="glyph229" unicode="&#xf035;" horiz-adv-x="1472" 
d="M1282 760q-28 130 -86 201t-141 71q-73 0 -113.5 -49t-40.5 -106q0 -45 31.5 -85t82 -71.5t111.5 -63t122 -67.5t111.5 -76t82 -97t31.5 -124q0 -143 -132 -228t-348 -85q-268 0 -413 145l172 170q57 -275 247 -275q85 0 140 47.5t55 118.5q0 50 -31.5 92t-82 72.5
t-111.5 60.5t-121.5 63.5t-111 72.5t-82 96t-31.5 127q0 142 118.5 223.5t311.5 81.5q254 0 399 -145zM436 446v-329q0 -33 20.5 -53.5t53.5 -20.5h10v-43h-463v43h11q34 0 53.5 20t19.5 54v737q0 33 -20 53.5t-53 20.5h-11v41l338 86h41v-244q34 135 92 250t140 208
t194.5 146t243.5 53q65 0 134 -11t155.5 -45.5t148.5 -88.5l-168 -233q-136 133 -348 133q-186 0 -322 -104t-203 -278t-67 -395z" />
    <glyph glyph-name="glyph230" unicode="&#xf036;" horiz-adv-x="1548" 
d="M852 526h399q0 235 -48 370.5t-138 135.5q-94 0 -153.5 -140.5t-59.5 -365.5zM1065 1075q228 0 354.5 -144t126.5 -405v-41h-694q6 -215 72 -340t184 -125q86 0 144.5 72t86.5 203l170 -170q-142 -145 -403 -145q-263 0 -406 147.5t-143 398.5q0 250 136 399.5t372 149.5
zM510 43h10v-43h-463v43h11q34 0 53.5 20t19.5 54v737q0 33 -20 53.5t-53 20.5h-11v41l338 86h41v-244q34 135 92 250t140 208t194.5 146t243.5 53q65 0 134 -11t155.5 -45.5t148.5 -88.5l-168 -233q-136 133 -348 133q-186 0 -322 -104t-203 -278t-67 -395v-329
q0 -33 20.5 -53.5t53.5 -20.5z" />
    <glyph glyph-name="glyph231" unicode="&#xf037;" horiz-adv-x="1665" 
d="M854 526q0 -233 66.5 -369.5t189.5 -136.5q121 0 186.5 137t65.5 369q0 233 -65.5 369.5t-186.5 136.5q-124 0 -190 -136t-66 -370zM559 526q0 253 143 401t408 148q263 0 405 -148t142 -401q0 -251 -142 -398.5t-405 -147.5q-265 0 -408 147.5t-143 398.5zM510 43h10
v-43h-463v43h11q34 0 53.5 20t19.5 54v737q0 33 -20 53.5t-53 20.5h-11v41l338 86h41v-244q34 135 92 250t140 208t194.5 146t243.5 53q65 0 134 -11t155.5 -45.5t148.5 -88.5l-168 -233q-136 133 -348 133q-186 0 -322 -104t-203 -278t-67 -395v-329q0 -33 20.5 -53.5
t53.5 -20.5z" />
    <glyph glyph-name="fi" unicode="&#xfb01;" horiz-adv-x="1001" 
d="M53 1012v43h88q38 442 391 442q106 0 202 -38t167 -107l-172 -172q-26 126 -77.5 200t-108.5 74q-65 0 -87 -96.5t-24 -302.5h490v-938q0 -34 19.5 -54t53.5 -20h11v-43h-463v43h10q34 0 54 20t20 54v821q0 34 -20 54t-54 20h-121v-895q0 -33 20.5 -53.5t53.5 -20.5h10
v-43h-463v43h10q34 0 54 20t20 54v831q0 10 1 32t1 32h-86z" />
    <glyph glyph-name="fl" unicode="&#xfb02;" horiz-adv-x="995" 
d="M53 1012v43h88q38 442 391 442q119 0 222 -47l118 25h43v-1358q0 -34 20 -54t54 -20h10v-43h-462v43h10q33 0 53.5 20.5t20.5 53.5v1300q-37 37 -78 37q-65 0 -87 -96.5t-24 -302.5h117v-43h-117v-895q0 -33 20.5 -53.5t53.5 -20.5h10v-43h-463v43h10q34 0 54 20t20 54
v831v17l2 32v15h-86z" />
    <glyph glyph-name="st.dlig" horiz-adv-x="1697" 
d="M735 760q-28 130 -86 201t-141 71q-73 0 -114.5 -49t-41.5 -106q0 -45 31.5 -85t82 -71.5t111.5 -63t122 -67.5t111.5 -76t82 -97t31.5 -124q0 -144 -131 -228.5t-347 -84.5q-271 0 -413 145l170 170q60 -275 250 -275q84 0 139 47.5t55 118.5q0 50 -31.5 92t-82 72.5
t-111 60.5t-121.5 63.5t-111.5 72.5t-82 96t-31.5 127q0 142 118.5 223.5t311.5 81.5q125 0 215 -33q-103 131 -103 246q0 121 98 198t257 77q163 0 256.5 -87.5t93.5 -263.5v-157h221v-43h-221v-486q0 -66 0.5 -109.5t2 -97t4.5 -87.5t8.5 -72t13.5 -60.5t19 -42.5
t26.5 -28.5t34.5 -8.5q25 0 42 13.5t31 52t21.5 69t21.5 101.5q5 26 8 39l170 -170q-76 -78 -142 -111.5t-173 -33.5q-204 0 -293.5 125t-89.5 380v527h-84v43h84v51q0 135 -50 211t-126 76q-57 0 -92 -41.5t-35 -106.5q0 -43 17 -89t43 -84t50 -66.5t46.5 -51.5t23.5 -24z
" />
    </font>
</defs>
</svg>
