<svg xmlns="http://www.w3.org/2000/svg" xmlns:xlink="http://www.w3.org/1999/xlink" width="500" zoomAndPan="magnify" viewBox="0 0 375 374.999991" height="500" preserveAspectRatio="xMidYMid meet" version="1.0"><defs><g/></defs><path fill="#000000" d="M 137.410156 354.835938 L 115.925781 346.445312 C 73.910156 325.519531 44.988281 293.898438 29.164062 251.574219 C 13.433594 209.023438 15.363281 165.355469 34.953125 120.574219 C 55.867188 78.535156 87.472656 49.597656 129.773438 33.761719 C 172.300781 18.023438 215.941406 19.953125 260.699219 39.554688 C 302.714844 60.480469 331.636719 92.101562 347.460938 134.425781 C 363.191406 176.976562 361.265625 220.644531 341.675781 265.425781 C 320.761719 307.464844 289.15625 336.402344 246.855469 352.238281 C 233.207031 357.28125 219.042969 360.515625 204.371094 361.941406 L 182.226562 362.59375 C 167.292969 362.082031 152.355469 359.492188 137.410156 354.835938 " fill-opacity="1" fill-rule="nonzero"/><path fill="#000000" d="M 33.058594 131.617188 L 31.894531 135.300781 C 29.15625 142.921875 26.992188 150.714844 25.402344 158.679688 C 24.871094 161.34375 24.40625 164.003906 24.011719 166.664062 L 23.464844 170.691406 C 23.136719 173.355469 22.871094 176.042969 22.671875 178.753906 L 22.6875 176.164062 C 22.925781 173.476562 23.234375 170.789062 23.605469 168.105469 L 24.214844 164.101562 C 24.65625 161.421875 25.160156 158.765625 25.730469 156.136719 C 26.304688 153.476562 26.9375 150.847656 27.636719 148.25 L 28.738281 144.335938 C 29.496094 141.761719 30.320312 139.195312 31.210938 136.640625 L 33.058594 131.617188 M 136.097656 349.980469 L 138.855469 349.332031 C 139.6875 348.925781 142.847656 348.84375 148.332031 349.085938 C 160.808594 351.828125 173.859375 353.21875 187.488281 353.261719 C 197.207031 353.34375 208.839844 352.03125 222.382812 349.320312 C 220.851562 350.367188 219.898438 351.28125 219.527344 352.058594 C 228.792969 349.957031 235.320312 348.171875 239.109375 346.710938 L 269.453125 330.921875 C 299.5625 304.023438 318.425781 282.160156 326.046875 265.335938 C 337.769531 240.714844 343.757812 217.066406 344.011719 194.390625 C 344.039062 182.671875 343.460938 173.597656 342.28125 167.171875 C 340.25 154.128906 336.816406 141.746094 331.972656 130.03125 C 331.148438 126.214844 331.316406 123.03125 332.480469 120.480469 C 330.164062 115.65625 327.617188 110.957031 324.835938 106.382812 L 313.5 92.949219 C 303.230469 81.804688 295.996094 74.464844 291.796875 70.933594 C 281.875 62.191406 271.042969 54.789062 259.296875 48.730469 C 254.453125 48.851562 251.550781 48.679688 250.597656 48.21875 L 226.085938 39.871094 C 214.839844 37.140625 205.996094 35.601562 199.546875 35.25 L 166.121094 37.476562 C 135.003906 41.75 107.609375 54.207031 83.929688 74.851562 L 101.769531 66.179688 L 116.1875 60.792969 C 115.320312 64.019531 113.734375 66.804688 111.441406 69.144531 C 95.085938 80.125 83.460938 90.871094 76.5625 101.382812 C 67.679688 112.300781 60.574219 124.28125 55.242188 137.320312 C 53.796875 140.523438 51.933594 146.035156 49.660156 153.855469 C 48.523438 162.730469 47.609375 166.839844 46.910156 166.179688 L 45.472656 176.558594 C 43.839844 192.960938 45.007812 209.148438 48.984375 225.121094 L 48.195312 225.515625 C 48.796875 228.644531 48.589844 231.742188 47.570312 234.8125 C 47.050781 237 46.371094 237.765625 45.535156 237.105469 C 38.8125 225.082031 34.054688 214.292969 31.265625 204.746094 C 30.675781 208.496094 29.695312 211.464844 28.328125 213.660156 C 27.195312 205.855469 26.648438 197.996094 26.679688 190.085938 C 26.746094 176.886719 28.414062 163.890625 31.691406 151.09375 C 36.316406 134.597656 41.753906 121.261719 47.996094 111.085938 L 45.03125 111.863281 L 47.160156 106.070312 C 64.171875 79.714844 84.257812 60.441406 107.429688 48.257812 C 101.164062 49.75 93.355469 52.761719 84.007812 57.292969 C 103.863281 42.074219 126.207031 31.757812 151.03125 26.34375 C 139.417969 28.695312 128.644531 32.105469 118.707031 36.574219 C 107.039062 41.300781 94.074219 49.226562 79.816406 60.347656 L 79.398438 59.902344 C 81.550781 58.144531 83.746094 56.4375 85.992188 54.785156 C 98.523438 45.953125 109.332031 39.703125 118.425781 36.03125 C 132.605469 30.171875 144.523438 26.46875 154.175781 24.921875 L 157.625 22.765625 C 141.070312 25.3125 125.164062 30.425781 109.910156 38.105469 C 86.960938 49.65625 67.550781 65.546875 51.683594 85.777344 C 34.703125 122.398438 26.605469 141.457031 27.394531 142.957031 L 22.207031 177.992188 C 21.574219 186.101562 21.542969 194.222656 22.117188 202.359375 C 24.40625 232.792969 34.28125 260.527344 51.734375 285.570312 C 61.410156 299.9375 76.132812 314.539062 95.90625 329.378906 C 96.773438 329.980469 97.988281 332.351562 99.550781 336.484375 L 93.113281 333.820312 L 95.296875 336.035156 C 105.785156 346.011719 117.828125 354.5625 131.433594 361.6875 C 126.695312 365.378906 118.40625 363.96875 106.554688 357.449219 C 88.855469 348.496094 74.929688 339.332031 64.777344 329.957031 C 21.601562 291.738281 0.742188 242.253906 2.191406 181.503906 C 3.402344 177.082031 5.242188 174.191406 7.707031 172.835938 C 6.460938 187.871094 6.507812 196.441406 7.851562 198.546875 C 7.566406 185.601562 8 175.433594 9.160156 168.046875 C 9.996094 181.207031 10.761719 188.035156 11.460938 188.535156 L 21.003906 136.769531 C 20.9375 135.601562 22.265625 131.648438 24.988281 124.910156 C 28.246094 116.9375 32.074219 109.238281 36.484375 101.8125 L 61.433594 64.875 C 73.074219 53.78125 83.335938 45.652344 92.21875 40.492188 C 119.195312 29.347656 137.335938 22.890625 146.640625 21.128906 C 156.425781 18.542969 169.203125 17.03125 184.972656 16.585938 C 190.210938 16.765625 194.527344 17.980469 197.914062 20.234375 C 210.53125 21.367188 220.25 22.886719 227.074219 24.800781 C 252.007812 31.015625 274.460938 42.257812 294.429688 58.527344 C 335.277344 92.074219 356.203125 137.792969 357.207031 195.679688 C 357.054688 220.214844 350.15625 245.835938 336.511719 272.53125 C 328.480469 288.023438 310.972656 306.597656 283.992188 328.253906 C 275.898438 333.792969 270.070312 337.414062 266.515625 339.117188 L 233.414062 350.84375 C 225.496094 353.183594 217.449219 354.925781 209.273438 356.070312 C 184.34375 359.472656 159.953125 357.441406 136.097656 349.980469 " fill-opacity="1" fill-rule="nonzero"/><path fill="#000000" d="M 211.625 22.957031 L 207.769531 22.953125 L 203.710938 22.839844 L 199.6875 22.824219 L 195.644531 22.90625 L 191.597656 23.089844 L 187.554688 23.371094 L 183.53125 23.753906 L 179.5 24.234375 L 175.5 24.808594 L 171.5 25.488281 L 167.535156 26.257812 L 163.566406 27.128906 L 165.125 26.574219 L 169.09375 25.742188 L 173.082031 25.007812 L 177.082031 24.371094 L 181.105469 23.832031 L 185.128906 23.394531 L 189.175781 23.050781 L 193.210938 22.8125 L 197.273438 22.667969 L 201.308594 22.625 L 205.347656 22.679688 L 209.410156 22.832031 L 211.625 22.957031 M 32.746094 188.390625 L 34.179688 190.824219 C 34.808594 191.496094 35.832031 194.480469 37.25 199.78125 C 38.382812 212.480469 40.953125 225.347656 44.957031 238.390625 C 47.566406 247.449219 52.464844 258.425781 59.648438 271.3125 L 55.996094 269.085938 C 57.371094 272.195312 60.839844 277.742188 66.40625 285.726562 L 84.539062 304.53125 C 89.351562 309.34375 92.296875 311.953125 93.371094 312.359375 C 124.796875 331.078125 150.164062 342.074219 169.476562 345.347656 C 195.160156 349.890625 220.777344 348.554688 246.328125 341.34375 C 252.644531 339.6875 261.109375 336.367188 271.71875 331.390625 C 283.539062 325.46875 294.277344 318.457031 303.941406 310.363281 C 307.316406 308.535156 310.398438 307.730469 313.183594 307.957031 C 317.085938 304.292969 320.800781 300.445312 324.324219 296.421875 L 333.765625 281.589844 L 344.855469 261.425781 L 349.824219 250.675781 C 355.132812 237.179688 358.46875 225.84375 359.828125 216.664062 L 357.933594 208 C 358.738281 193.871094 358.875 184.035156 358.335938 178.484375 C 357.847656 170.753906 356.800781 163.117188 355.195312 155.574219 C 347.851562 134.742188 343.371094 123.132812 341.75 120.742188 C 327.96875 92.5 307.625 70.285156 280.710938 54.089844 C 290.261719 62.625 298.230469 71.757812 304.605469 81.484375 C 301.289062 81.527344 298.183594 80.769531 295.292969 79.210938 C 286.238281 72.035156 277.890625 66.367188 270.246094 62.210938 L 250.664062 54.238281 C 237.441406 49.355469 223.800781 46.484375 209.734375 45.621094 C 199.953125 45.117188 191.117188 45.402344 183.21875 46.480469 C 178.585938 47.0625 173.992188 47.871094 169.441406 48.90625 C 157.304688 51.25 142.699219 57.082031 125.628906 66.40625 C 119.152344 68.191406 114.890625 68.601562 112.835938 67.644531 C 122.296875 57.738281 131.105469 49.957031 139.265625 44.308594 L 139.492188 43.457031 L 131.921875 43.546875 C 131.578125 43.03125 133.058594 42.132812 136.363281 40.855469 C 158.390625 31.257812 181.394531 26.746094 205.378906 27.328125 C 216.015625 27.65625 226.332031 28.917969 236.324219 31.117188 C 235.503906 30.214844 234.765625 29.257812 234.109375 28.238281 C 236.347656 28.554688 238.660156 28.785156 241.039062 28.929688 C 244.988281 29.769531 251.371094 31.792969 260.195312 35.003906 C 280.4375 42.855469 298.449219 54.25 314.222656 69.179688 C 311.207031 63.992188 306.09375 57.558594 298.886719 49.890625 C 318.269531 63.046875 335 81.460938 349.078125 105.128906 C 344.542969 96.476562 337.289062 86.363281 327.320312 74.789062 C 323.613281 70.664062 319.714844 66.730469 315.621094 62.988281 C 310.355469 58.015625 302.949219 52.230469 293.40625 45.636719 L 296.386719 47.0625 C 319.066406 62.296875 338.230469 83.480469 353.878906 110.617188 C 348.273438 97.523438 339.394531 84.390625 327.238281 71.21875 C 306.367188 49.820312 284.398438 35.097656 261.332031 27.058594 C 222.746094 21.789062 200.796875 19.78125 195.492188 21.035156 L 164.621094 26.355469 C 156.6875 28.140625 148.917969 30.503906 141.320312 33.433594 C 112.925781 44.550781 89.273438 62.078125 70.367188 86.015625 C 56.851562 103.914062 47.160156 122.542969 41.289062 141.902344 C 39.214844 145.632812 37.019531 147.761719 34.703125 148.285156 L 34.949219 142.601562 C 27.078125 158.867188 22.15625 174.085938 20.179688 188.253906 C 15.136719 183.570312 14.023438 174.726562 16.84375 161.730469 C 20.109375 142.179688 24.683594 126.15625 30.5625 113.667969 C 53.828125 61.195312 94.722656 26.179688 153.253906 8.621094 C 157.492188 8.1875 161.246094 8.890625 164.519531 10.726562 L 144.558594 16.449219 L 141.109375 18.265625 L 141.679688 18.378906 C 150.015625 15.464844 158.515625 13.175781 167.175781 11.515625 L 167.894531 11.664062 C 164.1875 12.875 158.308594 15.371094 150.265625 19.15625 L 151.988281 19.292969 L 204.230469 12.855469 C 205.433594 12.605469 209.648438 12.773438 216.875 13.355469 C 225.433594 14.128906 233.90625 15.527344 242.289062 17.550781 L 284.882812 30.421875 C 298.941406 38.257812 309.738281 45.640625 317.269531 52.5625 L 340.015625 80.855469 C 342.777344 84.175781 346.804688 90.097656 352.09375 98.625 C 359.546875 111.152344 365.1875 124.109375 369.015625 137.503906 C 369.65625 138.9375 369.550781 142.214844 368.699219 147.332031 C 371.183594 158.148438 372.71875 169.214844 373.304688 180.539062 C 374.410156 206.230469 370.046875 230.964844 360.21875 254.742188 C 339.886719 303.460938 302.261719 336.820312 247.34375 354.8125 C 219.636719 362.414062 191.769531 363.15625 163.746094 357.042969 C 160.992188 356.433594 158.261719 355.757812 155.558594 355.015625 L 137.792969 347.332031 C 118.472656 337.925781 104.433594 329.511719 95.675781 322.09375 C 91.289062 318.632812 87.125 315 83.179688 311.199219 C 81.59375 309.546875 80.566406 307.710938 80.09375 305.6875 C 73.710938 298.652344 69.300781 293.441406 66.867188 290.054688 C 60.214844 281.261719 54.484375 271.90625 49.664062 261.988281 C 38.757812 240.03125 33.121094 215.5 32.746094 188.390625 " fill-opacity="1" fill-rule="nonzero"/><g fill="#fd6155" fill-opacity="0.302"><g transform="translate(77.560099, 222.532163)"><g><path d="M 26.109375 -14.007812 L 44.597656 -67.667969 C 45.296875 -69.636719 45.351562 -71.167969 45.121094 -72.492188 C 44.582031 -75.605469 42.101562 -76.9375 39.457031 -76.476562 C 36.964844 -76.042969 34.214844 -73.882812 33.164062 -69.769531 C 25.105469 -45.589844 20.5 -31.957031 15.449219 -17.203125 C 14.636719 -14.976562 13.503906 -13.175781 12.347656 -13.375 C 11.945312 -13.386719 11.550781 -13.800781 11.402344 -14.65625 C 11.335938 -15.046875 11.332031 -15.527344 11.378906 -16.175781 L 13.976562 -62.980469 C 14.011719 -63.707031 13.96875 -64.421875 13.859375 -65.046875 C 13.101562 -69.402344 9.488281 -71.261719 6.296875 -70.707031 C 3.496094 -70.21875 1.097656 -67.875 0.945312 -63.679688 L -1.222656 -14.863281 C -1.320312 -13.5625 -1.191406 -12.382812 -1.015625 -11.371094 C 0.257812 -4.054688 7.628906 -1.328125 14.011719 -2.4375 C 18.523438 -3.226562 23.386719 -6.15625 26.109375 -14.007812 Z M 26.109375 -14.007812 "/></g></g></g><g fill="#fd6155" fill-opacity="0.302"><g transform="translate(120.602783, 215.039878)"><g><path d="M 44.222656 -34.804688 C 42.042969 -34.425781 39.863281 -32.679688 39.441406 -29.5625 C 38.074219 -19.457031 33.726562 -15.414062 30.222656 -14.804688 C 28.898438 -14.574219 28 -15.140625 27.78125 -16.382812 C 27.675781 -17.007812 27.695312 -17.8125 27.777344 -18.710938 L 32.105469 -45.445312 C 32.253906 -46.433594 32.261719 -47.316406 32.125 -48.097656 C 31.53125 -51.519531 28.417969 -52.824219 25.535156 -52.320312 C 23.359375 -51.941406 21.277344 -50.539062 20.371094 -48.375 C 18.558594 -49.101562 15.320312 -49.742188 11.351562 -49.050781 C 6.214844 -48.15625 1.097656 -44.378906 0.0390625 -38.019531 L -3.632812 -15.808594 C -3.855469 -14.324219 -3.925781 -12.871094 -3.679688 -11.46875 C -2.554688 -5.007812 3.582031 -0.625 10.429688 -1.816406 C 14.089844 -2.453125 17.539062 -4.738281 19.972656 -7.808594 C 23.085938 -4.660156 28.722656 -5 31.058594 -5.40625 C 37.515625 -6.53125 45.589844 -11.304688 48.375 -24.78125 C 48.9375 -28.003906 49.453125 -30.101562 49.210938 -31.5 C 48.75 -34.148438 46.480469 -35.195312 44.222656 -34.804688 Z M 18.402344 -31.109375 L 16.683594 -18.863281 C 15.929688 -13.519531 13.175781 -11.835938 11.542969 -11.550781 C 9.828125 -11.253906 8.785156 -12.195312 8.472656 -13.984375 C 8.296875 -14.996094 8.367188 -15.972656 8.480469 -16.714844 L 10.738281 -33.226562 C 11.390625 -38.230469 13.460938 -39.234375 14.707031 -39.449219 C 16.183594 -39.707031 18.078125 -38.511719 18.539062 -35.867188 C 18.742188 -34.699219 18.6875 -33.164062 18.402344 -31.109375 Z M 18.402344 -31.109375 "/></g></g></g><g fill="#fd6155" fill-opacity="0.302"><g transform="translate(161.466091, 207.926949)"><g><path d="M 39.53125 -29.976562 C 37.730469 -20.039062 34.113281 -15.480469 30.457031 -14.84375 C 29.054688 -14.601562 28.15625 -15.164062 27.925781 -16.488281 C 27.828125 -17.035156 27.878906 -17.683594 27.976562 -18.503906 L 31.039062 -36.839844 C 31.3125 -38.492188 31.378906 -39.945312 31.148438 -41.269531 C 30.066406 -47.496094 23.960938 -51.246094 17.734375 -50.160156 C 14.699219 -49.632812 12.40625 -48.511719 10.640625 -46.679688 C 9.929688 -48 7.847656 -48.441406 5.746094 -48.074219 C 3.566406 -47.695312 1.640625 -46.316406 1.242188 -44.003906 L -5.429688 -5.390625 C -5.539062 -4.648438 -5.511719 -4.011719 -5.402344 -3.390625 C -4.902344 -0.511719 -2.386719 0.574219 0.105469 0.140625 C 2.828125 -0.332031 5.644531 -2.585938 6.203125 -6.292969 C 7.613281 -14.316406 9.492188 -25.628906 10.839844 -33.5625 C 12.261719 -37.820312 14.660156 -40.164062 16.839844 -40.542969 C 18.242188 -40.785156 19.417969 -40.027344 19.675781 -38.550781 C 19.769531 -38.003906 19.734375 -37.277344 19.625 -36.535156 L 16.734375 -19.511719 C 16.421875 -17.613281 16.332031 -15.835938 16.613281 -14.199219 C 17.859375 -7.039062 24.441406 -4.253906 31.058594 -5.40625 C 38.996094 -6.789062 46.546875 -13.636719 49.273438 -29.75 C 49.398438 -30.410156 49.445312 -31.0625 49.351562 -31.605469 C 48.917969 -34.097656 46.429688 -35.027344 44.097656 -34.621094 C 41.992188 -34.253906 39.863281 -32.679688 39.53125 -29.976562 Z M 39.53125 -29.976562 "/></g></g></g><g fill="#fd6155" fill-opacity="0.302"><g transform="translate(202.329399, 200.814021)"><g><path d="M 5.628906 -64.414062 L -3.554688 -8.441406 C -3.742188 -7.207031 -3.71875 -6.167969 -3.542969 -5.15625 C -2.921875 -1.578125 0 0 2.800781 -0.488281 C 5.527344 -0.960938 7.988281 -3.394531 8.699219 -7.609375 L 17.882812 -63.582031 C 18.070312 -64.816406 18.050781 -65.855469 17.871094 -66.867188 C 17.25 -70.445312 14.328125 -72.023438 11.527344 -71.535156 C 8.800781 -71.0625 6.089844 -68.664062 5.628906 -64.414062 Z M 5.628906 -64.414062 "/></g></g></g><g fill="#fd6155" fill-opacity="0.302"><g transform="translate(222.722135, 197.264331)"><g><path d="M 37.496094 -29.222656 C 36.429688 -24.304688 34.257812 -20.640625 31.046875 -17.914062 C 31.023438 -18.953125 31.019531 -19.914062 30.839844 -20.925781 C 30.054688 -25.441406 26.898438 -29.300781 24.082031 -32.582031 C 22.0625 -34.957031 20.046875 -37.332031 19.316406 -39.691406 C 21.332031 -41.003906 22.609375 -43.792969 22.203125 -46.128906 C 21.621094 -49.476562 18.511719 -52.140625 14.621094 -51.464844 C 11.660156 -50.949219 8.960938 -48.957031 8.011719 -45.664062 C 6.003906 -39.21875 3.777344 -32.65625 1.679688 -26.277344 C -3.304688 -24.046875 -4.84375 -17.683594 -3.976562 -12.699219 C -2.648438 -5.074219 6.011719 -0.484375 19.789062 -2.882812 C 33.332031 -5.242188 44.578125 -12.492188 47.292969 -29.164062 C 47.394531 -29.5 47.324219 -29.890625 47.269531 -30.203125 C 46.878906 -32.460938 44.023438 -33.648438 41.535156 -33.214844 C 39.664062 -32.886719 37.960938 -31.628906 37.496094 -29.222656 Z M 12.457031 -27.027344 L 12.898438 -28.628906 C 15.722656 -26.234375 18.242188 -22.824219 18.878906 -19.164062 C 19.515625 -15.507812 18.097656 -12.132812 14 -11.257812 C 11.351562 -10.796875 8.8125 -11.558594 7.605469 -13.433594 C 8.253906 -13.386719 8.878906 -13.496094 9.421875 -13.589844 C 13.9375 -14.375 15.921875 -18.648438 15.257812 -22.464844 C 14.945312 -24.253906 14.011719 -25.9375 12.457031 -27.027344 Z M 12.457031 -27.027344 "/></g></g></g><g fill="#fd6155" fill-opacity="0.302"><g transform="translate(261.56174, 190.503661)"><g><path d="M 8.457031 -14.542969 L 16.5625 -64.714844 C 16.710938 -65.703125 16.707031 -66.664062 16.570312 -67.441406 C 16.054688 -70.398438 12.914062 -71.859375 10.578125 -71.449219 C 7.621094 -70.9375 5.960938 -68.964844 5.324219 -65.242188 L -2.816406 -16.191406 C -3.128906 -14.292969 -3.15625 -12.601562 -2.871094 -10.96875 C -1.625 -3.808594 4.980469 -0.867188 11.832031 -2.058594 C 19.226562 -3.347656 27.6875 -9.550781 30.320312 -26.691406 C 30.378906 -27.261719 30.363281 -27.820312 30.28125 -28.289062 C 29.847656 -30.777344 27.355469 -32.1875 24.945312 -31.769531 C 23 -31.429688 21.101562 -29.898438 20.511719 -26.828125 C 18.636719 -16.875 14.8125 -12.121094 11.152344 -11.484375 C 9.597656 -11.214844 8.578125 -12 8.375 -13.167969 C 8.320312 -13.476562 8.378906 -14.050781 8.457031 -14.542969 Z M 8.457031 -14.542969 "/></g></g></g><g fill="#fd6155" fill-opacity="0.302"><g transform="translate(283.277674, 186.723647)"><g><path d="M 35.566406 -28.804688 C 33.710938 -19.179688 26.175781 -14.097656 19.558594 -12.949219 C 13.878906 -11.957031 9.824219 -14.058594 9.199219 -17.640625 C 9.078125 -18.339844 9.035156 -19.054688 9.210938 -19.886719 L 9.574219 -21.476562 C 12.074219 -20.464844 15.039062 -20.019531 18.152344 -20.5625 C 25.238281 -21.796875 30.691406 -27.316406 31.574219 -34.6875 C 31.707031 -36.234375 31.679688 -37.753906 31.453125 -39.078125 C 30.164062 -46.472656 23.335938 -51.136719 14.542969 -49.605469 C 7.613281 -48.398438 1.546875 -43.171875 0.175781 -34.914062 L -2.097656 -20.804688 C -2.394531 -18.828125 -2.460938 -16.894531 -2.148438 -15.105469 C -0.535156 -5.839844 9.183594 -1.597656 20.550781 -3.578125 C 31.367188 -5.460938 42.746094 -12.894531 45.292969 -28.65625 C 45.417969 -29.316406 45.402344 -29.875 45.320312 -30.34375 C 44.902344 -32.757812 42.492188 -33.699219 40.15625 -33.292969 C 37.976562 -32.914062 35.84375 -31.339844 35.566406 -28.804688 Z M 15.90625 -40.378906 C 18.085938 -40.761719 19.800781 -39.214844 20.191406 -36.957031 C 20.300781 -36.332031 20.332031 -35.699219 20.207031 -35.035156 C 19.875 -32.328125 17.703125 -30.988281 15.367188 -30.582031 C 13.886719 -30.324219 12.355469 -30.378906 11.15625 -30.8125 L 11.976562 -35.765625 C 12.414062 -38.328125 14.117188 -40.070312 15.90625 -40.378906 Z M 15.90625 -40.378906 "/></g></g></g><g fill="#fd6155" fill-opacity="0.502"><g transform="translate(73.868333, 218.413917)"><g><path d="M 26.109375 -14.007812 L 44.597656 -67.667969 C 45.296875 -69.636719 45.351562 -71.167969 45.121094 -72.492188 C 44.582031 -75.605469 42.101562 -76.9375 39.457031 -76.476562 C 36.964844 -76.042969 34.214844 -73.882812 33.164062 -69.769531 C 25.105469 -45.589844 20.5 -31.957031 15.449219 -17.203125 C 14.636719 -14.976562 13.503906 -13.175781 12.347656 -13.375 C 11.945312 -13.386719 11.550781 -13.800781 11.402344 -14.65625 C 11.335938 -15.046875 11.332031 -15.527344 11.378906 -16.175781 L 13.976562 -62.980469 C 14.011719 -63.707031 13.96875 -64.421875 13.859375 -65.046875 C 13.101562 -69.402344 9.488281 -71.261719 6.296875 -70.707031 C 3.496094 -70.21875 1.097656 -67.875 0.945312 -63.679688 L -1.222656 -14.863281 C -1.320312 -13.5625 -1.191406 -12.382812 -1.015625 -11.371094 C 0.257812 -4.054688 7.628906 -1.328125 14.011719 -2.4375 C 18.523438 -3.226562 23.386719 -6.15625 26.109375 -14.007812 Z M 26.109375 -14.007812 "/></g></g></g><g fill="#fd6155" fill-opacity="0.502"><g transform="translate(116.911017, 210.921632)"><g><path d="M 44.222656 -34.804688 C 42.042969 -34.425781 39.863281 -32.679688 39.441406 -29.5625 C 38.074219 -19.457031 33.726562 -15.414062 30.222656 -14.804688 C 28.898438 -14.574219 28 -15.140625 27.78125 -16.382812 C 27.675781 -17.007812 27.695312 -17.8125 27.777344 -18.710938 L 32.105469 -45.445312 C 32.253906 -46.433594 32.261719 -47.316406 32.125 -48.097656 C 31.53125 -51.519531 28.417969 -52.824219 25.535156 -52.320312 C 23.359375 -51.941406 21.277344 -50.539062 20.371094 -48.375 C 18.558594 -49.101562 15.320312 -49.742188 11.351562 -49.050781 C 6.214844 -48.15625 1.097656 -44.378906 0.0390625 -38.019531 L -3.632812 -15.808594 C -3.855469 -14.324219 -3.925781 -12.871094 -3.679688 -11.46875 C -2.554688 -5.007812 3.582031 -0.625 10.429688 -1.816406 C 14.089844 -2.453125 17.539062 -4.738281 19.972656 -7.808594 C 23.085938 -4.660156 28.722656 -5 31.058594 -5.40625 C 37.515625 -6.53125 45.589844 -11.304688 48.375 -24.78125 C 48.9375 -28.003906 49.453125 -30.101562 49.210938 -31.5 C 48.75 -34.148438 46.480469 -35.195312 44.222656 -34.804688 Z M 18.402344 -31.109375 L 16.683594 -18.863281 C 15.929688 -13.519531 13.175781 -11.835938 11.542969 -11.550781 C 9.828125 -11.253906 8.785156 -12.195312 8.472656 -13.984375 C 8.296875 -14.996094 8.367188 -15.972656 8.480469 -16.714844 L 10.738281 -33.226562 C 11.390625 -38.230469 13.460938 -39.234375 14.707031 -39.449219 C 16.183594 -39.707031 18.078125 -38.511719 18.539062 -35.867188 C 18.742188 -34.699219 18.6875 -33.164062 18.402344 -31.109375 Z M 18.402344 -31.109375 "/></g></g></g><g fill="#fd6155" fill-opacity="0.502"><g transform="translate(157.774325, 203.808703)"><g><path d="M 39.53125 -29.976562 C 37.730469 -20.039062 34.113281 -15.480469 30.457031 -14.84375 C 29.054688 -14.601562 28.15625 -15.164062 27.925781 -16.488281 C 27.828125 -17.035156 27.878906 -17.683594 27.976562 -18.503906 L 31.039062 -36.839844 C 31.3125 -38.492188 31.378906 -39.945312 31.148438 -41.269531 C 30.066406 -47.496094 23.960938 -51.246094 17.734375 -50.160156 C 14.699219 -49.632812 12.40625 -48.511719 10.640625 -46.679688 C 9.929688 -48 7.847656 -48.441406 5.746094 -48.074219 C 3.566406 -47.695312 1.640625 -46.316406 1.242188 -44.003906 L -5.429688 -5.390625 C -5.539062 -4.648438 -5.511719 -4.011719 -5.402344 -3.390625 C -4.902344 -0.511719 -2.386719 0.574219 0.105469 0.140625 C 2.828125 -0.332031 5.644531 -2.585938 6.203125 -6.292969 C 7.613281 -14.316406 9.492188 -25.628906 10.839844 -33.5625 C 12.261719 -37.820312 14.660156 -40.164062 16.839844 -40.542969 C 18.242188 -40.785156 19.417969 -40.027344 19.675781 -38.550781 C 19.769531 -38.003906 19.734375 -37.277344 19.625 -36.535156 L 16.734375 -19.511719 C 16.421875 -17.613281 16.332031 -15.835938 16.613281 -14.199219 C 17.859375 -7.039062 24.441406 -4.253906 31.058594 -5.40625 C 38.996094 -6.789062 46.546875 -13.636719 49.273438 -29.75 C 49.398438 -30.410156 49.445312 -31.0625 49.351562 -31.605469 C 48.917969 -34.097656 46.429688 -35.027344 44.097656 -34.621094 C 41.992188 -34.253906 39.863281 -32.679688 39.53125 -29.976562 Z M 39.53125 -29.976562 "/></g></g></g><g fill="#fd6155" fill-opacity="0.502"><g transform="translate(198.637633, 196.695775)"><g><path d="M 5.628906 -64.414062 L -3.554688 -8.441406 C -3.742188 -7.207031 -3.71875 -6.167969 -3.542969 -5.15625 C -2.921875 -1.578125 0 0 2.800781 -0.488281 C 5.527344 -0.960938 7.988281 -3.394531 8.699219 -7.609375 L 17.882812 -63.582031 C 18.070312 -64.816406 18.050781 -65.855469 17.871094 -66.867188 C 17.25 -70.445312 14.328125 -72.023438 11.527344 -71.535156 C 8.800781 -71.0625 6.089844 -68.664062 5.628906 -64.414062 Z M 5.628906 -64.414062 "/></g></g></g><g fill="#fd6155" fill-opacity="0.502"><g transform="translate(219.030369, 193.146085)"><g><path d="M 37.496094 -29.222656 C 36.429688 -24.304688 34.257812 -20.640625 31.046875 -17.914062 C 31.023438 -18.953125 31.019531 -19.914062 30.839844 -20.925781 C 30.054688 -25.441406 26.898438 -29.300781 24.082031 -32.582031 C 22.0625 -34.957031 20.046875 -37.332031 19.316406 -39.691406 C 21.332031 -41.003906 22.609375 -43.792969 22.203125 -46.128906 C 21.621094 -49.476562 18.511719 -52.140625 14.621094 -51.464844 C 11.660156 -50.949219 8.960938 -48.957031 8.011719 -45.664062 C 6.003906 -39.21875 3.777344 -32.65625 1.679688 -26.277344 C -3.304688 -24.046875 -4.84375 -17.683594 -3.976562 -12.699219 C -2.648438 -5.074219 6.011719 -0.484375 19.789062 -2.882812 C 33.332031 -5.242188 44.578125 -12.492188 47.292969 -29.164062 C 47.394531 -29.5 47.324219 -29.890625 47.269531 -30.203125 C 46.878906 -32.460938 44.023438 -33.648438 41.535156 -33.214844 C 39.664062 -32.886719 37.960938 -31.628906 37.496094 -29.222656 Z M 12.457031 -27.027344 L 12.898438 -28.628906 C 15.722656 -26.234375 18.242188 -22.824219 18.878906 -19.164062 C 19.515625 -15.507812 18.097656 -12.132812 14 -11.257812 C 11.351562 -10.796875 8.8125 -11.558594 7.605469 -13.433594 C 8.253906 -13.386719 8.878906 -13.496094 9.421875 -13.589844 C 13.9375 -14.375 15.921875 -18.648438 15.257812 -22.464844 C 14.945312 -24.253906 14.011719 -25.9375 12.457031 -27.027344 Z M 12.457031 -27.027344 "/></g></g></g><g fill="#fd6155" fill-opacity="0.502"><g transform="translate(257.869974, 186.385415)"><g><path d="M 8.457031 -14.542969 L 16.5625 -64.714844 C 16.710938 -65.703125 16.707031 -66.664062 16.570312 -67.441406 C 16.054688 -70.398438 12.914062 -71.859375 10.578125 -71.449219 C 7.621094 -70.9375 5.960938 -68.964844 5.324219 -65.242188 L -2.816406 -16.191406 C -3.128906 -14.292969 -3.15625 -12.601562 -2.871094 -10.96875 C -1.625 -3.808594 4.980469 -0.867188 11.832031 -2.058594 C 19.226562 -3.347656 27.6875 -9.550781 30.320312 -26.691406 C 30.378906 -27.261719 30.363281 -27.820312 30.28125 -28.289062 C 29.847656 -30.777344 27.355469 -32.1875 24.945312 -31.769531 C 23 -31.429688 21.101562 -29.898438 20.511719 -26.828125 C 18.636719 -16.875 14.8125 -12.121094 11.152344 -11.484375 C 9.597656 -11.214844 8.578125 -12 8.375 -13.167969 C 8.320312 -13.476562 8.378906 -14.050781 8.457031 -14.542969 Z M 8.457031 -14.542969 "/></g></g></g><g fill="#fd6155" fill-opacity="0.502"><g transform="translate(279.585908, 182.605401)"><g><path d="M 35.566406 -28.804688 C 33.710938 -19.179688 26.175781 -14.097656 19.558594 -12.949219 C 13.878906 -11.957031 9.824219 -14.058594 9.199219 -17.640625 C 9.078125 -18.339844 9.035156 -19.054688 9.210938 -19.886719 L 9.574219 -21.476562 C 12.074219 -20.464844 15.039062 -20.019531 18.152344 -20.5625 C 25.238281 -21.796875 30.691406 -27.316406 31.574219 -34.6875 C 31.707031 -36.234375 31.679688 -37.753906 31.453125 -39.078125 C 30.164062 -46.472656 23.335938 -51.136719 14.542969 -49.605469 C 7.613281 -48.398438 1.546875 -43.171875 0.175781 -34.914062 L -2.097656 -20.804688 C -2.394531 -18.828125 -2.460938 -16.894531 -2.148438 -15.105469 C -0.535156 -5.839844 9.183594 -1.597656 20.550781 -3.578125 C 31.367188 -5.460938 42.746094 -12.894531 45.292969 -28.65625 C 45.417969 -29.316406 45.402344 -29.875 45.320312 -30.34375 C 44.902344 -32.757812 42.492188 -33.699219 40.15625 -33.292969 C 37.976562 -32.914062 35.84375 -31.339844 35.566406 -28.804688 Z M 15.90625 -40.378906 C 18.085938 -40.761719 19.800781 -39.214844 20.191406 -36.957031 C 20.300781 -36.332031 20.332031 -35.699219 20.207031 -35.035156 C 19.875 -32.328125 17.703125 -30.988281 15.367188 -30.582031 C 13.886719 -30.324219 12.355469 -30.378906 11.15625 -30.8125 L 11.976562 -35.765625 C 12.414062 -38.328125 14.117188 -40.070312 15.90625 -40.378906 Z M 15.90625 -40.378906 "/></g></g></g><g fill="#f6f3e4" fill-opacity="1"><g transform="translate(70.176572, 214.29567)"><g><path d="M 26.109375 -14.007812 L 44.597656 -67.667969 C 45.296875 -69.636719 45.351562 -71.167969 45.121094 -72.492188 C 44.582031 -75.605469 42.101562 -76.9375 39.457031 -76.476562 C 36.964844 -76.042969 34.214844 -73.882812 33.164062 -69.769531 C 25.105469 -45.589844 20.5 -31.957031 15.449219 -17.203125 C 14.636719 -14.976562 13.503906 -13.175781 12.347656 -13.375 C 11.945312 -13.386719 11.550781 -13.800781 11.402344 -14.65625 C 11.335938 -15.046875 11.332031 -15.527344 11.378906 -16.175781 L 13.976562 -62.980469 C 14.011719 -63.707031 13.96875 -64.421875 13.859375 -65.046875 C 13.101562 -69.402344 9.488281 -71.261719 6.296875 -70.707031 C 3.496094 -70.21875 1.097656 -67.875 0.945312 -63.679688 L -1.222656 -14.863281 C -1.320312 -13.5625 -1.191406 -12.382812 -1.015625 -11.371094 C 0.257812 -4.054688 7.628906 -1.328125 14.011719 -2.4375 C 18.523438 -3.226562 23.386719 -6.15625 26.109375 -14.007812 Z M 26.109375 -14.007812 "/></g></g></g><g fill="#f6f3e4" fill-opacity="1"><g transform="translate(113.219256, 206.803386)"><g><path d="M 44.222656 -34.804688 C 42.042969 -34.425781 39.863281 -32.679688 39.441406 -29.5625 C 38.074219 -19.457031 33.726562 -15.414062 30.222656 -14.804688 C 28.898438 -14.574219 28 -15.140625 27.78125 -16.382812 C 27.675781 -17.007812 27.695312 -17.8125 27.777344 -18.710938 L 32.105469 -45.445312 C 32.253906 -46.433594 32.261719 -47.316406 32.125 -48.097656 C 31.53125 -51.519531 28.417969 -52.824219 25.535156 -52.320312 C 23.359375 -51.941406 21.277344 -50.539062 20.371094 -48.375 C 18.558594 -49.101562 15.320312 -49.742188 11.351562 -49.050781 C 6.214844 -48.15625 1.097656 -44.378906 0.0390625 -38.019531 L -3.632812 -15.808594 C -3.855469 -14.324219 -3.925781 -12.871094 -3.679688 -11.46875 C -2.554688 -5.007812 3.582031 -0.625 10.429688 -1.816406 C 14.089844 -2.453125 17.539062 -4.738281 19.972656 -7.808594 C 23.085938 -4.660156 28.722656 -5 31.058594 -5.40625 C 37.515625 -6.53125 45.589844 -11.304688 48.375 -24.78125 C 48.9375 -28.003906 49.453125 -30.101562 49.210938 -31.5 C 48.75 -34.148438 46.480469 -35.195312 44.222656 -34.804688 Z M 18.402344 -31.109375 L 16.683594 -18.863281 C 15.929688 -13.519531 13.175781 -11.835938 11.542969 -11.550781 C 9.828125 -11.253906 8.785156 -12.195312 8.472656 -13.984375 C 8.296875 -14.996094 8.367188 -15.972656 8.480469 -16.714844 L 10.738281 -33.226562 C 11.390625 -38.230469 13.460938 -39.234375 14.707031 -39.449219 C 16.183594 -39.707031 18.078125 -38.511719 18.539062 -35.867188 C 18.742188 -34.699219 18.6875 -33.164062 18.402344 -31.109375 Z M 18.402344 -31.109375 "/></g></g></g><g fill="#f6f3e4" fill-opacity="1"><g transform="translate(154.082565, 199.690457)"><g><path d="M 39.53125 -29.976562 C 37.730469 -20.039062 34.113281 -15.480469 30.457031 -14.84375 C 29.054688 -14.601562 28.15625 -15.164062 27.925781 -16.488281 C 27.828125 -17.035156 27.878906 -17.683594 27.976562 -18.503906 L 31.039062 -36.839844 C 31.3125 -38.492188 31.378906 -39.945312 31.148438 -41.269531 C 30.066406 -47.496094 23.960938 -51.246094 17.734375 -50.160156 C 14.699219 -49.632812 12.40625 -48.511719 10.640625 -46.679688 C 9.929688 -48 7.847656 -48.441406 5.746094 -48.074219 C 3.566406 -47.695312 1.640625 -46.316406 1.242188 -44.003906 L -5.429688 -5.390625 C -5.539062 -4.648438 -5.511719 -4.011719 -5.402344 -3.390625 C -4.902344 -0.511719 -2.386719 0.574219 0.105469 0.140625 C 2.828125 -0.332031 5.644531 -2.585938 6.203125 -6.292969 C 7.613281 -14.316406 9.492188 -25.628906 10.839844 -33.5625 C 12.261719 -37.820312 14.660156 -40.164062 16.839844 -40.542969 C 18.242188 -40.785156 19.417969 -40.027344 19.675781 -38.550781 C 19.769531 -38.003906 19.734375 -37.277344 19.625 -36.535156 L 16.734375 -19.511719 C 16.421875 -17.613281 16.332031 -15.835938 16.613281 -14.199219 C 17.859375 -7.039062 24.441406 -4.253906 31.058594 -5.40625 C 38.996094 -6.789062 46.546875 -13.636719 49.273438 -29.75 C 49.398438 -30.410156 49.445312 -31.0625 49.351562 -31.605469 C 48.917969 -34.097656 46.429688 -35.027344 44.097656 -34.621094 C 41.992188 -34.253906 39.863281 -32.679688 39.53125 -29.976562 Z M 39.53125 -29.976562 "/></g></g></g><g fill="#f6f3e4" fill-opacity="1"><g transform="translate(194.945873, 192.577529)"><g><path d="M 5.628906 -64.414062 L -3.554688 -8.441406 C -3.742188 -7.207031 -3.71875 -6.167969 -3.542969 -5.15625 C -2.921875 -1.578125 0 0 2.800781 -0.488281 C 5.527344 -0.960938 7.988281 -3.394531 8.699219 -7.609375 L 17.882812 -63.582031 C 18.070312 -64.816406 18.050781 -65.855469 17.871094 -66.867188 C 17.25 -70.445312 14.328125 -72.023438 11.527344 -71.535156 C 8.800781 -71.0625 6.089844 -68.664062 5.628906 -64.414062 Z M 5.628906 -64.414062 "/></g></g></g><g fill="#f6f3e4" fill-opacity="1"><g transform="translate(215.338608, 189.027839)"><g><path d="M 37.496094 -29.222656 C 36.429688 -24.304688 34.257812 -20.640625 31.046875 -17.914062 C 31.023438 -18.953125 31.019531 -19.914062 30.839844 -20.925781 C 30.054688 -25.441406 26.898438 -29.300781 24.082031 -32.582031 C 22.0625 -34.957031 20.046875 -37.332031 19.316406 -39.691406 C 21.332031 -41.003906 22.609375 -43.792969 22.203125 -46.128906 C 21.621094 -49.476562 18.511719 -52.140625 14.621094 -51.464844 C 11.660156 -50.949219 8.960938 -48.957031 8.011719 -45.664062 C 6.003906 -39.21875 3.777344 -32.65625 1.679688 -26.277344 C -3.304688 -24.046875 -4.84375 -17.683594 -3.976562 -12.699219 C -2.648438 -5.074219 6.011719 -0.484375 19.789062 -2.882812 C 33.332031 -5.242188 44.578125 -12.492188 47.292969 -29.164062 C 47.394531 -29.5 47.324219 -29.890625 47.269531 -30.203125 C 46.878906 -32.460938 44.023438 -33.648438 41.535156 -33.214844 C 39.664062 -32.886719 37.960938 -31.628906 37.496094 -29.222656 Z M 12.457031 -27.027344 L 12.898438 -28.628906 C 15.722656 -26.234375 18.242188 -22.824219 18.878906 -19.164062 C 19.515625 -15.507812 18.097656 -12.132812 14 -11.257812 C 11.351562 -10.796875 8.8125 -11.558594 7.605469 -13.433594 C 8.253906 -13.386719 8.878906 -13.496094 9.421875 -13.589844 C 13.9375 -14.375 15.921875 -18.648438 15.257812 -22.464844 C 14.945312 -24.253906 14.011719 -25.9375 12.457031 -27.027344 Z M 12.457031 -27.027344 "/></g></g></g><g fill="#f6f3e4" fill-opacity="1"><g transform="translate(254.178214, 182.267169)"><g><path d="M 8.457031 -14.542969 L 16.5625 -64.714844 C 16.710938 -65.703125 16.707031 -66.664062 16.570312 -67.441406 C 16.054688 -70.398438 12.914062 -71.859375 10.578125 -71.449219 C 7.621094 -70.9375 5.960938 -68.964844 5.324219 -65.242188 L -2.816406 -16.191406 C -3.128906 -14.292969 -3.15625 -12.601562 -2.871094 -10.96875 C -1.625 -3.808594 4.980469 -0.867188 11.832031 -2.058594 C 19.226562 -3.347656 27.6875 -9.550781 30.320312 -26.691406 C 30.378906 -27.261719 30.363281 -27.820312 30.28125 -28.289062 C 29.847656 -30.777344 27.355469 -32.1875 24.945312 -31.769531 C 23 -31.429688 21.101562 -29.898438 20.511719 -26.828125 C 18.636719 -16.875 14.8125 -12.121094 11.152344 -11.484375 C 9.597656 -11.214844 8.578125 -12 8.375 -13.167969 C 8.320312 -13.476562 8.378906 -14.050781 8.457031 -14.542969 Z M 8.457031 -14.542969 "/></g></g></g><g fill="#f6f3e4" fill-opacity="1"><g transform="translate(275.894147, 178.487155)"><g><path d="M 35.566406 -28.804688 C 33.710938 -19.179688 26.175781 -14.097656 19.558594 -12.949219 C 13.878906 -11.957031 9.824219 -14.058594 9.199219 -17.640625 C 9.078125 -18.339844 9.035156 -19.054688 9.210938 -19.886719 L 9.574219 -21.476562 C 12.074219 -20.464844 15.039062 -20.019531 18.152344 -20.5625 C 25.238281 -21.796875 30.691406 -27.316406 31.574219 -34.6875 C 31.707031 -36.234375 31.679688 -37.753906 31.453125 -39.078125 C 30.164062 -46.472656 23.335938 -51.136719 14.542969 -49.605469 C 7.613281 -48.398438 1.546875 -43.171875 0.175781 -34.914062 L -2.097656 -20.804688 C -2.394531 -18.828125 -2.460938 -16.894531 -2.148438 -15.105469 C -0.535156 -5.839844 9.183594 -1.597656 20.550781 -3.578125 C 31.367188 -5.460938 42.746094 -12.894531 45.292969 -28.65625 C 45.417969 -29.316406 45.402344 -29.875 45.320312 -30.34375 C 44.902344 -32.757812 42.492188 -33.699219 40.15625 -33.292969 C 37.976562 -32.914062 35.84375 -31.339844 35.566406 -28.804688 Z M 15.90625 -40.378906 C 18.085938 -40.761719 19.800781 -39.214844 20.191406 -36.957031 C 20.300781 -36.332031 20.332031 -35.699219 20.207031 -35.035156 C 19.875 -32.328125 17.703125 -30.988281 15.367188 -30.582031 C 13.886719 -30.324219 12.355469 -30.378906 11.15625 -30.8125 L 11.976562 -35.765625 C 12.414062 -38.328125 14.117188 -40.070312 15.90625 -40.378906 Z M 15.90625 -40.378906 "/></g></g></g><g fill="#fd6155" fill-opacity="0.302"><g transform="translate(145.799585, 277.762792)"><g><path d="M 48.140625 -31.21875 C 46.277344 -21.660156 42.605469 -15.496094 38.035156 -14.804688 C 36.277344 -14.539062 35.015625 -15.285156 34.707031 -17.324219 C 34.558594 -18.308594 34.597656 -19.464844 34.878906 -20.945312 L 42.03125 -60.714844 C 42.175781 -61.671875 42.199219 -62.464844 42.082031 -63.238281 C 41.582031 -66.542969 38.734375 -68.269531 35.992188 -67.855469 C 33.671875 -67.507812 31.433594 -65.660156 30.707031 -61.882812 C 29.511719 -55.515625 28.117188 -46.675781 26.988281 -40.320312 L 14.828125 -38.484375 L 18.207031 -57.042969 C 18.398438 -58.152344 18.402344 -59.085938 18.265625 -60 C 17.777344 -63.234375 15.179688 -64.714844 12.648438 -64.332031 C 10.1875 -63.960938 7.699219 -61.859375 7.199219 -58.042969 L 3.15625 -36.722656 L 0.0625 -36.253906 C -4.226562 -35.605469 -5.644531 -33.089844 -5.304688 -30.839844 C -4.976562 -28.660156 -2.960938 -26.734375 -0.289062 -27.140625 L 1.398438 -27.394531 L -2.339844 -6.910156 C -2.503906 -6.09375 -2.527344 -5.300781 -2.429688 -4.667969 C -1.972656 -1.644531 0.984375 -0.148438 3.796875 -0.574219 C 6.117188 -0.925781 8.375 -2.632812 8.882812 -5.945312 C 10.085938 -12.742188 11.867188 -22.359375 13.070312 -29.15625 C 17.5 -29.828125 21.144531 -30.449219 25.363281 -31.085938 C 24.613281 -27.015625 24.148438 -24.863281 23.433594 -21.015625 C 23.136719 -19.171875 23.121094 -17.371094 23.367188 -15.753906 C 24.492188 -8.300781 31.21875 -4.714844 38.53125 -5.820312 C 49.074219 -7.414062 54.6875 -17.394531 56.957031 -30.464844 C 57.03125 -30.90625 57.046875 -31.773438 56.992188 -32.125 C 56.664062 -34.304688 54.375 -35.179688 52.195312 -34.851562 C 50.226562 -34.554688 48.394531 -33.34375 48.140625 -31.21875 Z M 48.140625 -31.21875 "/></g></g></g><g fill="#fd6155" fill-opacity="0.302"><g transform="translate(194.100197, 270.467182)"><g><path d="M 11.703125 -50.597656 C 14.867188 -51.074219 17.074219 -54.070312 16.585938 -57.304688 C 16.109375 -60.46875 13.125 -62.605469 9.960938 -62.128906 C 6.796875 -61.648438 4.578125 -58.726562 5.054688 -55.5625 C 5.542969 -52.328125 8.539062 -50.117188 11.703125 -50.597656 Z M 7.625 -13.304688 L 12.027344 -36.550781 C 12.167969 -37.507812 12.371094 -38.542969 12.265625 -39.246094 C 11.796875 -42.339844 9.234375 -43.609375 6.84375 -43.246094 C 4.664062 -42.917969 2.578125 -41.019531 1.953125 -37.546875 C 0.699219 -30.597656 -0.988281 -21.785156 -2.25 -14.90625 C -2.460938 -13.4375 -2.738281 -11.453125 -2.554688 -10.257812 C -1.558594 -3.648438 4.5 -0.679688 10.96875 -1.65625 C 17.859375 -2.699219 24.816406 -8.0625 27.539062 -23.359375 C 27.613281 -23.804688 27.621094 -24.234375 27.558594 -24.65625 C 27.230469 -26.835938 24.917969 -27.855469 22.808594 -27.535156 C 20.910156 -27.25 19.160156 -25.976562 18.644531 -23.671875 C 16.722656 -14.03125 13.429688 -10.585938 10.617188 -10.160156 C 9 -9.917969 7.789062 -10.8125 7.585938 -12.148438 C 7.53125 -12.5 7.550781 -12.863281 7.625 -13.304688 Z M 7.625 -13.304688 "/></g></g></g><g fill="#fd6155" fill-opacity="0.302"><g transform="translate(213.504807, 267.536195)"><g><path d="M 35.988281 -25.5 C 34.601562 -18.027344 31.640625 -13.335938 28.125 -12.804688 C 27.140625 -12.65625 26.703125 -13.167969 26.609375 -13.800781 C 26.523438 -14.363281 26.558594 -15.085938 26.675781 -15.75 C 27.230469 -19.214844 27.453125 -20.113281 27.1875 -21.871094 C 26.933594 -23.554688 26.289062 -24.96875 25.144531 -25.875 C 26.941406 -27.296875 28.503906 -29.332031 29.136719 -32.304688 C 29.378906 -33.5625 29.457031 -34.941406 29.265625 -36.207031 C 28.449219 -41.621094 23.4375 -45.753906 17.320312 -44.828125 C 15.984375 -44.628906 14.941406 -44.398438 13.738281 -43.785156 L 16.195312 -57.027344 C 16.398438 -58.066406 16.542969 -59.023438 16.414062 -59.867188 C 15.949219 -62.960938 13.351562 -64.4375 10.890625 -64.066406 C 8.570312 -63.714844 6.835938 -61.871094 6.148438 -58.316406 L -3.761719 -4.898438 C -3.816406 -4.3125 -3.824219 -3.882812 -3.746094 -3.390625 C -3.367188 -0.859375 -0.984375 0.148438 1.40625 -0.210938 C 3.9375 -0.59375 6.386719 -2.476562 6.875 -5.425781 L 9.136719 -19.503906 C 10.824219 -18.320312 12.363281 -18.121094 13.628906 -18.3125 C 15.035156 -18.523438 16.085938 -19.1875 16.675781 -19.5625 C 17.136719 -19.847656 16.65625 -18.265625 16.484375 -17.519531 C 16.066406 -15.515625 16 -13.5625 16.265625 -11.804688 C 17.085938 -6.390625 21.023438 -3.175781 27.914062 -4.214844 C 37.40625 -5.648438 42.980469 -13.972656 44.847656 -25.398438 C 44.925781 -25.84375 44.941406 -26.203125 44.890625 -26.554688 C 44.570312 -28.664062 42.199219 -29.601562 40.019531 -29.273438 C 38.121094 -28.984375 36.292969 -27.773438 35.988281 -25.5 Z M 10.699219 -27.71875 L 11.421875 -31.496094 C 12.304688 -34.21875 14.285156 -35.886719 16.324219 -36.191406 C 18.082031 -36.457031 19.554688 -35.746094 19.789062 -34.199219 C 19.851562 -33.777344 19.84375 -33.34375 19.707031 -32.820312 C 19.320312 -31.109375 18.011719 -29.761719 16.402344 -29.011719 C 15.535156 -29.027344 14.742188 -29.050781 13.96875 -28.933594 C 12.5625 -28.722656 11.410156 -28.257812 10.699219 -27.71875 Z M 10.699219 -27.71875 "/></g></g></g><g fill="#fd6155" fill-opacity="0.302"><g transform="translate(250.345448, 261.971567)"><g><path d="M 32.582031 -25.199219 C 30.71875 -16.578125 23.835938 -12.15625 17.859375 -11.253906 C 12.726562 -10.480469 9.121094 -12.453125 8.632812 -15.6875 C 8.539062 -16.320312 8.511719 -16.960938 8.6875 -17.707031 L 9.046875 -19.128906 C 11.277344 -18.171875 13.9375 -17.710938 16.75 -18.136719 C 23.148438 -19.101562 28.167969 -23.957031 29.109375 -30.574219 C 29.257812 -31.960938 29.269531 -33.328125 29.085938 -34.523438 C 28.078125 -41.203125 22.03125 -45.539062 14.085938 -44.339844 C 7.828125 -43.394531 2.261719 -38.816406 0.863281 -31.414062 L -1.46875 -18.761719 C -1.773438 -16.992188 -1.871094 -15.25 -1.628906 -13.632812 C -0.363281 -5.265625 8.296875 -1.253906 18.5625 -2.804688 C 28.335938 -4.28125 38.722656 -10.738281 41.332031 -24.867188 C 41.460938 -25.464844 41.457031 -25.964844 41.390625 -26.386719 C 41.0625 -28.566406 38.914062 -29.464844 36.804688 -29.148438 C 34.835938 -28.847656 32.886719 -27.476562 32.582031 -25.199219 Z M 15.128906 -36.011719 C 17.097656 -36.308594 18.605469 -34.882812 18.914062 -32.84375 C 19 -32.28125 19.015625 -31.710938 18.886719 -31.113281 C 18.535156 -28.6875 16.554688 -27.527344 14.445312 -27.207031 C 13.109375 -27.003906 11.730469 -27.085938 10.660156 -27.5 L 11.5 -31.941406 C 11.945312 -34.238281 13.511719 -35.769531 15.128906 -36.011719 Z M 15.128906 -36.011719 "/></g></g></g><g fill="#fd6155" fill-opacity="0.502"><g transform="translate(142.560938, 273.982792)"><g><path d="M 48.140625 -31.21875 C 46.277344 -21.660156 42.605469 -15.496094 38.035156 -14.804688 C 36.277344 -14.539062 35.015625 -15.285156 34.707031 -17.324219 C 34.558594 -18.308594 34.597656 -19.464844 34.878906 -20.945312 L 42.03125 -60.714844 C 42.175781 -61.671875 42.199219 -62.464844 42.082031 -63.238281 C 41.582031 -66.542969 38.734375 -68.269531 35.992188 -67.855469 C 33.671875 -67.507812 31.433594 -65.660156 30.707031 -61.882812 C 29.511719 -55.515625 28.117188 -46.675781 26.988281 -40.320312 L 14.828125 -38.484375 L 18.207031 -57.042969 C 18.398438 -58.152344 18.402344 -59.085938 18.265625 -60 C 17.777344 -63.234375 15.179688 -64.714844 12.648438 -64.332031 C 10.1875 -63.960938 7.699219 -61.859375 7.199219 -58.042969 L 3.15625 -36.722656 L 0.0625 -36.253906 C -4.226562 -35.605469 -5.644531 -33.089844 -5.304688 -30.839844 C -4.976562 -28.660156 -2.960938 -26.734375 -0.289062 -27.140625 L 1.398438 -27.394531 L -2.339844 -6.910156 C -2.503906 -6.09375 -2.527344 -5.300781 -2.429688 -4.667969 C -1.972656 -1.644531 0.984375 -0.148438 3.796875 -0.574219 C 6.117188 -0.925781 8.375 -2.632812 8.882812 -5.945312 C 10.085938 -12.742188 11.867188 -22.359375 13.070312 -29.15625 C 17.5 -29.828125 21.144531 -30.449219 25.363281 -31.085938 C 24.613281 -27.015625 24.148438 -24.863281 23.433594 -21.015625 C 23.136719 -19.171875 23.121094 -17.371094 23.367188 -15.753906 C 24.492188 -8.300781 31.21875 -4.714844 38.53125 -5.820312 C 49.074219 -7.414062 54.6875 -17.394531 56.957031 -30.464844 C 57.03125 -30.90625 57.046875 -31.773438 56.992188 -32.125 C 56.664062 -34.304688 54.375 -35.179688 52.195312 -34.851562 C 50.226562 -34.554688 48.394531 -33.34375 48.140625 -31.21875 Z M 48.140625 -31.21875 "/></g></g></g><g fill="#fd6155" fill-opacity="0.502"><g transform="translate(190.861551, 266.687183)"><g><path d="M 11.703125 -50.597656 C 14.867188 -51.074219 17.074219 -54.070312 16.585938 -57.304688 C 16.109375 -60.46875 13.125 -62.605469 9.960938 -62.128906 C 6.796875 -61.648438 4.578125 -58.726562 5.054688 -55.5625 C 5.542969 -52.328125 8.539062 -50.117188 11.703125 -50.597656 Z M 7.625 -13.304688 L 12.027344 -36.550781 C 12.167969 -37.507812 12.371094 -38.542969 12.265625 -39.246094 C 11.796875 -42.339844 9.234375 -43.609375 6.84375 -43.246094 C 4.664062 -42.917969 2.578125 -41.019531 1.953125 -37.546875 C 0.699219 -30.597656 -0.988281 -21.785156 -2.25 -14.90625 C -2.460938 -13.4375 -2.738281 -11.453125 -2.554688 -10.257812 C -1.558594 -3.648438 4.5 -0.679688 10.96875 -1.65625 C 17.859375 -2.699219 24.816406 -8.0625 27.539062 -23.359375 C 27.613281 -23.804688 27.621094 -24.234375 27.558594 -24.65625 C 27.230469 -26.835938 24.917969 -27.855469 22.808594 -27.535156 C 20.910156 -27.25 19.160156 -25.976562 18.644531 -23.671875 C 16.722656 -14.03125 13.429688 -10.585938 10.617188 -10.160156 C 9 -9.917969 7.789062 -10.8125 7.585938 -12.148438 C 7.53125 -12.5 7.550781 -12.863281 7.625 -13.304688 Z M 7.625 -13.304688 "/></g></g></g><g fill="#fd6155" fill-opacity="0.502"><g transform="translate(210.26616, 263.756196)"><g><path d="M 35.988281 -25.5 C 34.601562 -18.027344 31.640625 -13.335938 28.125 -12.804688 C 27.140625 -12.65625 26.703125 -13.167969 26.609375 -13.800781 C 26.523438 -14.363281 26.558594 -15.085938 26.675781 -15.75 C 27.230469 -19.214844 27.453125 -20.113281 27.1875 -21.871094 C 26.933594 -23.554688 26.289062 -24.96875 25.144531 -25.875 C 26.941406 -27.296875 28.503906 -29.332031 29.136719 -32.304688 C 29.378906 -33.5625 29.457031 -34.941406 29.265625 -36.207031 C 28.449219 -41.621094 23.4375 -45.753906 17.320312 -44.828125 C 15.984375 -44.628906 14.941406 -44.398438 13.738281 -43.785156 L 16.195312 -57.027344 C 16.398438 -58.066406 16.542969 -59.023438 16.414062 -59.867188 C 15.949219 -62.960938 13.351562 -64.4375 10.890625 -64.066406 C 8.570312 -63.714844 6.835938 -61.871094 6.148438 -58.316406 L -3.761719 -4.898438 C -3.816406 -4.3125 -3.824219 -3.882812 -3.746094 -3.390625 C -3.367188 -0.859375 -0.984375 0.148438 1.40625 -0.210938 C 3.9375 -0.59375 6.386719 -2.476562 6.875 -5.425781 L 9.136719 -19.503906 C 10.824219 -18.320312 12.363281 -18.121094 13.628906 -18.3125 C 15.035156 -18.523438 16.085938 -19.1875 16.675781 -19.5625 C 17.136719 -19.847656 16.65625 -18.265625 16.484375 -17.519531 C 16.066406 -15.515625 16 -13.5625 16.265625 -11.804688 C 17.085938 -6.390625 21.023438 -3.175781 27.914062 -4.214844 C 37.40625 -5.648438 42.980469 -13.972656 44.847656 -25.398438 C 44.925781 -25.84375 44.941406 -26.203125 44.890625 -26.554688 C 44.570312 -28.664062 42.199219 -29.601562 40.019531 -29.273438 C 38.121094 -28.984375 36.292969 -27.773438 35.988281 -25.5 Z M 10.699219 -27.71875 L 11.421875 -31.496094 C 12.304688 -34.21875 14.285156 -35.886719 16.324219 -36.191406 C 18.082031 -36.457031 19.554688 -35.746094 19.789062 -34.199219 C 19.851562 -33.777344 19.84375 -33.34375 19.707031 -32.820312 C 19.320312 -31.109375 18.011719 -29.761719 16.402344 -29.011719 C 15.535156 -29.027344 14.742188 -29.050781 13.96875 -28.933594 C 12.5625 -28.722656 11.410156 -28.257812 10.699219 -27.71875 Z M 10.699219 -27.71875 "/></g></g></g><g fill="#fd6155" fill-opacity="0.502"><g transform="translate(247.106802, 258.191568)"><g><path d="M 32.582031 -25.199219 C 30.71875 -16.578125 23.835938 -12.15625 17.859375 -11.253906 C 12.726562 -10.480469 9.121094 -12.453125 8.632812 -15.6875 C 8.539062 -16.320312 8.511719 -16.960938 8.6875 -17.707031 L 9.046875 -19.128906 C 11.277344 -18.171875 13.9375 -17.710938 16.75 -18.136719 C 23.148438 -19.101562 28.167969 -23.957031 29.109375 -30.574219 C 29.257812 -31.960938 29.269531 -33.328125 29.085938 -34.523438 C 28.078125 -41.203125 22.03125 -45.539062 14.085938 -44.339844 C 7.828125 -43.394531 2.261719 -38.816406 0.863281 -31.414062 L -1.46875 -18.761719 C -1.773438 -16.992188 -1.871094 -15.25 -1.628906 -13.632812 C -0.363281 -5.265625 8.296875 -1.253906 18.5625 -2.804688 C 28.335938 -4.28125 38.722656 -10.738281 41.332031 -24.867188 C 41.460938 -25.464844 41.457031 -25.964844 41.390625 -26.386719 C 41.0625 -28.566406 38.914062 -29.464844 36.804688 -29.148438 C 34.835938 -28.847656 32.886719 -27.476562 32.582031 -25.199219 Z M 15.128906 -36.011719 C 17.097656 -36.308594 18.605469 -34.882812 18.914062 -32.84375 C 19 -32.28125 19.015625 -31.710938 18.886719 -31.113281 C 18.535156 -28.6875 16.554688 -27.527344 14.445312 -27.207031 C 13.109375 -27.003906 11.730469 -27.085938 10.660156 -27.5 L 11.5 -31.941406 C 11.945312 -34.238281 13.511719 -35.769531 15.128906 -36.011719 Z M 15.128906 -36.011719 "/></g></g></g><g fill="#f6f3e4" fill-opacity="1"><g transform="translate(139.322295, 270.202778)"><g><path d="M 48.140625 -31.21875 C 46.277344 -21.660156 42.605469 -15.496094 38.035156 -14.804688 C 36.277344 -14.539062 35.015625 -15.285156 34.707031 -17.324219 C 34.558594 -18.308594 34.597656 -19.464844 34.878906 -20.945312 L 42.03125 -60.714844 C 42.175781 -61.671875 42.199219 -62.464844 42.082031 -63.238281 C 41.582031 -66.542969 38.734375 -68.269531 35.992188 -67.855469 C 33.671875 -67.507812 31.433594 -65.660156 30.707031 -61.882812 C 29.511719 -55.515625 28.117188 -46.675781 26.988281 -40.320312 L 14.828125 -38.484375 L 18.207031 -57.042969 C 18.398438 -58.152344 18.402344 -59.085938 18.265625 -60 C 17.777344 -63.234375 15.179688 -64.714844 12.648438 -64.332031 C 10.1875 -63.960938 7.699219 -61.859375 7.199219 -58.042969 L 3.15625 -36.722656 L 0.0625 -36.253906 C -4.226562 -35.605469 -5.644531 -33.089844 -5.304688 -30.839844 C -4.976562 -28.660156 -2.960938 -26.734375 -0.289062 -27.140625 L 1.398438 -27.394531 L -2.339844 -6.910156 C -2.503906 -6.09375 -2.527344 -5.300781 -2.429688 -4.667969 C -1.972656 -1.644531 0.984375 -0.148438 3.796875 -0.574219 C 6.117188 -0.925781 8.375 -2.632812 8.882812 -5.945312 C 10.085938 -12.742188 11.867188 -22.359375 13.070312 -29.15625 C 17.5 -29.828125 21.144531 -30.449219 25.363281 -31.085938 C 24.613281 -27.015625 24.148438 -24.863281 23.433594 -21.015625 C 23.136719 -19.171875 23.121094 -17.371094 23.367188 -15.753906 C 24.492188 -8.300781 31.21875 -4.714844 38.53125 -5.820312 C 49.074219 -7.414062 54.6875 -17.394531 56.957031 -30.464844 C 57.03125 -30.90625 57.046875 -31.773438 56.992188 -32.125 C 56.664062 -34.304688 54.375 -35.179688 52.195312 -34.851562 C 50.226562 -34.554688 48.394531 -33.34375 48.140625 -31.21875 Z M 48.140625 -31.21875 "/></g></g></g><g fill="#f6f3e4" fill-opacity="1"><g transform="translate(187.622907, 262.907168)"><g><path d="M 11.703125 -50.597656 C 14.867188 -51.074219 17.074219 -54.070312 16.585938 -57.304688 C 16.109375 -60.46875 13.125 -62.605469 9.960938 -62.128906 C 6.796875 -61.648438 4.578125 -58.726562 5.054688 -55.5625 C 5.542969 -52.328125 8.539062 -50.117188 11.703125 -50.597656 Z M 7.625 -13.304688 L 12.027344 -36.550781 C 12.167969 -37.507812 12.371094 -38.542969 12.265625 -39.246094 C 11.796875 -42.339844 9.234375 -43.609375 6.84375 -43.246094 C 4.664062 -42.917969 2.578125 -41.019531 1.953125 -37.546875 C 0.699219 -30.597656 -0.988281 -21.785156 -2.25 -14.90625 C -2.460938 -13.4375 -2.738281 -11.453125 -2.554688 -10.257812 C -1.558594 -3.648438 4.5 -0.679688 10.96875 -1.65625 C 17.859375 -2.699219 24.816406 -8.0625 27.539062 -23.359375 C 27.613281 -23.804688 27.621094 -24.234375 27.558594 -24.65625 C 27.230469 -26.835938 24.917969 -27.855469 22.808594 -27.535156 C 20.910156 -27.25 19.160156 -25.976562 18.644531 -23.671875 C 16.722656 -14.03125 13.429688 -10.585938 10.617188 -10.160156 C 9 -9.917969 7.789062 -10.8125 7.585938 -12.148438 C 7.53125 -12.5 7.550781 -12.863281 7.625 -13.304688 Z M 7.625 -13.304688 "/></g></g></g><g fill="#f6f3e4" fill-opacity="1"><g transform="translate(207.027517, 259.976182)"><g><path d="M 35.988281 -25.5 C 34.601562 -18.027344 31.640625 -13.335938 28.125 -12.804688 C 27.140625 -12.65625 26.703125 -13.167969 26.609375 -13.800781 C 26.523438 -14.363281 26.558594 -15.085938 26.675781 -15.75 C 27.230469 -19.214844 27.453125 -20.113281 27.1875 -21.871094 C 26.933594 -23.554688 26.289062 -24.96875 25.144531 -25.875 C 26.941406 -27.296875 28.503906 -29.332031 29.136719 -32.304688 C 29.378906 -33.5625 29.457031 -34.941406 29.265625 -36.207031 C 28.449219 -41.621094 23.4375 -45.753906 17.320312 -44.828125 C 15.984375 -44.628906 14.941406 -44.398438 13.738281 -43.785156 L 16.195312 -57.027344 C 16.398438 -58.066406 16.542969 -59.023438 16.414062 -59.867188 C 15.949219 -62.960938 13.351562 -64.4375 10.890625 -64.066406 C 8.570312 -63.714844 6.835938 -61.871094 6.148438 -58.316406 L -3.761719 -4.898438 C -3.816406 -4.3125 -3.824219 -3.882812 -3.746094 -3.390625 C -3.367188 -0.859375 -0.984375 0.148438 1.40625 -0.210938 C 3.9375 -0.59375 6.386719 -2.476562 6.875 -5.425781 L 9.136719 -19.503906 C 10.824219 -18.320312 12.363281 -18.121094 13.628906 -18.3125 C 15.035156 -18.523438 16.085938 -19.1875 16.675781 -19.5625 C 17.136719 -19.847656 16.65625 -18.265625 16.484375 -17.519531 C 16.066406 -15.515625 16 -13.5625 16.265625 -11.804688 C 17.085938 -6.390625 21.023438 -3.175781 27.914062 -4.214844 C 37.40625 -5.648438 42.980469 -13.972656 44.847656 -25.398438 C 44.925781 -25.84375 44.941406 -26.203125 44.890625 -26.554688 C 44.570312 -28.664062 42.199219 -29.601562 40.019531 -29.273438 C 38.121094 -28.984375 36.292969 -27.773438 35.988281 -25.5 Z M 10.699219 -27.71875 L 11.421875 -31.496094 C 12.304688 -34.21875 14.285156 -35.886719 16.324219 -36.191406 C 18.082031 -36.457031 19.554688 -35.746094 19.789062 -34.199219 C 19.851562 -33.777344 19.84375 -33.34375 19.707031 -32.820312 C 19.320312 -31.109375 18.011719 -29.761719 16.402344 -29.011719 C 15.535156 -29.027344 14.742188 -29.050781 13.96875 -28.933594 C 12.5625 -28.722656 11.410156 -28.257812 10.699219 -27.71875 Z M 10.699219 -27.71875 "/></g></g></g><g fill="#f6f3e4" fill-opacity="1"><g transform="translate(243.868158, 254.411553)"><g><path d="M 32.582031 -25.199219 C 30.71875 -16.578125 23.835938 -12.15625 17.859375 -11.253906 C 12.726562 -10.480469 9.121094 -12.453125 8.632812 -15.6875 C 8.539062 -16.320312 8.511719 -16.960938 8.6875 -17.707031 L 9.046875 -19.128906 C 11.277344 -18.171875 13.9375 -17.710938 16.75 -18.136719 C 23.148438 -19.101562 28.167969 -23.957031 29.109375 -30.574219 C 29.257812 -31.960938 29.269531 -33.328125 29.085938 -34.523438 C 28.078125 -41.203125 22.03125 -45.539062 14.085938 -44.339844 C 7.828125 -43.394531 2.261719 -38.816406 0.863281 -31.414062 L -1.46875 -18.761719 C -1.773438 -16.992188 -1.871094 -15.25 -1.628906 -13.632812 C -0.363281 -5.265625 8.296875 -1.253906 18.5625 -2.804688 C 28.335938 -4.28125 38.722656 -10.738281 41.332031 -24.867188 C 41.460938 -25.464844 41.457031 -25.964844 41.390625 -26.386719 C 41.0625 -28.566406 38.914062 -29.464844 36.804688 -29.148438 C 34.835938 -28.847656 32.886719 -27.476562 32.582031 -25.199219 Z M 15.128906 -36.011719 C 17.097656 -36.308594 18.605469 -34.882812 18.914062 -32.84375 C 19 -32.28125 19.015625 -31.710938 18.886719 -31.113281 C 18.535156 -28.6875 16.554688 -27.527344 14.445312 -27.207031 C 13.109375 -27.003906 11.730469 -27.085938 10.660156 -27.5 L 11.5 -31.941406 C 11.945312 -34.238281 13.511719 -35.769531 15.128906 -36.011719 Z M 15.128906 -36.011719 "/></g></g></g></svg>